M48
;Layer_Color=9474304
;FILE_FORMAT=2:5
INCH,TZ
;TYPE=PLATED
T1F00S00C0.02800
T2F00S00C0.03543
T3F00S00C0.04000
;TYPE=NON_PLATED
T4F00S00C0.12992
%
T01
X314961Y127953
X351500Y124500
X396500Y129500
X419000Y134500
X386400Y155400
X486500Y139500
X515748Y141732
X486500Y164500
X523622Y200787
X396500Y172000
X364000Y184500
X295000Y237500
Y340000
Y440000
X335000Y350000
X449803Y376969
X475394
Y389764
X500000Y376969
X511811Y369094
T02
X309842Y104724
Y114724
X287500Y150000
X489500Y212500
Y222500
Y232500
Y242500
Y252500
Y262500
Y272500
Y282500
Y292500
X505000Y232500
Y222500
Y212500
X450000
Y222500
Y232500
X434500
Y242500
Y252500
Y262500
Y272500
Y282500
Y292500
Y222500
Y212500
X320000Y207500
Y197500
Y217500
Y227500
Y237500
Y247500
Y257500
Y267500
Y277500
Y300000
Y310000
X305000
Y300000
Y217500
Y207500
Y197500
X287500Y170000
Y160000
X305000Y320000
Y402500
Y412500
Y422500
X320000
Y412500
Y402500
Y380000
Y370000
Y360000
Y350000
Y340000
Y330000
Y320000
Y432500
Y442500
Y452500
Y462500
X437500Y465000
X452500
X467500
X462500Y420000
Y410000
X437500
Y420000
Y340000
Y330000
Y320000
X462500
Y330000
Y340000
X487500
Y330000
Y320000
X512500
Y330000
Y340000
Y410000
Y420000
X487500
Y410000
X482500Y465000
X497500
X512500
Y475000
X497500
X482500
X467500
X452500
X437500
X320000Y472500
Y482500
T03
X347500Y212500
Y222500
Y232500
Y242500
Y252500
Y262500
Y272500
Y282500
Y292500
Y302500
X357500Y292500
Y282500
Y272500
Y262500
X367500
X377500
X387500
X397500
X407500
Y252500
Y242500
Y232500
Y222500
Y212500
X397500
Y222500
Y232500
Y242500
Y252500
Y272500
X407500
Y282500
Y292500
Y302500
X397500Y292500
Y282500
X357500Y252500
Y242500
Y232500
Y222500
Y212500
X347500Y312500
Y322500
Y332500
Y342500
Y352500
Y362500
Y372500
Y382500
Y392500
Y402500
Y412500
Y422500
Y432500
Y442500
X407500
Y432500
Y422500
Y412500
Y402500
Y392500
Y382500
Y372500
Y362500
Y352500
Y342500
Y332500
Y322500
Y312500
X397500Y352500
Y362500
Y372500
Y382500
Y392500
Y402500
Y412500
Y432500
T04
X338583Y110236
X511811Y125984
X410000Y480000
M30
