G04*
G04 #@! TF.GenerationSoftware,Altium Limited,Altium Designer,18.0.9 (584)*
G04*
G04 Layer_Color=32768*
%FSLAX25Y25*%
%MOIN*%
G70*
G01*
G75*
%ADD11C,0.01000*%
%ADD12C,0.00394*%
%ADD13C,0.00787*%
%ADD14C,0.00600*%
%ADD56C,0.00197*%
G36*
X299500Y481900D02*
X309400D01*
Y453100D01*
X299500D01*
Y448350D01*
X290500D01*
Y453100D01*
X280600D01*
Y481900D01*
X290500D01*
Y486650D01*
X299500D01*
Y481900D01*
D02*
G37*
G36*
Y379400D02*
X309400D01*
Y350600D01*
X299500D01*
Y345850D01*
X290500D01*
Y350600D01*
X280600D01*
Y379400D01*
X290500D01*
Y384150D01*
X299500D01*
Y379400D01*
D02*
G37*
G36*
X519000Y292750D02*
X528900D01*
Y263950D01*
X519000D01*
Y259200D01*
X510000D01*
Y263950D01*
X500100D01*
Y292750D01*
X510000D01*
Y297500D01*
X519000D01*
Y292750D01*
D02*
G37*
G36*
X464500D02*
X474400D01*
Y263950D01*
X464500D01*
Y259200D01*
X455500D01*
Y263950D01*
X445600D01*
Y292750D01*
X455500D01*
Y297500D01*
X464500D01*
Y292750D01*
D02*
G37*
G36*
X299500Y276900D02*
X309400D01*
Y248100D01*
X299500D01*
Y243350D01*
X290500D01*
Y248100D01*
X280600D01*
Y276900D01*
X290500D01*
Y281650D01*
X299500D01*
Y276900D01*
D02*
G37*
G36*
X405350Y179050D02*
X411100D01*
Y159950D01*
X405350D01*
Y158700D01*
X387650D01*
Y159950D01*
X381900D01*
Y179050D01*
X387650D01*
Y180300D01*
X405350D01*
Y179050D01*
D02*
G37*
G36*
X528122Y179754D02*
X538022D01*
Y150954D01*
X528122D01*
Y146204D01*
X519122D01*
Y150954D01*
X509222D01*
Y179754D01*
X519122D01*
Y184504D01*
X528122D01*
Y179754D01*
D02*
G37*
G36*
X368500Y156400D02*
X378400D01*
Y127600D01*
X368500D01*
Y122850D01*
X359500D01*
Y127600D01*
X349600D01*
Y156400D01*
X359500D01*
Y161150D01*
X368500D01*
Y156400D01*
D02*
G37*
D11*
X302425Y135925D02*
X303213Y135138D01*
Y134744D02*
Y135138D01*
Y134744D02*
X327622D01*
Y174114D01*
X302425Y135925D02*
Y174114D01*
X327622D01*
D12*
X361024Y472480D02*
X364961D01*
X362992Y470512D02*
Y474449D01*
X444433Y177000D02*
X448370D01*
X446402Y175031D02*
Y178969D01*
X485850Y195012D02*
X492150D01*
X485850Y183988D02*
X492150D01*
Y195012D01*
X485850Y183988D02*
Y195012D01*
X489000Y187531D02*
Y191469D01*
X487032Y189500D02*
X490969D01*
X454177Y139016D02*
Y142953D01*
X452209Y140984D02*
X456146D01*
X510532Y381279D02*
X514468D01*
X512500Y379311D02*
Y383248D01*
X298228Y160433D02*
Y164370D01*
X296260Y162402D02*
X300197D01*
X485532Y381279D02*
X489468D01*
X487500Y379311D02*
Y383248D01*
X460532Y381279D02*
X464468D01*
X462500Y379311D02*
Y383248D01*
X435532Y381279D02*
X439468D01*
X437500Y379311D02*
Y383248D01*
X499532Y189500D02*
X503469D01*
X501500Y187531D02*
Y191469D01*
X494532Y149500D02*
X498469D01*
X496500Y147532D02*
Y151469D01*
X474532Y189500D02*
X478469D01*
X476500Y187531D02*
Y191469D01*
X473350Y183988D02*
Y195012D01*
X479650Y183988D02*
Y195012D01*
X473350Y183988D02*
X479650D01*
X473350Y195012D02*
X479650D01*
X474531Y167000D02*
X478468D01*
X476500Y165032D02*
Y168969D01*
X479650Y161488D02*
Y172512D01*
X473350Y161488D02*
Y172512D01*
X479650D01*
X473350Y161488D02*
X479650D01*
X494532Y167000D02*
X498469D01*
X496500Y165032D02*
Y168969D01*
X409453Y185031D02*
Y188969D01*
X407484Y187000D02*
X411421D01*
X403941Y190150D02*
X414965D01*
X403941Y183850D02*
X414965D01*
X403941D02*
Y190150D01*
X414965Y183850D02*
Y190150D01*
X387031Y139500D02*
X390969D01*
X389000Y137532D02*
Y141469D01*
X404531Y139500D02*
X408469D01*
X406500Y137532D02*
Y141469D01*
X404531Y129500D02*
X408469D01*
X406500Y127532D02*
Y131469D01*
X370850Y179559D02*
X377150D01*
X370850Y168535D02*
X377150D01*
Y179559D01*
X370850Y168535D02*
Y179559D01*
X374000Y172079D02*
Y176016D01*
X372032Y174047D02*
X375969D01*
X360850Y179559D02*
X367150D01*
X360850Y168535D02*
X367150D01*
Y179559D01*
X360850Y168535D02*
Y179559D01*
X364000Y172079D02*
Y176016D01*
X362032Y174047D02*
X365969D01*
X350850Y179559D02*
X357150D01*
X350850Y168535D02*
X357150D01*
Y179559D01*
X350850Y168535D02*
Y179559D01*
X354000Y172079D02*
Y176016D01*
X352032Y174047D02*
X355969D01*
X400988Y146350D02*
Y152650D01*
X412012Y146350D02*
Y152650D01*
X400988D02*
X412012D01*
X400988Y146350D02*
X412012D01*
X404532Y149500D02*
X408469D01*
X406500Y147532D02*
Y151469D01*
D13*
X340098Y205000D02*
Y449429D01*
X414902Y205000D02*
Y449429D01*
X340098D02*
X414902D01*
X340098Y205000D02*
X415000D01*
D14*
X359500Y161150D02*
X368500D01*
Y156400D02*
Y161150D01*
Y122850D02*
Y127600D01*
X359500Y122850D02*
X368500D01*
X359500D02*
Y127600D01*
Y156400D02*
Y161150D01*
X349600Y156400D02*
X359500D01*
X368500D02*
X378400D01*
Y127600D02*
Y156400D01*
X368500Y127600D02*
X378400D01*
X349600D02*
X359500D01*
X349600D02*
Y156400D01*
X290500Y345850D02*
X299500D01*
X290500D02*
Y350600D01*
Y379400D02*
Y384150D01*
X299500D01*
Y379400D02*
Y384150D01*
Y345850D02*
Y350600D01*
X309400D01*
X280600D02*
X290500D01*
X280600D02*
Y379400D01*
X290500D01*
X299500D02*
X309400D01*
Y350600D02*
Y379400D01*
X290500Y448350D02*
X299500D01*
X290500D02*
Y453100D01*
Y481900D02*
Y486650D01*
X299500D01*
Y481900D02*
Y486650D01*
Y448350D02*
Y453100D01*
X309400D01*
X280600D02*
X290500D01*
X280600D02*
Y481900D01*
X290500D01*
X299500D02*
X309400D01*
Y453100D02*
Y481900D01*
X290500Y243350D02*
X299500D01*
X290500D02*
Y248100D01*
Y276900D02*
Y281650D01*
X299500D01*
Y276900D02*
Y281650D01*
Y243350D02*
Y248100D01*
X309400D01*
X280600D02*
X290500D01*
X280600D02*
Y276900D01*
X290500D01*
X299500D02*
X309400D01*
Y248100D02*
Y276900D01*
X510000Y259200D02*
X519000D01*
X510000D02*
Y263950D01*
Y292750D02*
Y297500D01*
X519000D01*
Y292750D02*
Y297500D01*
Y259200D02*
Y263950D01*
X528900D01*
X500100D02*
X510000D01*
X500100D02*
Y292750D01*
X510000D01*
X519000D02*
X528900D01*
Y263950D02*
Y292750D01*
X455500Y259200D02*
X464500D01*
X455500D02*
Y263950D01*
Y292750D02*
Y297500D01*
X464500D01*
Y292750D02*
Y297500D01*
Y259200D02*
Y263950D01*
X474400D01*
X445600D02*
X455500D01*
X445600D02*
Y292750D01*
X455500D01*
X464500D02*
X474400D01*
Y263950D02*
Y292750D01*
X519122Y184504D02*
X528122D01*
Y179754D02*
Y184504D01*
Y146204D02*
Y150954D01*
X519122Y146204D02*
X528122D01*
X519122D02*
Y150954D01*
Y179754D02*
Y184504D01*
X509222Y179754D02*
X519122D01*
X528122D02*
X538022D01*
Y150954D02*
Y179754D01*
X528122Y150954D02*
X538022D01*
X509222D02*
X519122D01*
X509222D02*
Y179754D01*
X381900Y159950D02*
Y179050D01*
X387650D01*
Y180300D01*
X405350D01*
Y179050D02*
Y180300D01*
Y179050D02*
X411100D01*
Y159950D02*
Y179050D01*
X405350Y159950D02*
X411100D01*
X405350Y158700D02*
Y159950D01*
X387650Y158700D02*
X405350D01*
X387650D02*
Y159950D01*
X381900D02*
X387650D01*
D56*
X339370Y458839D02*
Y486122D01*
X386614Y458839D02*
Y486122D01*
X339370D02*
X386614D01*
X339370Y458839D02*
X386614D01*
X428902Y162630D02*
Y191370D01*
X463902Y162630D02*
Y191370D01*
X428902D02*
X463902D01*
X428902Y162630D02*
X463902D01*
X430555Y154626D02*
X477799D01*
X430555Y127342D02*
X477799D01*
X430555D02*
Y154626D01*
X477799Y127342D02*
Y154626D01*
X506398Y374980D02*
X518504D01*
X506398D02*
Y387579D01*
X518602D01*
Y374980D02*
Y387579D01*
X294488Y168898D02*
X301969D01*
X294488Y155905D02*
X301969D01*
Y168898D01*
X294488Y155905D02*
Y168898D01*
X481398Y374980D02*
X493504D01*
X481398D02*
Y387579D01*
X493602D01*
Y374980D02*
Y387579D01*
X456398Y374980D02*
X468504D01*
X456398D02*
Y387579D01*
X468602D01*
Y374980D02*
Y387579D01*
X431398Y374980D02*
X443504D01*
X431398D02*
Y387579D01*
X443602D01*
Y374980D02*
Y387579D01*
X497760Y183004D02*
Y195996D01*
X505240Y183004D02*
Y195996D01*
X497760Y183004D02*
X505240D01*
X497760Y195996D02*
X505240D01*
X500240Y143004D02*
Y155996D01*
X492760Y143004D02*
Y155996D01*
X500240D01*
X492760Y143004D02*
X500240D01*
Y160504D02*
Y173496D01*
X492760Y160504D02*
Y173496D01*
X500240D01*
X492760Y160504D02*
X500240D01*
X395496Y135760D02*
Y143240D01*
X382504Y135760D02*
Y143240D01*
Y135760D02*
X395496D01*
X382504Y143240D02*
X395496D01*
X412996Y135760D02*
Y143240D01*
X400004Y135760D02*
Y143240D01*
Y135760D02*
X412996D01*
X400004Y143240D02*
X412996D01*
Y125760D02*
Y133240D01*
X400004Y125760D02*
Y133240D01*
Y125760D02*
X412996D01*
X400004Y133240D02*
X412996D01*
M02*
