G04*
G04 #@! TF.GenerationSoftware,Altium Limited,Altium Designer,18.0.9 (584)*
G04*
G04 Layer_Color=65535*
%FSLAX25Y25*%
%MOIN*%
G70*
G01*
G75*
%ADD10C,0.00984*%
%ADD11C,0.01000*%
%ADD12C,0.00394*%
%ADD13C,0.00787*%
%ADD14C,0.00600*%
G36*
X526281Y105976D02*
X526328D01*
X526448Y105963D01*
X526588Y105936D01*
X526734Y105910D01*
X526887Y105863D01*
X527041Y105803D01*
X527047D01*
X527061Y105796D01*
X527080Y105783D01*
X527107Y105770D01*
X527180Y105736D01*
X527267Y105683D01*
X527367Y105617D01*
X527473Y105543D01*
X527567Y105457D01*
X527653Y105357D01*
X527660Y105344D01*
X527687Y105310D01*
X527720Y105250D01*
X527767Y105177D01*
X527813Y105084D01*
X527860Y104984D01*
X527906Y104864D01*
X527940Y104737D01*
Y104731D01*
X527946Y104724D01*
Y104704D01*
X527953Y104671D01*
X527960Y104638D01*
X527966Y104598D01*
X527973Y104544D01*
X527986Y104484D01*
X527993Y104418D01*
X528000Y104345D01*
X528006Y104265D01*
X528013Y104178D01*
X528020Y104078D01*
Y103978D01*
X528026Y103872D01*
Y103752D01*
Y100295D01*
X526554D01*
Y103132D01*
Y103146D01*
Y103172D01*
Y103219D01*
Y103279D01*
Y103352D01*
X526548Y103432D01*
Y103519D01*
X526541Y103612D01*
X526528Y103812D01*
X526514Y103998D01*
X526501Y104085D01*
X526488Y104165D01*
X526475Y104238D01*
X526454Y104291D01*
X526448Y104305D01*
X526435Y104338D01*
X526414Y104385D01*
X526381Y104445D01*
X526341Y104511D01*
X526288Y104578D01*
X526221Y104644D01*
X526148Y104704D01*
X526142Y104711D01*
X526108Y104731D01*
X526068Y104751D01*
X526008Y104784D01*
X525935Y104811D01*
X525848Y104831D01*
X525748Y104851D01*
X525642Y104857D01*
X525575D01*
X525502Y104844D01*
X525409Y104831D01*
X525302Y104804D01*
X525189Y104771D01*
X525069Y104718D01*
X524949Y104644D01*
X524936Y104638D01*
X524903Y104604D01*
X524849Y104558D01*
X524783Y104498D01*
X524716Y104418D01*
X524650Y104325D01*
X524590Y104218D01*
X524536Y104092D01*
Y104085D01*
X524530Y104078D01*
Y104051D01*
X524523Y104025D01*
X524510Y103985D01*
X524503Y103932D01*
X524497Y103872D01*
X524483Y103805D01*
X524476Y103718D01*
X524463Y103625D01*
X524457Y103525D01*
X524450Y103405D01*
X524443Y103279D01*
X524437Y103132D01*
X524430Y102979D01*
Y102813D01*
Y100295D01*
X522958D01*
Y105863D01*
X524323D01*
Y105044D01*
X524330Y105057D01*
X524357Y105084D01*
X524397Y105130D01*
X524457Y105190D01*
X524523Y105264D01*
X524610Y105344D01*
X524710Y105423D01*
X524823Y105517D01*
X524949Y105603D01*
X525089Y105683D01*
X525242Y105763D01*
X525402Y105836D01*
X525575Y105896D01*
X525762Y105943D01*
X525955Y105970D01*
X526155Y105983D01*
X526235D01*
X526281Y105976D01*
D02*
G37*
G36*
X513761D02*
X513807D01*
X513927Y105963D01*
X514067Y105936D01*
X514213Y105910D01*
X514367Y105863D01*
X514520Y105803D01*
X514526D01*
X514540Y105796D01*
X514560Y105783D01*
X514586Y105770D01*
X514660Y105736D01*
X514746Y105683D01*
X514846Y105617D01*
X514953Y105543D01*
X515046Y105457D01*
X515133Y105357D01*
X515139Y105344D01*
X515166Y105310D01*
X515199Y105250D01*
X515246Y105177D01*
X515292Y105084D01*
X515339Y104984D01*
X515386Y104864D01*
X515419Y104737D01*
Y104731D01*
X515425Y104724D01*
Y104704D01*
X515432Y104671D01*
X515439Y104638D01*
X515446Y104598D01*
X515452Y104544D01*
X515465Y104484D01*
X515472Y104418D01*
X515479Y104345D01*
X515485Y104265D01*
X515492Y104178D01*
X515499Y104078D01*
Y103978D01*
X515506Y103872D01*
Y103752D01*
Y100295D01*
X514034D01*
Y103132D01*
Y103146D01*
Y103172D01*
Y103219D01*
Y103279D01*
Y103352D01*
X514027Y103432D01*
Y103519D01*
X514020Y103612D01*
X514007Y103812D01*
X513994Y103998D01*
X513980Y104085D01*
X513967Y104165D01*
X513954Y104238D01*
X513934Y104291D01*
X513927Y104305D01*
X513914Y104338D01*
X513894Y104385D01*
X513860Y104445D01*
X513821Y104511D01*
X513767Y104578D01*
X513701Y104644D01*
X513627Y104704D01*
X513621Y104711D01*
X513587Y104731D01*
X513547Y104751D01*
X513487Y104784D01*
X513414Y104811D01*
X513328Y104831D01*
X513228Y104851D01*
X513121Y104857D01*
X513055D01*
X512981Y104844D01*
X512888Y104831D01*
X512781Y104804D01*
X512668Y104771D01*
X512548Y104718D01*
X512429Y104644D01*
X512415Y104638D01*
X512382Y104604D01*
X512329Y104558D01*
X512262Y104498D01*
X512195Y104418D01*
X512129Y104325D01*
X512069Y104218D01*
X512016Y104092D01*
Y104085D01*
X512009Y104078D01*
Y104051D01*
X512002Y104025D01*
X511989Y103985D01*
X511982Y103932D01*
X511976Y103872D01*
X511962Y103805D01*
X511956Y103718D01*
X511942Y103625D01*
X511936Y103525D01*
X511929Y103405D01*
X511922Y103279D01*
X511916Y103132D01*
X511909Y102979D01*
Y102813D01*
Y100295D01*
X510437D01*
Y105863D01*
X511802D01*
Y105044D01*
X511809Y105057D01*
X511836Y105084D01*
X511876Y105130D01*
X511936Y105190D01*
X512002Y105264D01*
X512089Y105344D01*
X512189Y105423D01*
X512302Y105517D01*
X512429Y105603D01*
X512568Y105683D01*
X512722Y105763D01*
X512881Y105836D01*
X513055Y105896D01*
X513241Y105943D01*
X513434Y105970D01*
X513634Y105983D01*
X513714D01*
X513761Y105976D01*
D02*
G37*
G36*
X507207D02*
X507254D01*
X507374Y105963D01*
X507514Y105936D01*
X507660Y105910D01*
X507813Y105863D01*
X507966Y105803D01*
X507973D01*
X507986Y105796D01*
X508006Y105783D01*
X508033Y105770D01*
X508106Y105736D01*
X508193Y105683D01*
X508293Y105617D01*
X508399Y105543D01*
X508493Y105457D01*
X508579Y105357D01*
X508586Y105344D01*
X508612Y105310D01*
X508646Y105250D01*
X508692Y105177D01*
X508739Y105084D01*
X508785Y104984D01*
X508832Y104864D01*
X508865Y104737D01*
Y104731D01*
X508872Y104724D01*
Y104704D01*
X508879Y104671D01*
X508885Y104638D01*
X508892Y104598D01*
X508899Y104544D01*
X508912Y104484D01*
X508919Y104418D01*
X508925Y104345D01*
X508932Y104265D01*
X508939Y104178D01*
X508945Y104078D01*
Y103978D01*
X508952Y103872D01*
Y103752D01*
Y100295D01*
X507480D01*
Y103132D01*
Y103146D01*
Y103172D01*
Y103219D01*
Y103279D01*
Y103352D01*
X507474Y103432D01*
Y103519D01*
X507467Y103612D01*
X507453Y103812D01*
X507440Y103998D01*
X507427Y104085D01*
X507414Y104165D01*
X507400Y104238D01*
X507380Y104291D01*
X507374Y104305D01*
X507360Y104338D01*
X507340Y104385D01*
X507307Y104445D01*
X507267Y104511D01*
X507214Y104578D01*
X507147Y104644D01*
X507074Y104704D01*
X507067Y104711D01*
X507034Y104731D01*
X506994Y104751D01*
X506934Y104784D01*
X506861Y104811D01*
X506774Y104831D01*
X506674Y104851D01*
X506568Y104857D01*
X506501D01*
X506428Y104844D01*
X506335Y104831D01*
X506228Y104804D01*
X506115Y104771D01*
X505995Y104718D01*
X505875Y104644D01*
X505862Y104638D01*
X505829Y104604D01*
X505775Y104558D01*
X505709Y104498D01*
X505642Y104418D01*
X505575Y104325D01*
X505515Y104218D01*
X505462Y104092D01*
Y104085D01*
X505455Y104078D01*
Y104051D01*
X505449Y104025D01*
X505436Y103985D01*
X505429Y103932D01*
X505422Y103872D01*
X505409Y103805D01*
X505402Y103718D01*
X505389Y103625D01*
X505382Y103525D01*
X505376Y103405D01*
X505369Y103279D01*
X505362Y103132D01*
X505356Y102979D01*
Y102813D01*
Y100295D01*
X503884D01*
Y105863D01*
X505249D01*
Y105044D01*
X505256Y105057D01*
X505282Y105084D01*
X505322Y105130D01*
X505382Y105190D01*
X505449Y105264D01*
X505535Y105344D01*
X505635Y105423D01*
X505749Y105517D01*
X505875Y105603D01*
X506015Y105683D01*
X506168Y105763D01*
X506328Y105836D01*
X506501Y105896D01*
X506688Y105943D01*
X506881Y105970D01*
X507081Y105983D01*
X507161D01*
X507207Y105976D01*
D02*
G37*
G36*
X438023Y104984D02*
X441073Y100295D01*
X439069D01*
X436957Y103898D01*
X435705Y102613D01*
Y100295D01*
X434154D01*
Y107974D01*
X435705D01*
Y104564D01*
X438829Y107974D01*
X440913D01*
X438023Y104984D01*
D02*
G37*
G36*
X453035Y105976D02*
X453128Y105970D01*
X453241Y105963D01*
X453361Y105950D01*
X453487Y105936D01*
X453761Y105890D01*
X454040Y105823D01*
X454180Y105783D01*
X454307Y105736D01*
X454427Y105677D01*
X454540Y105610D01*
X454546Y105603D01*
X454566Y105590D01*
X454593Y105570D01*
X454633Y105543D01*
X454673Y105503D01*
X454726Y105457D01*
X454786Y105397D01*
X454846Y105330D01*
X454913Y105257D01*
X454973Y105177D01*
X455039Y105090D01*
X455099Y104991D01*
X455159Y104884D01*
X455219Y104764D01*
X455266Y104644D01*
X455312Y104511D01*
X453927Y104251D01*
Y104258D01*
X453920Y104265D01*
X453907Y104305D01*
X453887Y104365D01*
X453847Y104431D01*
X453801Y104511D01*
X453741Y104598D01*
X453667Y104671D01*
X453581Y104744D01*
X453568Y104751D01*
X453534Y104771D01*
X453481Y104804D01*
X453401Y104837D01*
X453301Y104864D01*
X453181Y104897D01*
X453035Y104917D01*
X452875Y104924D01*
X452782D01*
X452735Y104917D01*
X452682D01*
X452555Y104904D01*
X452415Y104884D01*
X452282Y104851D01*
X452149Y104811D01*
X452096Y104784D01*
X452042Y104757D01*
X452036Y104751D01*
X452016Y104737D01*
X451989Y104711D01*
X451962Y104678D01*
X451929Y104638D01*
X451902Y104584D01*
X451883Y104524D01*
X451876Y104458D01*
Y104451D01*
Y104431D01*
X451883Y104404D01*
X451896Y104365D01*
X451909Y104325D01*
X451936Y104278D01*
X451976Y104238D01*
X452022Y104191D01*
X452036Y104185D01*
X452049Y104178D01*
X452069Y104165D01*
X452102Y104151D01*
X452142Y104131D01*
X452202Y104112D01*
X452269Y104085D01*
X452349Y104058D01*
X452442Y104025D01*
X452549Y103992D01*
X452682Y103958D01*
X452828Y103918D01*
X452995Y103872D01*
X453181Y103825D01*
X453388Y103779D01*
X453401D01*
X453441Y103765D01*
X453501Y103752D01*
X453581Y103732D01*
X453674Y103705D01*
X453787Y103672D01*
X453907Y103639D01*
X454034Y103599D01*
X454307Y103505D01*
X454580Y103392D01*
X454706Y103332D01*
X454826Y103266D01*
X454939Y103199D01*
X455033Y103126D01*
X455039Y103119D01*
X455053Y103106D01*
X455073Y103086D01*
X455106Y103052D01*
X455139Y103013D01*
X455179Y102966D01*
X455226Y102906D01*
X455266Y102839D01*
X455312Y102766D01*
X455352Y102686D01*
X455392Y102600D01*
X455426Y102500D01*
X455459Y102393D01*
X455479Y102280D01*
X455492Y102160D01*
X455499Y102033D01*
Y102027D01*
Y102000D01*
X455492Y101960D01*
Y101907D01*
X455479Y101840D01*
X455466Y101760D01*
X455446Y101674D01*
X455419Y101581D01*
X455386Y101481D01*
X455346Y101374D01*
X455292Y101268D01*
X455232Y101154D01*
X455159Y101041D01*
X455073Y100928D01*
X454973Y100821D01*
X454859Y100715D01*
X454853Y100708D01*
X454833Y100695D01*
X454793Y100662D01*
X454740Y100628D01*
X454673Y100588D01*
X454593Y100542D01*
X454493Y100495D01*
X454387Y100442D01*
X454260Y100389D01*
X454120Y100342D01*
X453960Y100295D01*
X453794Y100255D01*
X453607Y100222D01*
X453408Y100195D01*
X453195Y100175D01*
X452968Y100169D01*
X452861D01*
X452782Y100175D01*
X452682Y100182D01*
X452575Y100195D01*
X452449Y100209D01*
X452315Y100229D01*
X452176Y100249D01*
X452029Y100282D01*
X451876Y100315D01*
X451729Y100362D01*
X451576Y100415D01*
X451430Y100475D01*
X451296Y100548D01*
X451163Y100628D01*
X451157Y100635D01*
X451136Y100648D01*
X451103Y100675D01*
X451057Y100715D01*
X451003Y100761D01*
X450943Y100815D01*
X450877Y100881D01*
X450810Y100955D01*
X450737Y101041D01*
X450664Y101134D01*
X450590Y101241D01*
X450524Y101348D01*
X450457Y101467D01*
X450397Y101601D01*
X450344Y101734D01*
X450304Y101880D01*
X451783Y102107D01*
Y102100D01*
X451789Y102087D01*
X451796Y102067D01*
X451802Y102033D01*
X451829Y101960D01*
X451862Y101860D01*
X451916Y101760D01*
X451982Y101647D01*
X452062Y101547D01*
X452162Y101454D01*
X452169D01*
X452176Y101447D01*
X452215Y101421D01*
X452282Y101388D01*
X452369Y101348D01*
X452482Y101301D01*
X452622Y101268D01*
X452782Y101241D01*
X452968Y101234D01*
X453021D01*
X453061Y101241D01*
X453108D01*
X453161Y101248D01*
X453288Y101261D01*
X453428Y101288D01*
X453568Y101321D01*
X453701Y101374D01*
X453821Y101441D01*
X453827Y101447D01*
X453854Y101467D01*
X453887Y101501D01*
X453920Y101547D01*
X453960Y101601D01*
X453987Y101667D01*
X454014Y101747D01*
X454020Y101834D01*
Y101840D01*
Y101860D01*
X454014Y101894D01*
X454007Y101934D01*
X453994Y101974D01*
X453974Y102020D01*
X453947Y102067D01*
X453914Y102113D01*
X453907Y102120D01*
X453887Y102133D01*
X453861Y102153D01*
X453807Y102173D01*
X453741Y102207D01*
X453661Y102240D01*
X453554Y102273D01*
X453421Y102307D01*
X453414D01*
X453401Y102313D01*
X453374Y102320D01*
X453341Y102327D01*
X453301Y102333D01*
X453254Y102347D01*
X453201Y102360D01*
X453135Y102373D01*
X452995Y102407D01*
X452835Y102446D01*
X452655Y102493D01*
X452475Y102546D01*
X452089Y102653D01*
X451902Y102713D01*
X451716Y102773D01*
X451549Y102833D01*
X451396Y102899D01*
X451270Y102959D01*
X451210Y102993D01*
X451163Y103019D01*
X451157Y103026D01*
X451136Y103039D01*
X451103Y103066D01*
X451063Y103106D01*
X451010Y103146D01*
X450957Y103206D01*
X450897Y103272D01*
X450837Y103346D01*
X450777Y103432D01*
X450717Y103525D01*
X450664Y103625D01*
X450610Y103738D01*
X450570Y103858D01*
X450537Y103992D01*
X450517Y104125D01*
X450511Y104271D01*
Y104278D01*
Y104305D01*
X450517Y104345D01*
Y104391D01*
X450530Y104458D01*
X450544Y104524D01*
X450557Y104611D01*
X450584Y104698D01*
X450610Y104791D01*
X450650Y104891D01*
X450697Y104991D01*
X450750Y105090D01*
X450817Y105197D01*
X450890Y105297D01*
X450977Y105397D01*
X451077Y105490D01*
X451083Y105497D01*
X451103Y105510D01*
X451136Y105537D01*
X451183Y105570D01*
X451243Y105603D01*
X451323Y105643D01*
X451410Y105690D01*
X451516Y105736D01*
X451629Y105783D01*
X451763Y105830D01*
X451909Y105870D01*
X452069Y105903D01*
X452242Y105936D01*
X452429Y105963D01*
X452628Y105976D01*
X452848Y105983D01*
X452955D01*
X453035Y105976D01*
D02*
G37*
G36*
X487946D02*
X488033Y105970D01*
X488133Y105963D01*
X488239Y105950D01*
X488359Y105930D01*
X488486Y105903D01*
X488619Y105876D01*
X488752Y105843D01*
X488885Y105796D01*
X489019Y105750D01*
X489152Y105690D01*
X489272Y105623D01*
X489392Y105543D01*
X489398Y105537D01*
X489418Y105523D01*
X489452Y105497D01*
X489492Y105463D01*
X489538Y105417D01*
X489598Y105357D01*
X489658Y105290D01*
X489725Y105210D01*
X489798Y105124D01*
X489864Y105024D01*
X489938Y104917D01*
X490011Y104797D01*
X490078Y104664D01*
X490144Y104524D01*
X490204Y104371D01*
X490257Y104211D01*
X488805Y103952D01*
Y103958D01*
X488799Y103972D01*
Y103992D01*
X488792Y104025D01*
X488765Y104098D01*
X488732Y104198D01*
X488686Y104305D01*
X488626Y104411D01*
X488552Y104511D01*
X488466Y104604D01*
X488452Y104611D01*
X488419Y104638D01*
X488366Y104671D01*
X488286Y104718D01*
X488193Y104757D01*
X488073Y104791D01*
X487940Y104817D01*
X487793Y104824D01*
X487740D01*
X487700Y104817D01*
X487660Y104811D01*
X487607Y104804D01*
X487480Y104778D01*
X487340Y104731D01*
X487267Y104698D01*
X487194Y104664D01*
X487120Y104618D01*
X487054Y104564D01*
X486987Y104504D01*
X486921Y104438D01*
X486914Y104431D01*
X486907Y104418D01*
X486894Y104398D01*
X486868Y104365D01*
X486847Y104325D01*
X486821Y104271D01*
X486788Y104211D01*
X486761Y104138D01*
X486728Y104058D01*
X486701Y103965D01*
X486668Y103858D01*
X486648Y103745D01*
X486628Y103619D01*
X486608Y103479D01*
X486601Y103332D01*
X486594Y103172D01*
Y103159D01*
Y103132D01*
Y103079D01*
X486601Y103013D01*
X486608Y102933D01*
X486614Y102839D01*
X486621Y102733D01*
X486634Y102626D01*
X486674Y102393D01*
X486734Y102167D01*
X486768Y102053D01*
X486814Y101954D01*
X486861Y101854D01*
X486921Y101774D01*
X486927Y101767D01*
X486934Y101754D01*
X486954Y101734D01*
X486981Y101714D01*
X487014Y101681D01*
X487054Y101647D01*
X487101Y101607D01*
X487160Y101574D01*
X487287Y101494D01*
X487440Y101434D01*
X487527Y101408D01*
X487620Y101388D01*
X487720Y101374D01*
X487820Y101367D01*
X487860D01*
X487893Y101374D01*
X487966Y101381D01*
X488066Y101394D01*
X488173Y101427D01*
X488286Y101467D01*
X488399Y101521D01*
X488506Y101601D01*
X488519Y101614D01*
X488552Y101647D01*
X488599Y101707D01*
X488626Y101747D01*
X488652Y101794D01*
X488686Y101847D01*
X488719Y101907D01*
X488746Y101974D01*
X488779Y102053D01*
X488805Y102133D01*
X488839Y102220D01*
X488865Y102320D01*
X488885Y102427D01*
X490331Y102180D01*
Y102167D01*
X490317Y102133D01*
X490304Y102087D01*
X490284Y102014D01*
X490257Y101934D01*
X490224Y101840D01*
X490184Y101734D01*
X490137Y101621D01*
X490084Y101501D01*
X490018Y101374D01*
X489951Y101248D01*
X489871Y101121D01*
X489784Y101001D01*
X489685Y100888D01*
X489578Y100775D01*
X489465Y100675D01*
X489458Y100668D01*
X489438Y100655D01*
X489398Y100628D01*
X489352Y100595D01*
X489285Y100555D01*
X489205Y100515D01*
X489118Y100468D01*
X489012Y100422D01*
X488892Y100375D01*
X488765Y100329D01*
X488626Y100289D01*
X488473Y100249D01*
X488313Y100215D01*
X488133Y100189D01*
X487946Y100175D01*
X487753Y100169D01*
X487700D01*
X487633Y100175D01*
X487553Y100182D01*
X487447Y100195D01*
X487327Y100209D01*
X487194Y100235D01*
X487047Y100262D01*
X486894Y100302D01*
X486741Y100355D01*
X486574Y100415D01*
X486415Y100495D01*
X486255Y100582D01*
X486095Y100682D01*
X485942Y100801D01*
X485802Y100935D01*
X485795Y100941D01*
X485769Y100968D01*
X485735Y101015D01*
X485689Y101075D01*
X485635Y101154D01*
X485575Y101248D01*
X485509Y101361D01*
X485442Y101494D01*
X485376Y101634D01*
X485309Y101794D01*
X485249Y101967D01*
X485196Y102160D01*
X485149Y102366D01*
X485116Y102586D01*
X485089Y102819D01*
X485083Y103066D01*
Y103073D01*
Y103079D01*
Y103099D01*
Y103126D01*
X485089Y103199D01*
X485096Y103292D01*
X485103Y103412D01*
X485122Y103545D01*
X485143Y103692D01*
X485176Y103852D01*
X485209Y104018D01*
X485262Y104198D01*
X485316Y104371D01*
X485389Y104551D01*
X485469Y104731D01*
X485569Y104897D01*
X485682Y105057D01*
X485809Y105210D01*
X485815Y105217D01*
X485842Y105244D01*
X485882Y105284D01*
X485942Y105330D01*
X486015Y105390D01*
X486102Y105457D01*
X486208Y105523D01*
X486328Y105597D01*
X486461Y105670D01*
X486608Y105736D01*
X486774Y105803D01*
X486947Y105863D01*
X487134Y105910D01*
X487340Y105950D01*
X487553Y105976D01*
X487780Y105983D01*
X487880D01*
X487946Y105976D01*
D02*
G37*
G36*
X477903Y100295D02*
X476465D01*
X476458Y106336D01*
X474939Y100295D01*
X473448D01*
X471929Y106336D01*
Y100295D01*
X470491D01*
Y107974D01*
X472808D01*
X474200Y102733D01*
X475572Y107974D01*
X477903D01*
Y100295D01*
D02*
G37*
G36*
X519335Y105976D02*
X519421D01*
X519515Y105970D01*
X519615Y105963D01*
X519728Y105956D01*
X519968Y105923D01*
X520207Y105883D01*
X520327Y105856D01*
X520440Y105830D01*
X520547Y105790D01*
X520640Y105750D01*
X520647D01*
X520660Y105736D01*
X520687Y105723D01*
X520720Y105710D01*
X520760Y105683D01*
X520807Y105657D01*
X520907Y105590D01*
X521020Y105503D01*
X521133Y105403D01*
X521240Y105284D01*
X521286Y105224D01*
X521326Y105157D01*
Y105150D01*
X521333Y105137D01*
X521346Y105117D01*
X521360Y105084D01*
X521373Y105044D01*
X521393Y104991D01*
X521406Y104931D01*
X521426Y104857D01*
X521446Y104771D01*
X521466Y104678D01*
X521480Y104571D01*
X521493Y104451D01*
X521506Y104318D01*
X521519Y104171D01*
X521526Y104012D01*
Y103838D01*
X521506Y102120D01*
Y102113D01*
Y102087D01*
Y102053D01*
Y102000D01*
Y101940D01*
X521513Y101867D01*
Y101794D01*
Y101707D01*
X521519Y101534D01*
X521533Y101354D01*
X521553Y101181D01*
X521559Y101108D01*
X521573Y101034D01*
Y101028D01*
X521579Y101021D01*
Y101001D01*
X521586Y100975D01*
X521606Y100901D01*
X521633Y100815D01*
X521673Y100701D01*
X521719Y100575D01*
X521772Y100442D01*
X521839Y100295D01*
X520381D01*
Y100302D01*
X520367Y100322D01*
X520354Y100355D01*
X520341Y100402D01*
X520321Y100468D01*
X520294Y100542D01*
X520267Y100628D01*
X520234Y100728D01*
Y100735D01*
X520227Y100748D01*
X520221Y100775D01*
X520214Y100801D01*
X520201Y100855D01*
X520187Y100881D01*
X520181Y100901D01*
X520174Y100895D01*
X520161Y100888D01*
X520141Y100868D01*
X520114Y100841D01*
X520081Y100808D01*
X520041Y100775D01*
X519941Y100695D01*
X519821Y100608D01*
X519681Y100515D01*
X519535Y100428D01*
X519375Y100349D01*
X519368D01*
X519355Y100342D01*
X519335Y100335D01*
X519302Y100322D01*
X519262Y100309D01*
X519215Y100289D01*
X519162Y100275D01*
X519102Y100262D01*
X518962Y100229D01*
X518809Y100195D01*
X518636Y100175D01*
X518456Y100169D01*
X518376D01*
X518316Y100175D01*
X518243Y100182D01*
X518156Y100195D01*
X518063Y100209D01*
X517963Y100229D01*
X517856Y100249D01*
X517750Y100282D01*
X517637Y100322D01*
X517523Y100368D01*
X517410Y100422D01*
X517304Y100482D01*
X517204Y100555D01*
X517104Y100635D01*
X517097Y100642D01*
X517084Y100655D01*
X517057Y100682D01*
X517024Y100722D01*
X516991Y100768D01*
X516951Y100821D01*
X516904Y100881D01*
X516857Y100955D01*
X516811Y101041D01*
X516764Y101128D01*
X516724Y101228D01*
X516691Y101328D01*
X516658Y101441D01*
X516631Y101561D01*
X516618Y101681D01*
X516611Y101814D01*
Y101820D01*
Y101834D01*
Y101860D01*
X516618Y101894D01*
Y101934D01*
X516624Y101980D01*
X516638Y102094D01*
X516664Y102220D01*
X516704Y102360D01*
X516757Y102506D01*
X516831Y102646D01*
Y102653D01*
X516844Y102660D01*
X516857Y102680D01*
X516871Y102706D01*
X516924Y102773D01*
X516997Y102859D01*
X517084Y102946D01*
X517190Y103046D01*
X517317Y103132D01*
X517463Y103212D01*
X517470D01*
X517484Y103219D01*
X517503Y103232D01*
X517537Y103246D01*
X517583Y103266D01*
X517630Y103286D01*
X517690Y103306D01*
X517763Y103332D01*
X517843Y103359D01*
X517930Y103385D01*
X518023Y103412D01*
X518129Y103445D01*
X518243Y103472D01*
X518363Y103499D01*
X518496Y103532D01*
X518636Y103559D01*
X518649D01*
X518682Y103565D01*
X518736Y103579D01*
X518802Y103592D01*
X518889Y103612D01*
X518989Y103632D01*
X519095Y103652D01*
X519208Y103679D01*
X519442Y103732D01*
X519681Y103792D01*
X519795Y103825D01*
X519901Y103858D01*
X519994Y103892D01*
X520074Y103925D01*
Y104071D01*
Y104078D01*
Y104092D01*
Y104112D01*
Y104138D01*
X520061Y104211D01*
X520048Y104305D01*
X520021Y104404D01*
X519988Y104504D01*
X519934Y104591D01*
X519861Y104671D01*
X519854Y104678D01*
X519821Y104698D01*
X519768Y104731D01*
X519728Y104744D01*
X519688Y104764D01*
X519635Y104784D01*
X519575Y104797D01*
X519515Y104817D01*
X519442Y104831D01*
X519362Y104837D01*
X519268Y104851D01*
X519175Y104857D01*
X519002D01*
X518935Y104851D01*
X518842Y104837D01*
X518749Y104817D01*
X518642Y104791D01*
X518542Y104751D01*
X518456Y104698D01*
X518449Y104691D01*
X518423Y104671D01*
X518383Y104631D01*
X518329Y104571D01*
X518276Y104498D01*
X518216Y104404D01*
X518156Y104291D01*
X518103Y104158D01*
X516764Y104398D01*
Y104404D01*
X516778Y104431D01*
X516791Y104478D01*
X516804Y104531D01*
X516831Y104598D01*
X516864Y104671D01*
X516897Y104757D01*
X516944Y104851D01*
X516991Y104944D01*
X517051Y105044D01*
X517110Y105144D01*
X517184Y105244D01*
X517264Y105337D01*
X517344Y105430D01*
X517437Y105510D01*
X517537Y105590D01*
X517543Y105597D01*
X517563Y105610D01*
X517597Y105623D01*
X517643Y105650D01*
X517697Y105683D01*
X517770Y105717D01*
X517850Y105750D01*
X517950Y105790D01*
X518056Y105823D01*
X518183Y105856D01*
X518316Y105890D01*
X518463Y105923D01*
X518622Y105950D01*
X518795Y105963D01*
X518975Y105976D01*
X519175Y105983D01*
X519268D01*
X519335Y105976D01*
D02*
G37*
G36*
X492981Y101594D02*
X496831D01*
Y100295D01*
X491430D01*
Y107914D01*
X492981D01*
Y101594D01*
D02*
G37*
G36*
X481773Y105976D02*
X481859D01*
X481952Y105970D01*
X482052Y105963D01*
X482165Y105956D01*
X482405Y105923D01*
X482645Y105883D01*
X482765Y105856D01*
X482878Y105830D01*
X482985Y105790D01*
X483078Y105750D01*
X483085D01*
X483098Y105736D01*
X483124Y105723D01*
X483158Y105710D01*
X483198Y105683D01*
X483244Y105657D01*
X483344Y105590D01*
X483458Y105503D01*
X483571Y105403D01*
X483677Y105284D01*
X483724Y105224D01*
X483764Y105157D01*
Y105150D01*
X483771Y105137D01*
X483784Y105117D01*
X483797Y105084D01*
X483811Y105044D01*
X483830Y104991D01*
X483844Y104931D01*
X483864Y104857D01*
X483884Y104771D01*
X483904Y104678D01*
X483917Y104571D01*
X483930Y104451D01*
X483944Y104318D01*
X483957Y104171D01*
X483964Y104012D01*
Y103838D01*
X483944Y102120D01*
Y102113D01*
Y102087D01*
Y102053D01*
Y102000D01*
Y101940D01*
X483950Y101867D01*
Y101794D01*
Y101707D01*
X483957Y101534D01*
X483970Y101354D01*
X483990Y101181D01*
X483997Y101108D01*
X484010Y101034D01*
Y101028D01*
X484017Y101021D01*
Y101001D01*
X484024Y100975D01*
X484044Y100901D01*
X484070Y100815D01*
X484110Y100701D01*
X484157Y100575D01*
X484210Y100442D01*
X484277Y100295D01*
X482818D01*
Y100302D01*
X482805Y100322D01*
X482792Y100355D01*
X482778Y100402D01*
X482758Y100468D01*
X482732Y100542D01*
X482705Y100628D01*
X482672Y100728D01*
Y100735D01*
X482665Y100748D01*
X482658Y100775D01*
X482652Y100801D01*
X482638Y100855D01*
X482625Y100881D01*
X482618Y100901D01*
X482612Y100895D01*
X482598Y100888D01*
X482578Y100868D01*
X482552Y100841D01*
X482518Y100808D01*
X482479Y100775D01*
X482379Y100695D01*
X482259Y100608D01*
X482119Y100515D01*
X481972Y100428D01*
X481812Y100349D01*
X481806D01*
X481792Y100342D01*
X481773Y100335D01*
X481739Y100322D01*
X481699Y100309D01*
X481653Y100289D01*
X481599Y100275D01*
X481539Y100262D01*
X481400Y100229D01*
X481246Y100195D01*
X481073Y100175D01*
X480893Y100169D01*
X480814D01*
X480754Y100175D01*
X480680Y100182D01*
X480594Y100195D01*
X480501Y100209D01*
X480401Y100229D01*
X480294Y100249D01*
X480188Y100282D01*
X480074Y100322D01*
X479961Y100368D01*
X479848Y100422D01*
X479741Y100482D01*
X479641Y100555D01*
X479541Y100635D01*
X479535Y100642D01*
X479522Y100655D01*
X479495Y100682D01*
X479461Y100722D01*
X479428Y100768D01*
X479388Y100821D01*
X479342Y100881D01*
X479295Y100955D01*
X479248Y101041D01*
X479202Y101128D01*
X479162Y101228D01*
X479129Y101328D01*
X479095Y101441D01*
X479069Y101561D01*
X479055Y101681D01*
X479049Y101814D01*
Y101820D01*
Y101834D01*
Y101860D01*
X479055Y101894D01*
Y101934D01*
X479062Y101980D01*
X479075Y102094D01*
X479102Y102220D01*
X479142Y102360D01*
X479195Y102506D01*
X479268Y102646D01*
Y102653D01*
X479282Y102660D01*
X479295Y102680D01*
X479308Y102706D01*
X479362Y102773D01*
X479435Y102859D01*
X479522Y102946D01*
X479628Y103046D01*
X479755Y103132D01*
X479901Y103212D01*
X479908D01*
X479921Y103219D01*
X479941Y103232D01*
X479974Y103246D01*
X480021Y103266D01*
X480068Y103286D01*
X480127Y103306D01*
X480201Y103332D01*
X480281Y103359D01*
X480367Y103385D01*
X480461Y103412D01*
X480567Y103445D01*
X480680Y103472D01*
X480800Y103499D01*
X480933Y103532D01*
X481073Y103559D01*
X481087D01*
X481120Y103565D01*
X481173Y103579D01*
X481240Y103592D01*
X481326Y103612D01*
X481426Y103632D01*
X481533Y103652D01*
X481646Y103679D01*
X481879Y103732D01*
X482119Y103792D01*
X482232Y103825D01*
X482339Y103858D01*
X482432Y103892D01*
X482512Y103925D01*
Y104071D01*
Y104078D01*
Y104092D01*
Y104112D01*
Y104138D01*
X482499Y104211D01*
X482485Y104305D01*
X482458Y104404D01*
X482425Y104504D01*
X482372Y104591D01*
X482299Y104671D01*
X482292Y104678D01*
X482259Y104698D01*
X482205Y104731D01*
X482165Y104744D01*
X482126Y104764D01*
X482072Y104784D01*
X482012Y104797D01*
X481952Y104817D01*
X481879Y104831D01*
X481799Y104837D01*
X481706Y104851D01*
X481613Y104857D01*
X481439D01*
X481373Y104851D01*
X481280Y104837D01*
X481186Y104817D01*
X481080Y104791D01*
X480980Y104751D01*
X480893Y104698D01*
X480887Y104691D01*
X480860Y104671D01*
X480820Y104631D01*
X480767Y104571D01*
X480714Y104498D01*
X480654Y104404D01*
X480594Y104291D01*
X480540Y104158D01*
X479202Y104398D01*
Y104404D01*
X479215Y104431D01*
X479228Y104478D01*
X479242Y104531D01*
X479268Y104598D01*
X479302Y104671D01*
X479335Y104757D01*
X479382Y104851D01*
X479428Y104944D01*
X479488Y105044D01*
X479548Y105144D01*
X479621Y105244D01*
X479701Y105337D01*
X479781Y105430D01*
X479874Y105510D01*
X479974Y105590D01*
X479981Y105597D01*
X480001Y105610D01*
X480034Y105623D01*
X480081Y105650D01*
X480134Y105683D01*
X480207Y105717D01*
X480287Y105750D01*
X480387Y105790D01*
X480494Y105823D01*
X480620Y105856D01*
X480754Y105890D01*
X480900Y105923D01*
X481060Y105950D01*
X481233Y105963D01*
X481413Y105976D01*
X481613Y105983D01*
X481706D01*
X481773Y105976D01*
D02*
G37*
G36*
X449312Y100295D02*
X447840D01*
Y107974D01*
X449312D01*
Y100295D01*
D02*
G37*
G36*
X444204Y105976D02*
X444290D01*
X444383Y105970D01*
X444483Y105963D01*
X444596Y105956D01*
X444836Y105923D01*
X445076Y105883D01*
X445196Y105856D01*
X445309Y105830D01*
X445416Y105790D01*
X445509Y105750D01*
X445515D01*
X445529Y105736D01*
X445555Y105723D01*
X445589Y105710D01*
X445629Y105683D01*
X445675Y105657D01*
X445775Y105590D01*
X445889Y105503D01*
X446002Y105403D01*
X446108Y105284D01*
X446155Y105224D01*
X446195Y105157D01*
Y105150D01*
X446202Y105137D01*
X446215Y105117D01*
X446228Y105084D01*
X446241Y105044D01*
X446261Y104991D01*
X446275Y104931D01*
X446295Y104857D01*
X446315Y104771D01*
X446335Y104678D01*
X446348Y104571D01*
X446361Y104451D01*
X446375Y104318D01*
X446388Y104171D01*
X446395Y104012D01*
Y103838D01*
X446375Y102120D01*
Y102113D01*
Y102087D01*
Y102053D01*
Y102000D01*
Y101940D01*
X446381Y101867D01*
Y101794D01*
Y101707D01*
X446388Y101534D01*
X446401Y101354D01*
X446421Y101181D01*
X446428Y101108D01*
X446441Y101034D01*
Y101028D01*
X446448Y101021D01*
Y101001D01*
X446455Y100975D01*
X446475Y100901D01*
X446501Y100815D01*
X446541Y100701D01*
X446588Y100575D01*
X446641Y100442D01*
X446708Y100295D01*
X445249D01*
Y100302D01*
X445236Y100322D01*
X445223Y100355D01*
X445209Y100402D01*
X445189Y100468D01*
X445162Y100542D01*
X445136Y100628D01*
X445103Y100728D01*
Y100735D01*
X445096Y100748D01*
X445089Y100775D01*
X445083Y100801D01*
X445069Y100855D01*
X445056Y100881D01*
X445049Y100901D01*
X445043Y100895D01*
X445029Y100888D01*
X445009Y100868D01*
X444983Y100841D01*
X444949Y100808D01*
X444909Y100775D01*
X444810Y100695D01*
X444690Y100608D01*
X444550Y100515D01*
X444403Y100428D01*
X444243Y100349D01*
X444237D01*
X444223Y100342D01*
X444204Y100335D01*
X444170Y100322D01*
X444130Y100309D01*
X444084Y100289D01*
X444030Y100275D01*
X443970Y100262D01*
X443830Y100229D01*
X443677Y100195D01*
X443504Y100175D01*
X443324Y100169D01*
X443244D01*
X443185Y100175D01*
X443111Y100182D01*
X443025Y100195D01*
X442931Y100209D01*
X442832Y100229D01*
X442725Y100249D01*
X442618Y100282D01*
X442505Y100322D01*
X442392Y100368D01*
X442279Y100422D01*
X442172Y100482D01*
X442072Y100555D01*
X441972Y100635D01*
X441966Y100642D01*
X441952Y100655D01*
X441926Y100682D01*
X441892Y100722D01*
X441859Y100768D01*
X441819Y100821D01*
X441773Y100881D01*
X441726Y100955D01*
X441679Y101041D01*
X441633Y101128D01*
X441593Y101228D01*
X441560Y101328D01*
X441526Y101441D01*
X441500Y101561D01*
X441486Y101681D01*
X441480Y101814D01*
Y101820D01*
Y101834D01*
Y101860D01*
X441486Y101894D01*
Y101934D01*
X441493Y101980D01*
X441506Y102094D01*
X441533Y102220D01*
X441573Y102360D01*
X441626Y102506D01*
X441699Y102646D01*
Y102653D01*
X441713Y102660D01*
X441726Y102680D01*
X441739Y102706D01*
X441793Y102773D01*
X441866Y102859D01*
X441952Y102946D01*
X442059Y103046D01*
X442185Y103132D01*
X442332Y103212D01*
X442339D01*
X442352Y103219D01*
X442372Y103232D01*
X442405Y103246D01*
X442452Y103266D01*
X442498Y103286D01*
X442558Y103306D01*
X442632Y103332D01*
X442712Y103359D01*
X442798Y103385D01*
X442892Y103412D01*
X442998Y103445D01*
X443111Y103472D01*
X443231Y103499D01*
X443364Y103532D01*
X443504Y103559D01*
X443517D01*
X443551Y103565D01*
X443604Y103579D01*
X443671Y103592D01*
X443757Y103612D01*
X443857Y103632D01*
X443964Y103652D01*
X444077Y103679D01*
X444310Y103732D01*
X444550Y103792D01*
X444663Y103825D01*
X444770Y103858D01*
X444863Y103892D01*
X444943Y103925D01*
Y104071D01*
Y104078D01*
Y104092D01*
Y104112D01*
Y104138D01*
X444929Y104211D01*
X444916Y104305D01*
X444889Y104404D01*
X444856Y104504D01*
X444803Y104591D01*
X444730Y104671D01*
X444723Y104678D01*
X444690Y104698D01*
X444636Y104731D01*
X444596Y104744D01*
X444557Y104764D01*
X444503Y104784D01*
X444443Y104797D01*
X444383Y104817D01*
X444310Y104831D01*
X444230Y104837D01*
X444137Y104851D01*
X444044Y104857D01*
X443870D01*
X443804Y104851D01*
X443711Y104837D01*
X443617Y104817D01*
X443511Y104791D01*
X443411Y104751D01*
X443324Y104698D01*
X443318Y104691D01*
X443291Y104671D01*
X443251Y104631D01*
X443198Y104571D01*
X443145Y104498D01*
X443085Y104404D01*
X443025Y104291D01*
X442971Y104158D01*
X441633Y104398D01*
Y104404D01*
X441646Y104431D01*
X441659Y104478D01*
X441673Y104531D01*
X441699Y104598D01*
X441733Y104671D01*
X441766Y104757D01*
X441813Y104851D01*
X441859Y104944D01*
X441919Y105044D01*
X441979Y105144D01*
X442052Y105244D01*
X442132Y105337D01*
X442212Y105430D01*
X442305Y105510D01*
X442405Y105590D01*
X442412Y105597D01*
X442432Y105610D01*
X442465Y105623D01*
X442512Y105650D01*
X442565Y105683D01*
X442638Y105717D01*
X442718Y105750D01*
X442818Y105790D01*
X442925Y105823D01*
X443051Y105856D01*
X443185Y105890D01*
X443331Y105923D01*
X443491Y105950D01*
X443664Y105963D01*
X443844Y105976D01*
X444044Y105983D01*
X444137D01*
X444204Y105976D01*
D02*
G37*
G36*
X500161D02*
X500247Y105970D01*
X500354Y105956D01*
X500474Y105936D01*
X500607Y105916D01*
X500753Y105883D01*
X500907Y105836D01*
X501067Y105783D01*
X501226Y105717D01*
X501393Y105637D01*
X501553Y105543D01*
X501713Y105430D01*
X501859Y105304D01*
X501999Y105157D01*
X502006Y105150D01*
X502032Y105117D01*
X502066Y105070D01*
X502112Y105004D01*
X502166Y104917D01*
X502225Y104811D01*
X502292Y104684D01*
X502359Y104538D01*
X502419Y104371D01*
X502485Y104185D01*
X502545Y103978D01*
X502592Y103759D01*
X502638Y103512D01*
X502672Y103246D01*
X502692Y102959D01*
Y102653D01*
X499009D01*
Y102646D01*
Y102626D01*
X499015Y102593D01*
Y102546D01*
X499022Y102486D01*
X499029Y102427D01*
X499042Y102353D01*
X499055Y102280D01*
X499102Y102113D01*
X499162Y101940D01*
X499202Y101860D01*
X499248Y101774D01*
X499302Y101700D01*
X499362Y101627D01*
X499368Y101621D01*
X499375Y101614D01*
X499395Y101594D01*
X499422Y101574D01*
X499455Y101547D01*
X499495Y101514D01*
X499595Y101447D01*
X499715Y101381D01*
X499861Y101321D01*
X500028Y101281D01*
X500114Y101274D01*
X500207Y101268D01*
X500267D01*
X500327Y101281D01*
X500407Y101294D01*
X500500Y101314D01*
X500600Y101348D01*
X500694Y101394D01*
X500787Y101454D01*
X500800Y101461D01*
X500827Y101487D01*
X500867Y101534D01*
X500920Y101601D01*
X500980Y101687D01*
X501040Y101794D01*
X501093Y101920D01*
X501147Y102067D01*
X502612Y101820D01*
Y101814D01*
X502598Y101787D01*
X502578Y101741D01*
X502558Y101687D01*
X502525Y101621D01*
X502492Y101541D01*
X502445Y101454D01*
X502392Y101361D01*
X502332Y101261D01*
X502265Y101161D01*
X502192Y101061D01*
X502112Y100961D01*
X502026Y100855D01*
X501926Y100761D01*
X501826Y100668D01*
X501713Y100588D01*
X501706Y100582D01*
X501686Y100568D01*
X501653Y100548D01*
X501606Y100522D01*
X501546Y100488D01*
X501473Y100455D01*
X501386Y100415D01*
X501293Y100382D01*
X501186Y100342D01*
X501073Y100302D01*
X500947Y100269D01*
X500813Y100235D01*
X500667Y100209D01*
X500514Y100189D01*
X500354Y100175D01*
X500187Y100169D01*
X500128D01*
X500088Y100175D01*
X500048D01*
X499948Y100182D01*
X499828Y100195D01*
X499695Y100222D01*
X499541Y100249D01*
X499375Y100289D01*
X499208Y100335D01*
X499029Y100402D01*
X498849Y100475D01*
X498676Y100568D01*
X498502Y100675D01*
X498336Y100801D01*
X498183Y100948D01*
X498043Y101114D01*
X498036Y101121D01*
X498023Y101148D01*
X497990Y101194D01*
X497956Y101254D01*
X497916Y101328D01*
X497870Y101414D01*
X497823Y101521D01*
X497770Y101641D01*
X497717Y101774D01*
X497670Y101914D01*
X497623Y102074D01*
X497583Y102247D01*
X497550Y102427D01*
X497523Y102620D01*
X497504Y102819D01*
X497497Y103033D01*
Y103039D01*
Y103046D01*
Y103066D01*
Y103093D01*
X497504Y103166D01*
X497510Y103259D01*
X497517Y103379D01*
X497537Y103512D01*
X497557Y103659D01*
X497590Y103818D01*
X497623Y103992D01*
X497670Y104165D01*
X497730Y104345D01*
X497803Y104524D01*
X497883Y104704D01*
X497976Y104877D01*
X498090Y105044D01*
X498216Y105197D01*
X498223Y105204D01*
X498249Y105230D01*
X498289Y105270D01*
X498349Y105317D01*
X498416Y105377D01*
X498502Y105444D01*
X498602Y105517D01*
X498716Y105590D01*
X498842Y105663D01*
X498982Y105736D01*
X499128Y105803D01*
X499295Y105863D01*
X499462Y105910D01*
X499648Y105950D01*
X499841Y105976D01*
X500041Y105983D01*
X500094D01*
X500161Y105976D01*
D02*
G37*
G36*
X462752Y108101D02*
X462831Y108094D01*
X462931Y108081D01*
X463038Y108068D01*
X463151Y108041D01*
X463271Y108014D01*
X463398Y107981D01*
X463531Y107941D01*
X463657Y107894D01*
X463784Y107834D01*
X463910Y107761D01*
X464030Y107688D01*
X464137Y107595D01*
X464144Y107588D01*
X464163Y107575D01*
X464190Y107541D01*
X464223Y107501D01*
X464270Y107455D01*
X464317Y107395D01*
X464370Y107328D01*
X464423Y107248D01*
X464470Y107162D01*
X464523Y107069D01*
X464570Y106969D01*
X464616Y106862D01*
X464650Y106742D01*
X464676Y106622D01*
X464696Y106489D01*
X464703Y106356D01*
Y106349D01*
Y106336D01*
Y106309D01*
X464696Y106276D01*
Y106236D01*
X464690Y106189D01*
X464670Y106076D01*
X464636Y105936D01*
X464583Y105790D01*
X464516Y105637D01*
X464423Y105477D01*
Y105470D01*
X464410Y105457D01*
X464390Y105437D01*
X464370Y105403D01*
X464337Y105364D01*
X464290Y105317D01*
X464243Y105264D01*
X464184Y105204D01*
X464110Y105137D01*
X464030Y105064D01*
X463944Y104984D01*
X463837Y104904D01*
X463724Y104811D01*
X463597Y104724D01*
X463464Y104631D01*
X463311Y104531D01*
X464370Y103112D01*
Y103119D01*
X464377Y103126D01*
X464390Y103146D01*
X464403Y103172D01*
X464417Y103206D01*
X464437Y103246D01*
X464483Y103346D01*
X464530Y103472D01*
X464583Y103619D01*
X464636Y103785D01*
X464690Y103978D01*
X466022Y103685D01*
Y103679D01*
X466015Y103652D01*
X466002Y103619D01*
X465988Y103572D01*
X465968Y103512D01*
X465948Y103445D01*
X465928Y103372D01*
X465902Y103292D01*
X465848Y103126D01*
X465789Y102953D01*
X465735Y102793D01*
X465702Y102719D01*
X465675Y102653D01*
Y102646D01*
X465669Y102640D01*
X465649Y102600D01*
X465622Y102540D01*
X465582Y102460D01*
X465535Y102373D01*
X465482Y102287D01*
X465422Y102193D01*
X465362Y102107D01*
X465376Y102094D01*
X465409Y102067D01*
X465462Y102020D01*
X465535Y101954D01*
X465622Y101880D01*
X465735Y101794D01*
X465855Y101700D01*
X465995Y101601D01*
X466002D01*
X466015Y101587D01*
X466035Y101574D01*
X466062Y101554D01*
X466128Y101507D01*
X466215Y101454D01*
X466308Y101394D01*
X466408Y101334D01*
X466495Y101274D01*
X466574Y101234D01*
X465682Y100095D01*
X465675Y100102D01*
X465655Y100109D01*
X465615Y100129D01*
X465569Y100155D01*
X465516Y100189D01*
X465442Y100229D01*
X465369Y100275D01*
X465282Y100329D01*
X465189Y100389D01*
X465089Y100455D01*
X464876Y100602D01*
X464656Y100782D01*
X464430Y100981D01*
X464423Y100975D01*
X464410Y100961D01*
X464383Y100941D01*
X464350Y100915D01*
X464303Y100875D01*
X464257Y100835D01*
X464197Y100788D01*
X464130Y100742D01*
X463984Y100642D01*
X463817Y100535D01*
X463631Y100442D01*
X463438Y100355D01*
X463431D01*
X463411Y100349D01*
X463384Y100335D01*
X463344Y100329D01*
X463291Y100309D01*
X463231Y100295D01*
X463165Y100275D01*
X463085Y100262D01*
X462998Y100242D01*
X462905Y100222D01*
X462798Y100209D01*
X462692Y100195D01*
X462452Y100169D01*
X462192Y100162D01*
X462092D01*
X462052Y100169D01*
X461959Y100175D01*
X461839Y100189D01*
X461699Y100202D01*
X461546Y100229D01*
X461386Y100262D01*
X461213Y100309D01*
X461033Y100362D01*
X460853Y100422D01*
X460674Y100502D01*
X460500Y100595D01*
X460334Y100701D01*
X460174Y100828D01*
X460034Y100968D01*
X460028Y100975D01*
X460008Y100995D01*
X459981Y101028D01*
X459948Y101075D01*
X459908Y101134D01*
X459855Y101208D01*
X459808Y101288D01*
X459755Y101381D01*
X459701Y101481D01*
X459655Y101587D01*
X459608Y101707D01*
X459561Y101834D01*
X459528Y101967D01*
X459502Y102107D01*
X459481Y102253D01*
X459475Y102400D01*
Y102407D01*
Y102433D01*
Y102473D01*
X459481Y102526D01*
X459488Y102586D01*
X459502Y102666D01*
X459515Y102753D01*
X459528Y102846D01*
X459555Y102946D01*
X459581Y103046D01*
X459615Y103159D01*
X459661Y103272D01*
X459708Y103385D01*
X459768Y103499D01*
X459834Y103612D01*
X459914Y103725D01*
X459921Y103732D01*
X459934Y103752D01*
X459961Y103785D01*
X459994Y103825D01*
X460041Y103878D01*
X460101Y103938D01*
X460168Y104005D01*
X460247Y104078D01*
X460334Y104151D01*
X460427Y104238D01*
X460540Y104325D01*
X460654Y104411D01*
X460787Y104498D01*
X460927Y104584D01*
X461073Y104671D01*
X461233Y104751D01*
X461227Y104757D01*
X461213Y104771D01*
X461193Y104797D01*
X461166Y104831D01*
X461133Y104871D01*
X461093Y104924D01*
X461007Y105037D01*
X460913Y105170D01*
X460814Y105324D01*
X460720Y105477D01*
X460634Y105637D01*
Y105643D01*
X460627Y105657D01*
X460614Y105677D01*
X460607Y105710D01*
X460587Y105750D01*
X460574Y105790D01*
X460540Y105896D01*
X460500Y106016D01*
X460474Y106156D01*
X460447Y106296D01*
X460441Y106436D01*
Y106442D01*
Y106469D01*
X460447Y106502D01*
Y106556D01*
X460461Y106616D01*
X460467Y106682D01*
X460487Y106762D01*
X460507Y106849D01*
X460540Y106935D01*
X460574Y107035D01*
X460620Y107128D01*
X460674Y107228D01*
X460740Y107328D01*
X460814Y107428D01*
X460893Y107528D01*
X460993Y107621D01*
X461000Y107628D01*
X461020Y107641D01*
X461053Y107668D01*
X461100Y107694D01*
X461153Y107735D01*
X461227Y107774D01*
X461306Y107821D01*
X461400Y107868D01*
X461506Y107908D01*
X461626Y107954D01*
X461759Y107994D01*
X461899Y108034D01*
X462052Y108061D01*
X462219Y108088D01*
X462399Y108101D01*
X462585Y108107D01*
X462678D01*
X462752Y108101D01*
D02*
G37*
G36*
X493488Y111516D02*
X492122D01*
Y112328D01*
X492115Y112322D01*
X492109Y112308D01*
X492089Y112282D01*
X492062Y112248D01*
X492029Y112208D01*
X491989Y112168D01*
X491889Y112062D01*
X491769Y111949D01*
X491636Y111829D01*
X491476Y111722D01*
X491310Y111622D01*
X491303D01*
X491290Y111616D01*
X491263Y111602D01*
X491230Y111589D01*
X491190Y111569D01*
X491137Y111549D01*
X491083Y111529D01*
X491023Y111509D01*
X490883Y111462D01*
X490724Y111429D01*
X490550Y111402D01*
X490377Y111389D01*
X490337D01*
X490284Y111396D01*
X490217Y111402D01*
X490131Y111416D01*
X490038Y111429D01*
X489931Y111456D01*
X489811Y111489D01*
X489685Y111529D01*
X489551Y111576D01*
X489418Y111642D01*
X489278Y111716D01*
X489139Y111802D01*
X488999Y111909D01*
X488865Y112029D01*
X488732Y112162D01*
X488726Y112168D01*
X488706Y112195D01*
X488672Y112242D01*
X488626Y112302D01*
X488572Y112381D01*
X488519Y112481D01*
X488459Y112595D01*
X488393Y112721D01*
X488333Y112868D01*
X488266Y113028D01*
X488213Y113201D01*
X488160Y113394D01*
X488113Y113600D01*
X488080Y113827D01*
X488060Y114060D01*
X488053Y114313D01*
Y114320D01*
Y114326D01*
Y114346D01*
Y114373D01*
Y114406D01*
X488060Y114446D01*
X488066Y114546D01*
X488073Y114666D01*
X488086Y114799D01*
X488106Y114952D01*
X488133Y115112D01*
X488173Y115285D01*
X488213Y115459D01*
X488266Y115638D01*
X488333Y115818D01*
X488406Y115991D01*
X488492Y116164D01*
X488599Y116318D01*
X488712Y116464D01*
X488719Y116471D01*
X488746Y116497D01*
X488779Y116531D01*
X488832Y116577D01*
X488899Y116637D01*
X488979Y116697D01*
X489072Y116764D01*
X489172Y116837D01*
X489292Y116904D01*
X489418Y116970D01*
X489558Y117030D01*
X489705Y117090D01*
X489864Y117137D01*
X490031Y117170D01*
X490211Y117197D01*
X490397Y117203D01*
X490437D01*
X490490Y117197D01*
X490557Y117190D01*
X490637Y117177D01*
X490730Y117163D01*
X490837Y117137D01*
X490950Y117104D01*
X491070Y117063D01*
X491203Y117010D01*
X491336Y116950D01*
X491476Y116877D01*
X491609Y116784D01*
X491749Y116684D01*
X491882Y116564D01*
X492016Y116424D01*
Y119195D01*
X493488D01*
Y111516D01*
D02*
G37*
G36*
X453541D02*
X452176D01*
Y112328D01*
X452169Y112322D01*
X452162Y112308D01*
X452142Y112282D01*
X452116Y112248D01*
X452082Y112208D01*
X452042Y112168D01*
X451942Y112062D01*
X451823Y111949D01*
X451689Y111829D01*
X451530Y111722D01*
X451363Y111622D01*
X451356D01*
X451343Y111616D01*
X451316Y111602D01*
X451283Y111589D01*
X451243Y111569D01*
X451190Y111549D01*
X451136Y111529D01*
X451077Y111509D01*
X450937Y111462D01*
X450777Y111429D01*
X450604Y111402D01*
X450431Y111389D01*
X450391D01*
X450337Y111396D01*
X450271Y111402D01*
X450184Y111416D01*
X450091Y111429D01*
X449984Y111456D01*
X449864Y111489D01*
X449738Y111529D01*
X449605Y111576D01*
X449472Y111642D01*
X449332Y111716D01*
X449192Y111802D01*
X449052Y111909D01*
X448919Y112029D01*
X448786Y112162D01*
X448779Y112168D01*
X448759Y112195D01*
X448726Y112242D01*
X448679Y112302D01*
X448626Y112381D01*
X448572Y112481D01*
X448513Y112595D01*
X448446Y112721D01*
X448386Y112868D01*
X448319Y113028D01*
X448266Y113201D01*
X448213Y113394D01*
X448166Y113600D01*
X448133Y113827D01*
X448113Y114060D01*
X448106Y114313D01*
Y114320D01*
Y114326D01*
Y114346D01*
Y114373D01*
Y114406D01*
X448113Y114446D01*
X448120Y114546D01*
X448126Y114666D01*
X448139Y114799D01*
X448160Y114952D01*
X448186Y115112D01*
X448226Y115285D01*
X448266Y115459D01*
X448319Y115638D01*
X448386Y115818D01*
X448459Y115991D01*
X448546Y116164D01*
X448652Y116318D01*
X448766Y116464D01*
X448772Y116471D01*
X448799Y116497D01*
X448832Y116531D01*
X448885Y116577D01*
X448952Y116637D01*
X449032Y116697D01*
X449125Y116764D01*
X449225Y116837D01*
X449345Y116904D01*
X449472Y116970D01*
X449611Y117030D01*
X449758Y117090D01*
X449918Y117137D01*
X450084Y117170D01*
X450264Y117197D01*
X450451Y117203D01*
X450491D01*
X450544Y117197D01*
X450610Y117190D01*
X450690Y117177D01*
X450784Y117163D01*
X450890Y117137D01*
X451003Y117104D01*
X451123Y117063D01*
X451256Y117010D01*
X451390Y116950D01*
X451530Y116877D01*
X451663Y116784D01*
X451802Y116684D01*
X451936Y116564D01*
X452069Y116424D01*
Y119195D01*
X453541D01*
Y111516D01*
D02*
G37*
G36*
X486861Y117197D02*
X486907D01*
X486961Y117190D01*
X487014Y117183D01*
X487081Y117170D01*
X487234Y117137D01*
X487394Y117084D01*
X487567Y117017D01*
X487747Y116924D01*
X487287Y115638D01*
X487280D01*
X487274Y115652D01*
X487254Y115658D01*
X487227Y115678D01*
X487154Y115718D01*
X487061Y115765D01*
X486954Y115805D01*
X486841Y115845D01*
X486714Y115871D01*
X486594Y115885D01*
X486541D01*
X486488Y115878D01*
X486415Y115865D01*
X486335Y115845D01*
X486241Y115811D01*
X486155Y115771D01*
X486068Y115712D01*
X486062Y115705D01*
X486035Y115678D01*
X485995Y115632D01*
X485948Y115572D01*
X485895Y115485D01*
X485835Y115378D01*
X485782Y115245D01*
X485735Y115092D01*
Y115085D01*
X485729Y115072D01*
X485722Y115046D01*
X485715Y114999D01*
X485709Y114946D01*
X485695Y114879D01*
X485689Y114793D01*
X485675Y114693D01*
X485662Y114579D01*
X485655Y114446D01*
X485642Y114293D01*
X485635Y114120D01*
X485629Y113933D01*
X485622Y113720D01*
X485615Y113487D01*
Y113234D01*
Y111516D01*
X484143D01*
Y117084D01*
X485509D01*
Y116291D01*
X485515Y116298D01*
X485522Y116318D01*
X485542Y116344D01*
X485569Y116384D01*
X485595Y116424D01*
X485635Y116477D01*
X485715Y116591D01*
X485815Y116717D01*
X485922Y116837D01*
X486028Y116944D01*
X486082Y116990D01*
X486135Y117024D01*
X486148Y117030D01*
X486181Y117050D01*
X486241Y117084D01*
X486321Y117117D01*
X486415Y117143D01*
X486521Y117177D01*
X486641Y117197D01*
X486774Y117203D01*
X486821D01*
X486861Y117197D01*
D02*
G37*
G36*
X458050Y111722D02*
X457690Y110757D01*
Y110750D01*
X457683Y110737D01*
X457670Y110710D01*
X457657Y110677D01*
X457643Y110637D01*
X457617Y110590D01*
X457570Y110483D01*
X457517Y110364D01*
X457457Y110237D01*
X457390Y110124D01*
X457324Y110017D01*
X457317Y110004D01*
X457290Y109977D01*
X457257Y109924D01*
X457210Y109871D01*
X457151Y109804D01*
X457077Y109731D01*
X457004Y109664D01*
X456917Y109598D01*
X456904Y109591D01*
X456878Y109571D01*
X456831Y109544D01*
X456764Y109504D01*
X456684Y109465D01*
X456584Y109424D01*
X456478Y109385D01*
X456358Y109351D01*
X456351D01*
X456345Y109345D01*
X456325D01*
X456298Y109338D01*
X456231Y109325D01*
X456138Y109305D01*
X456032Y109285D01*
X455905Y109271D01*
X455765Y109265D01*
X455612Y109258D01*
X455499D01*
X455459Y109265D01*
X455346Y109271D01*
X455219Y109278D01*
X455079Y109298D01*
X454933Y109318D01*
X454780Y109351D01*
X454646Y110503D01*
X454660D01*
X454680Y110497D01*
X454706Y110490D01*
X454766Y110483D01*
X454853Y110470D01*
X454946Y110457D01*
X455053Y110443D01*
X455159Y110437D01*
X455266Y110430D01*
X455312D01*
X455352Y110437D01*
X455392D01*
X455439Y110443D01*
X455552Y110470D01*
X455679Y110503D01*
X455805Y110557D01*
X455925Y110637D01*
X455978Y110683D01*
X456025Y110737D01*
Y110743D01*
X456038Y110750D01*
X456065Y110790D01*
X456112Y110856D01*
X456165Y110943D01*
X456225Y111056D01*
X456291Y111189D01*
X456351Y111336D01*
X456405Y111502D01*
X454293Y117084D01*
X455859D01*
X457184Y113128D01*
X458489Y117084D01*
X460014D01*
X458050Y111722D01*
D02*
G37*
G36*
X480574Y117197D02*
X480660D01*
X480754Y117190D01*
X480854Y117183D01*
X480967Y117177D01*
X481207Y117143D01*
X481446Y117104D01*
X481566Y117077D01*
X481679Y117050D01*
X481786Y117010D01*
X481879Y116970D01*
X481886D01*
X481899Y116957D01*
X481926Y116944D01*
X481959Y116930D01*
X481999Y116904D01*
X482046Y116877D01*
X482146Y116810D01*
X482259Y116724D01*
X482372Y116624D01*
X482479Y116504D01*
X482525Y116444D01*
X482565Y116377D01*
Y116371D01*
X482572Y116358D01*
X482585Y116338D01*
X482598Y116304D01*
X482612Y116264D01*
X482632Y116211D01*
X482645Y116151D01*
X482665Y116078D01*
X482685Y115991D01*
X482705Y115898D01*
X482718Y115791D01*
X482732Y115672D01*
X482745Y115538D01*
X482758Y115392D01*
X482765Y115232D01*
Y115059D01*
X482745Y113341D01*
Y113334D01*
Y113307D01*
Y113274D01*
Y113221D01*
Y113161D01*
X482752Y113087D01*
Y113014D01*
Y112928D01*
X482758Y112754D01*
X482772Y112575D01*
X482792Y112401D01*
X482798Y112328D01*
X482811Y112255D01*
Y112248D01*
X482818Y112242D01*
Y112222D01*
X482825Y112195D01*
X482845Y112122D01*
X482871Y112035D01*
X482911Y111922D01*
X482958Y111795D01*
X483011Y111662D01*
X483078Y111516D01*
X481619D01*
Y111522D01*
X481606Y111542D01*
X481593Y111576D01*
X481579Y111622D01*
X481559Y111689D01*
X481533Y111762D01*
X481506Y111849D01*
X481473Y111949D01*
Y111955D01*
X481466Y111969D01*
X481460Y111995D01*
X481453Y112022D01*
X481439Y112075D01*
X481426Y112102D01*
X481420Y112122D01*
X481413Y112115D01*
X481400Y112109D01*
X481380Y112089D01*
X481353Y112062D01*
X481320Y112029D01*
X481280Y111995D01*
X481180Y111915D01*
X481060Y111829D01*
X480920Y111735D01*
X480773Y111649D01*
X480614Y111569D01*
X480607D01*
X480594Y111562D01*
X480574Y111556D01*
X480540Y111542D01*
X480501Y111529D01*
X480454Y111509D01*
X480401Y111496D01*
X480341Y111482D01*
X480201Y111449D01*
X480048Y111416D01*
X479874Y111396D01*
X479695Y111389D01*
X479615D01*
X479555Y111396D01*
X479482Y111402D01*
X479395Y111416D01*
X479302Y111429D01*
X479202Y111449D01*
X479095Y111469D01*
X478989Y111502D01*
X478875Y111542D01*
X478762Y111589D01*
X478649Y111642D01*
X478543Y111702D01*
X478443Y111776D01*
X478343Y111855D01*
X478336Y111862D01*
X478323Y111875D01*
X478296Y111902D01*
X478263Y111942D01*
X478229Y111989D01*
X478190Y112042D01*
X478143Y112102D01*
X478096Y112175D01*
X478050Y112262D01*
X478003Y112348D01*
X477963Y112448D01*
X477930Y112548D01*
X477896Y112661D01*
X477870Y112781D01*
X477856Y112901D01*
X477850Y113034D01*
Y113041D01*
Y113054D01*
Y113081D01*
X477856Y113114D01*
Y113154D01*
X477863Y113201D01*
X477877Y113314D01*
X477903Y113441D01*
X477943Y113580D01*
X477996Y113727D01*
X478070Y113867D01*
Y113873D01*
X478083Y113880D01*
X478096Y113900D01*
X478110Y113927D01*
X478163Y113993D01*
X478236Y114080D01*
X478323Y114166D01*
X478429Y114266D01*
X478556Y114353D01*
X478702Y114433D01*
X478709D01*
X478722Y114439D01*
X478742Y114453D01*
X478776Y114466D01*
X478822Y114486D01*
X478869Y114506D01*
X478929Y114526D01*
X479002Y114553D01*
X479082Y114579D01*
X479169Y114606D01*
X479262Y114633D01*
X479368Y114666D01*
X479482Y114693D01*
X479601Y114719D01*
X479735Y114752D01*
X479874Y114779D01*
X479888D01*
X479921Y114786D01*
X479974Y114799D01*
X480041Y114812D01*
X480127Y114832D01*
X480227Y114852D01*
X480334Y114872D01*
X480447Y114899D01*
X480680Y114952D01*
X480920Y115012D01*
X481033Y115046D01*
X481140Y115079D01*
X481233Y115112D01*
X481313Y115146D01*
Y115292D01*
Y115299D01*
Y115312D01*
Y115332D01*
Y115359D01*
X481300Y115432D01*
X481286Y115525D01*
X481260Y115625D01*
X481226Y115725D01*
X481173Y115811D01*
X481100Y115891D01*
X481093Y115898D01*
X481060Y115918D01*
X481007Y115951D01*
X480967Y115965D01*
X480927Y115985D01*
X480873Y116005D01*
X480814Y116018D01*
X480754Y116038D01*
X480680Y116051D01*
X480600Y116058D01*
X480507Y116071D01*
X480414Y116078D01*
X480241D01*
X480174Y116071D01*
X480081Y116058D01*
X479988Y116038D01*
X479881Y116011D01*
X479781Y115971D01*
X479695Y115918D01*
X479688Y115911D01*
X479661Y115891D01*
X479621Y115851D01*
X479568Y115791D01*
X479515Y115718D01*
X479455Y115625D01*
X479395Y115512D01*
X479342Y115378D01*
X478003Y115618D01*
Y115625D01*
X478016Y115652D01*
X478030Y115698D01*
X478043Y115752D01*
X478070Y115818D01*
X478103Y115891D01*
X478136Y115978D01*
X478183Y116071D01*
X478229Y116164D01*
X478289Y116264D01*
X478349Y116364D01*
X478423Y116464D01*
X478503Y116557D01*
X478582Y116651D01*
X478676Y116730D01*
X478776Y116810D01*
X478782Y116817D01*
X478802Y116830D01*
X478835Y116844D01*
X478882Y116870D01*
X478935Y116904D01*
X479009Y116937D01*
X479089Y116970D01*
X479188Y117010D01*
X479295Y117044D01*
X479422Y117077D01*
X479555Y117110D01*
X479701Y117143D01*
X479861Y117170D01*
X480034Y117183D01*
X480214Y117197D01*
X480414Y117203D01*
X480507D01*
X480574Y117197D01*
D02*
G37*
G36*
X467334Y119188D02*
X467533D01*
X467753Y119175D01*
X467980Y119161D01*
X468086Y119155D01*
X468193Y119141D01*
X468293Y119128D01*
X468379Y119115D01*
X468386D01*
X468399Y119108D01*
X468426D01*
X468453Y119102D01*
X468493Y119088D01*
X468539Y119081D01*
X468652Y119048D01*
X468772Y119002D01*
X468912Y118948D01*
X469052Y118882D01*
X469185Y118795D01*
X469192D01*
X469199Y118782D01*
X469218Y118769D01*
X469245Y118748D01*
X469312Y118695D01*
X469392Y118629D01*
X469485Y118535D01*
X469585Y118422D01*
X469678Y118296D01*
X469771Y118156D01*
Y118149D01*
X469785Y118136D01*
X469791Y118116D01*
X469811Y118089D01*
X469825Y118049D01*
X469844Y118003D01*
X469871Y117949D01*
X469891Y117896D01*
X469938Y117763D01*
X469971Y117610D01*
X469998Y117443D01*
X470011Y117263D01*
Y117257D01*
Y117237D01*
Y117210D01*
X470004Y117170D01*
Y117123D01*
X469998Y117070D01*
X469984Y117004D01*
X469978Y116937D01*
X469938Y116784D01*
X469884Y116617D01*
X469818Y116444D01*
X469771Y116358D01*
X469718Y116271D01*
Y116264D01*
X469705Y116251D01*
X469691Y116231D01*
X469665Y116198D01*
X469598Y116118D01*
X469512Y116018D01*
X469398Y115905D01*
X469265Y115798D01*
X469112Y115692D01*
X468932Y115598D01*
X468939D01*
X468965Y115592D01*
X468999Y115578D01*
X469045Y115558D01*
X469105Y115538D01*
X469178Y115505D01*
X469252Y115472D01*
X469332Y115432D01*
X469505Y115339D01*
X469685Y115219D01*
X469858Y115072D01*
X469938Y114986D01*
X470011Y114899D01*
X470018Y114892D01*
X470024Y114879D01*
X470044Y114852D01*
X470071Y114812D01*
X470098Y114766D01*
X470131Y114706D01*
X470164Y114646D01*
X470204Y114573D01*
X470237Y114486D01*
X470271Y114400D01*
X470304Y114306D01*
X470331Y114200D01*
X470357Y114093D01*
X470377Y113980D01*
X470384Y113860D01*
X470391Y113740D01*
Y113733D01*
Y113714D01*
Y113687D01*
X470384Y113654D01*
Y113600D01*
X470377Y113547D01*
X470371Y113487D01*
X470357Y113414D01*
X470331Y113261D01*
X470284Y113087D01*
X470224Y112908D01*
X470144Y112721D01*
Y112715D01*
X470131Y112701D01*
X470118Y112675D01*
X470098Y112641D01*
X470078Y112595D01*
X470044Y112548D01*
X469971Y112435D01*
X469871Y112308D01*
X469758Y112182D01*
X469625Y112049D01*
X469478Y111929D01*
X469472D01*
X469458Y111915D01*
X469438Y111902D01*
X469405Y111882D01*
X469365Y111855D01*
X469312Y111835D01*
X469258Y111802D01*
X469192Y111776D01*
X469118Y111742D01*
X469039Y111709D01*
X468865Y111649D01*
X468659Y111602D01*
X468439Y111562D01*
X468419D01*
X468393Y111556D01*
X468306D01*
X468239Y111549D01*
X468159D01*
X468060Y111542D01*
X467946Y111536D01*
X467813D01*
X467660Y111529D01*
X467487D01*
X467294Y111522D01*
X467074D01*
X466834Y111516D01*
X463957D01*
Y119195D01*
X467247D01*
X467334Y119188D01*
D02*
G37*
G36*
X437530D02*
X437730D01*
X437950Y119175D01*
X438176Y119161D01*
X438283Y119155D01*
X438389Y119141D01*
X438489Y119128D01*
X438576Y119115D01*
X438582D01*
X438596Y119108D01*
X438622D01*
X438649Y119102D01*
X438689Y119088D01*
X438736Y119081D01*
X438849Y119048D01*
X438969Y119002D01*
X439109Y118948D01*
X439248Y118882D01*
X439382Y118795D01*
X439388D01*
X439395Y118782D01*
X439415Y118769D01*
X439442Y118748D01*
X439508Y118695D01*
X439588Y118629D01*
X439681Y118535D01*
X439781Y118422D01*
X439875Y118296D01*
X439968Y118156D01*
Y118149D01*
X439981Y118136D01*
X439988Y118116D01*
X440008Y118089D01*
X440021Y118049D01*
X440041Y118003D01*
X440068Y117949D01*
X440088Y117896D01*
X440134Y117763D01*
X440168Y117610D01*
X440194Y117443D01*
X440207Y117263D01*
Y117257D01*
Y117237D01*
Y117210D01*
X440201Y117170D01*
Y117123D01*
X440194Y117070D01*
X440181Y117004D01*
X440174Y116937D01*
X440134Y116784D01*
X440081Y116617D01*
X440014Y116444D01*
X439968Y116358D01*
X439915Y116271D01*
Y116264D01*
X439901Y116251D01*
X439888Y116231D01*
X439861Y116198D01*
X439795Y116118D01*
X439708Y116018D01*
X439595Y115905D01*
X439462Y115798D01*
X439308Y115692D01*
X439129Y115598D01*
X439135D01*
X439162Y115592D01*
X439195Y115578D01*
X439242Y115558D01*
X439302Y115538D01*
X439375Y115505D01*
X439448Y115472D01*
X439528Y115432D01*
X439701Y115339D01*
X439881Y115219D01*
X440054Y115072D01*
X440134Y114986D01*
X440207Y114899D01*
X440214Y114892D01*
X440221Y114879D01*
X440241Y114852D01*
X440267Y114812D01*
X440294Y114766D01*
X440327Y114706D01*
X440361Y114646D01*
X440401Y114573D01*
X440434Y114486D01*
X440467Y114400D01*
X440500Y114306D01*
X440527Y114200D01*
X440554Y114093D01*
X440574Y113980D01*
X440581Y113860D01*
X440587Y113740D01*
Y113733D01*
Y113714D01*
Y113687D01*
X440581Y113654D01*
Y113600D01*
X440574Y113547D01*
X440567Y113487D01*
X440554Y113414D01*
X440527Y113261D01*
X440481Y113087D01*
X440421Y112908D01*
X440341Y112721D01*
Y112715D01*
X440327Y112701D01*
X440314Y112675D01*
X440294Y112641D01*
X440274Y112595D01*
X440241Y112548D01*
X440168Y112435D01*
X440068Y112308D01*
X439954Y112182D01*
X439821Y112049D01*
X439675Y111929D01*
X439668D01*
X439655Y111915D01*
X439635Y111902D01*
X439601Y111882D01*
X439562Y111855D01*
X439508Y111835D01*
X439455Y111802D01*
X439388Y111776D01*
X439315Y111742D01*
X439235Y111709D01*
X439062Y111649D01*
X438856Y111602D01*
X438636Y111562D01*
X438616D01*
X438589Y111556D01*
X438503D01*
X438436Y111549D01*
X438356D01*
X438256Y111542D01*
X438143Y111536D01*
X438010D01*
X437856Y111529D01*
X437683D01*
X437490Y111522D01*
X437270D01*
X437031Y111516D01*
X434154D01*
Y119195D01*
X437444D01*
X437530Y119188D01*
D02*
G37*
G36*
X474333Y117197D02*
X474420Y117190D01*
X474533Y117177D01*
X474653Y117157D01*
X474793Y117137D01*
X474946Y117104D01*
X475106Y117057D01*
X475272Y117004D01*
X475446Y116937D01*
X475619Y116857D01*
X475785Y116764D01*
X475958Y116651D01*
X476125Y116524D01*
X476278Y116377D01*
X476285Y116371D01*
X476311Y116338D01*
X476351Y116291D01*
X476405Y116231D01*
X476465Y116151D01*
X476538Y116051D01*
X476611Y115938D01*
X476684Y115811D01*
X476758Y115672D01*
X476831Y115512D01*
X476904Y115339D01*
X476964Y115159D01*
X477017Y114966D01*
X477057Y114752D01*
X477084Y114539D01*
X477091Y114306D01*
Y114300D01*
Y114293D01*
Y114273D01*
Y114253D01*
X477084Y114186D01*
X477077Y114100D01*
X477064Y113987D01*
X477051Y113867D01*
X477024Y113727D01*
X476991Y113574D01*
X476944Y113414D01*
X476891Y113241D01*
X476824Y113067D01*
X476744Y112894D01*
X476651Y112715D01*
X476544Y112541D01*
X476418Y112375D01*
X476271Y112215D01*
X476265Y112208D01*
X476231Y112182D01*
X476192Y112142D01*
X476125Y112089D01*
X476045Y112022D01*
X475952Y111955D01*
X475839Y111882D01*
X475712Y111802D01*
X475572Y111722D01*
X475412Y111649D01*
X475246Y111582D01*
X475066Y111516D01*
X474873Y111462D01*
X474666Y111423D01*
X474447Y111396D01*
X474220Y111389D01*
X474147D01*
X474087Y111396D01*
X474020Y111402D01*
X473940Y111409D01*
X473854Y111416D01*
X473754Y111429D01*
X473641Y111449D01*
X473527Y111469D01*
X473281Y111536D01*
X473154Y111569D01*
X473021Y111616D01*
X472895Y111669D01*
X472762Y111729D01*
X472755Y111735D01*
X472728Y111742D01*
X472695Y111762D01*
X472648Y111795D01*
X472588Y111829D01*
X472522Y111875D01*
X472448Y111929D01*
X472369Y111989D01*
X472289Y112055D01*
X472202Y112128D01*
X472116Y112208D01*
X472029Y112302D01*
X471942Y112401D01*
X471856Y112508D01*
X471782Y112621D01*
X471709Y112741D01*
X471703Y112748D01*
X471696Y112775D01*
X471676Y112808D01*
X471656Y112861D01*
X471629Y112928D01*
X471596Y113008D01*
X471563Y113094D01*
X471529Y113201D01*
X471496Y113314D01*
X471463Y113434D01*
X471436Y113567D01*
X471403Y113714D01*
X471383Y113867D01*
X471363Y114027D01*
X471356Y114200D01*
X471350Y114373D01*
Y114380D01*
Y114406D01*
Y114446D01*
X471356Y114499D01*
X471363Y114566D01*
X471370Y114639D01*
X471383Y114726D01*
X471396Y114826D01*
X471416Y114932D01*
X471436Y115039D01*
X471503Y115279D01*
X471543Y115405D01*
X471589Y115532D01*
X471649Y115665D01*
X471709Y115791D01*
X471716Y115798D01*
X471729Y115825D01*
X471749Y115858D01*
X471776Y115905D01*
X471816Y115965D01*
X471856Y116025D01*
X471909Y116098D01*
X471969Y116178D01*
X472042Y116264D01*
X472116Y116351D01*
X472202Y116437D01*
X472289Y116524D01*
X472389Y116604D01*
X472495Y116691D01*
X472608Y116764D01*
X472728Y116837D01*
X472735Y116844D01*
X472762Y116850D01*
X472795Y116870D01*
X472848Y116897D01*
X472908Y116924D01*
X472981Y116950D01*
X473068Y116984D01*
X473161Y117024D01*
X473268Y117057D01*
X473381Y117090D01*
X473507Y117117D01*
X473634Y117143D01*
X473914Y117190D01*
X474060Y117197D01*
X474214Y117203D01*
X474267D01*
X474333Y117197D01*
D02*
G37*
G36*
X444530D02*
X444616Y117190D01*
X444730Y117177D01*
X444849Y117157D01*
X444989Y117137D01*
X445143Y117104D01*
X445302Y117057D01*
X445469Y117004D01*
X445642Y116937D01*
X445815Y116857D01*
X445982Y116764D01*
X446155Y116651D01*
X446321Y116524D01*
X446475Y116377D01*
X446481Y116371D01*
X446508Y116338D01*
X446548Y116291D01*
X446601Y116231D01*
X446661Y116151D01*
X446734Y116051D01*
X446807Y115938D01*
X446881Y115811D01*
X446954Y115672D01*
X447027Y115512D01*
X447101Y115339D01*
X447160Y115159D01*
X447214Y114966D01*
X447254Y114752D01*
X447280Y114539D01*
X447287Y114306D01*
Y114300D01*
Y114293D01*
Y114273D01*
Y114253D01*
X447280Y114186D01*
X447274Y114100D01*
X447260Y113987D01*
X447247Y113867D01*
X447221Y113727D01*
X447187Y113574D01*
X447141Y113414D01*
X447087Y113241D01*
X447021Y113067D01*
X446941Y112894D01*
X446847Y112715D01*
X446741Y112541D01*
X446614Y112375D01*
X446468Y112215D01*
X446461Y112208D01*
X446428Y112182D01*
X446388Y112142D01*
X446321Y112089D01*
X446241Y112022D01*
X446148Y111955D01*
X446035Y111882D01*
X445908Y111802D01*
X445769Y111722D01*
X445609Y111649D01*
X445442Y111582D01*
X445262Y111516D01*
X445069Y111462D01*
X444863Y111423D01*
X444643Y111396D01*
X444417Y111389D01*
X444343D01*
X444283Y111396D01*
X444217Y111402D01*
X444137Y111409D01*
X444050Y111416D01*
X443950Y111429D01*
X443837Y111449D01*
X443724Y111469D01*
X443477Y111536D01*
X443351Y111569D01*
X443218Y111616D01*
X443091Y111669D01*
X442958Y111729D01*
X442951Y111735D01*
X442925Y111742D01*
X442892Y111762D01*
X442845Y111795D01*
X442785Y111829D01*
X442718Y111875D01*
X442645Y111929D01*
X442565Y111989D01*
X442485Y112055D01*
X442399Y112128D01*
X442312Y112208D01*
X442226Y112302D01*
X442139Y112401D01*
X442052Y112508D01*
X441979Y112621D01*
X441906Y112741D01*
X441899Y112748D01*
X441892Y112775D01*
X441873Y112808D01*
X441853Y112861D01*
X441826Y112928D01*
X441793Y113008D01*
X441759Y113094D01*
X441726Y113201D01*
X441693Y113314D01*
X441659Y113434D01*
X441633Y113567D01*
X441599Y113714D01*
X441579Y113867D01*
X441560Y114027D01*
X441553Y114200D01*
X441546Y114373D01*
Y114380D01*
Y114406D01*
Y114446D01*
X441553Y114499D01*
X441560Y114566D01*
X441566Y114639D01*
X441579Y114726D01*
X441593Y114826D01*
X441613Y114932D01*
X441633Y115039D01*
X441699Y115279D01*
X441739Y115405D01*
X441786Y115532D01*
X441846Y115665D01*
X441906Y115791D01*
X441912Y115798D01*
X441926Y115825D01*
X441946Y115858D01*
X441972Y115905D01*
X442012Y115965D01*
X442052Y116025D01*
X442106Y116098D01*
X442166Y116178D01*
X442239Y116264D01*
X442312Y116351D01*
X442399Y116437D01*
X442485Y116524D01*
X442585Y116604D01*
X442692Y116691D01*
X442805Y116764D01*
X442925Y116837D01*
X442931Y116844D01*
X442958Y116850D01*
X442991Y116870D01*
X443045Y116897D01*
X443105Y116924D01*
X443178Y116950D01*
X443264Y116984D01*
X443358Y117024D01*
X443464Y117057D01*
X443577Y117090D01*
X443704Y117117D01*
X443830Y117143D01*
X444110Y117190D01*
X444257Y117197D01*
X444410Y117203D01*
X444463D01*
X444530Y117197D01*
D02*
G37*
G36*
X421384Y119526D02*
X421634Y119509D01*
X421934Y119475D01*
X422284Y119426D01*
X422667Y119359D01*
X423083Y119276D01*
X423533Y119176D01*
X424000Y119026D01*
X424466Y118859D01*
X424949Y118659D01*
X425432Y118409D01*
X425899Y118143D01*
X426349Y117809D01*
X426782Y117443D01*
X426798Y117426D01*
X426832Y117393D01*
X426898Y117310D01*
X426998Y117210D01*
X427098Y117093D01*
X427232Y116927D01*
X427365Y116743D01*
X427515Y116543D01*
X427665Y116310D01*
X427831Y116044D01*
X427998Y115744D01*
X428164Y115427D01*
X428314Y115094D01*
X428464Y114727D01*
X428614Y114328D01*
X428748Y113911D01*
X424916Y112995D01*
Y113012D01*
X424899Y113061D01*
X424883Y113145D01*
X424849Y113245D01*
X424799Y113361D01*
X424749Y113511D01*
X424599Y113845D01*
X424416Y114228D01*
X424166Y114611D01*
X423850Y114994D01*
X423683Y115177D01*
X423483Y115344D01*
X423466Y115360D01*
X423433Y115377D01*
X423366Y115427D01*
X423283Y115477D01*
X423183Y115544D01*
X423067Y115627D01*
X422917Y115710D01*
X422750Y115794D01*
X422567Y115860D01*
X422367Y115944D01*
X421917Y116094D01*
X421417Y116193D01*
X421134Y116210D01*
X420851Y116227D01*
X420751D01*
X420651Y116210D01*
X420501D01*
X420318Y116177D01*
X420101Y116144D01*
X419868Y116094D01*
X419618Y116027D01*
X419351Y115944D01*
X419068Y115844D01*
X418785Y115727D01*
X418485Y115577D01*
X418202Y115394D01*
X417919Y115194D01*
X417652Y114944D01*
X417385Y114678D01*
X417369Y114661D01*
X417336Y114611D01*
X417269Y114511D01*
X417186Y114378D01*
X417086Y114211D01*
X416969Y114011D01*
X416852Y113761D01*
X416736Y113478D01*
X416603Y113161D01*
X416486Y112795D01*
X416369Y112378D01*
X416269Y111945D01*
X416186Y111445D01*
X416119Y110912D01*
X416086Y110329D01*
X416069Y109713D01*
Y109696D01*
Y109679D01*
Y109629D01*
Y109546D01*
Y109463D01*
X416086Y109363D01*
Y109113D01*
X416103Y108813D01*
X416136Y108480D01*
X416186Y108097D01*
X416236Y107697D01*
X416303Y107280D01*
X416386Y106847D01*
X416486Y106414D01*
X416619Y105981D01*
X416769Y105564D01*
X416936Y105181D01*
X417136Y104831D01*
X417369Y104515D01*
X417385Y104498D01*
X417436Y104448D01*
X417502Y104382D01*
X417602Y104282D01*
X417735Y104165D01*
X417902Y104032D01*
X418085Y103898D01*
X418285Y103749D01*
X418518Y103599D01*
X418785Y103465D01*
X419052Y103332D01*
X419351Y103215D01*
X419685Y103132D01*
X420018Y103049D01*
X420384Y102999D01*
X420767Y102982D01*
X420917D01*
X421034Y102999D01*
X421167Y103015D01*
X421317Y103032D01*
X421484Y103065D01*
X421684Y103099D01*
X422100Y103215D01*
X422317Y103299D01*
X422534Y103399D01*
X422767Y103515D01*
X422983Y103648D01*
X423200Y103798D01*
X423416Y103965D01*
X423433Y103982D01*
X423466Y104015D01*
X423516Y104065D01*
X423600Y104148D01*
X423683Y104265D01*
X423800Y104382D01*
X423916Y104548D01*
X424033Y104715D01*
X424166Y104931D01*
X424299Y105148D01*
X424433Y105414D01*
X424566Y105681D01*
X424699Y105998D01*
X424816Y106331D01*
X424932Y106681D01*
X425033Y107064D01*
X428798Y105864D01*
Y105848D01*
X428781Y105831D01*
Y105781D01*
X428764Y105731D01*
X428698Y105564D01*
X428631Y105348D01*
X428531Y105081D01*
X428414Y104781D01*
X428281Y104448D01*
X428115Y104098D01*
X427931Y103732D01*
X427715Y103332D01*
X427482Y102949D01*
X427215Y102566D01*
X426932Y102182D01*
X426615Y101833D01*
X426282Y101483D01*
X425915Y101183D01*
X425899Y101166D01*
X425815Y101116D01*
X425715Y101050D01*
X425549Y100950D01*
X425349Y100833D01*
X425116Y100700D01*
X424832Y100566D01*
X424516Y100433D01*
X424166Y100283D01*
X423783Y100150D01*
X423366Y100017D01*
X422917Y99900D01*
X422434Y99800D01*
X421917Y99733D01*
X421384Y99683D01*
X420818Y99667D01*
X420651D01*
X420551Y99683D01*
X420451D01*
X420318Y99700D01*
X420184D01*
X419851Y99750D01*
X419468Y99800D01*
X419052Y99883D01*
X418602Y100000D01*
X418102Y100133D01*
X417602Y100300D01*
X417069Y100516D01*
X416552Y100766D01*
X416019Y101066D01*
X415503Y101416D01*
X415003Y101816D01*
X414520Y102266D01*
X414487Y102299D01*
X414420Y102382D01*
X414287Y102532D01*
X414137Y102749D01*
X413954Y103015D01*
X413754Y103332D01*
X413520Y103715D01*
X413304Y104148D01*
X413071Y104631D01*
X412854Y105165D01*
X412637Y105748D01*
X412454Y106397D01*
X412304Y107080D01*
X412171Y107814D01*
X412104Y108597D01*
X412071Y109430D01*
Y109446D01*
Y109479D01*
Y109546D01*
Y109646D01*
X412088Y109763D01*
Y109896D01*
X412104Y110046D01*
Y110229D01*
X412121Y110413D01*
X412154Y110629D01*
X412204Y111096D01*
X412271Y111595D01*
X412388Y112162D01*
X412504Y112745D01*
X412671Y113361D01*
X412871Y113978D01*
X413104Y114594D01*
X413387Y115211D01*
X413720Y115794D01*
X414104Y116360D01*
X414537Y116877D01*
X414570Y116910D01*
X414653Y116993D01*
X414787Y117127D01*
X414987Y117293D01*
X415236Y117493D01*
X415536Y117726D01*
X415886Y117959D01*
X416286Y118209D01*
X416719Y118459D01*
X417219Y118693D01*
X417752Y118926D01*
X418335Y119126D01*
X418952Y119292D01*
X419618Y119426D01*
X420318Y119509D01*
X421051Y119542D01*
X421284D01*
X421384Y119526D01*
D02*
G37*
G36*
X403924Y100000D02*
X399759D01*
X392895Y119209D01*
X397094D01*
X401958Y104998D01*
X406657Y119209D01*
X410788D01*
X403924Y100000D01*
D02*
G37*
G36*
X391196Y115960D02*
X380834D01*
Y111712D01*
X390480D01*
Y108463D01*
X380834D01*
Y103249D01*
X391563D01*
Y100000D01*
X376952D01*
Y119209D01*
X391196D01*
Y115960D01*
D02*
G37*
G36*
X374886Y100000D02*
X370654D01*
X368988Y104365D01*
X361308D01*
X359725Y100000D01*
X355610D01*
X363074Y119209D01*
X367206D01*
X374886Y100000D01*
D02*
G37*
%LPC*%
G36*
X520074Y102966D02*
X520061Y102959D01*
X520041D01*
X520021Y102946D01*
X519988Y102939D01*
X519954Y102926D01*
X519908Y102913D01*
X519854Y102899D01*
X519795Y102886D01*
X519728Y102866D01*
X519655Y102846D01*
X519575Y102826D01*
X519482Y102806D01*
X519388Y102779D01*
X519282Y102760D01*
X519169Y102733D01*
X519162D01*
X519142Y102726D01*
X519108Y102719D01*
X519068Y102713D01*
X519022Y102699D01*
X518962Y102686D01*
X518842Y102653D01*
X518702Y102613D01*
X518576Y102573D01*
X518516Y102553D01*
X518456Y102526D01*
X518409Y102506D01*
X518369Y102480D01*
X518356Y102473D01*
X518323Y102446D01*
X518276Y102400D01*
X518229Y102340D01*
X518176Y102267D01*
X518129Y102173D01*
X518096Y102074D01*
X518089Y102020D01*
X518083Y101960D01*
Y101947D01*
X518089Y101907D01*
X518096Y101854D01*
X518110Y101780D01*
X518136Y101694D01*
X518176Y101607D01*
X518236Y101514D01*
X518309Y101427D01*
X518323Y101421D01*
X518349Y101394D01*
X518402Y101361D01*
X518469Y101321D01*
X518556Y101274D01*
X518656Y101241D01*
X518776Y101214D01*
X518902Y101208D01*
X518942D01*
X518969Y101214D01*
X519009D01*
X519049Y101221D01*
X519148Y101241D01*
X519262Y101274D01*
X519388Y101314D01*
X519528Y101381D01*
X519661Y101467D01*
X519675Y101474D01*
X519701Y101501D01*
X519748Y101547D01*
X519808Y101601D01*
X519868Y101674D01*
X519921Y101754D01*
X519974Y101854D01*
X520014Y101954D01*
Y101960D01*
X520021Y101994D01*
X520034Y102040D01*
X520048Y102113D01*
Y102160D01*
X520054Y102213D01*
X520061Y102273D01*
X520068Y102333D01*
Y102407D01*
X520074Y102486D01*
Y102580D01*
Y102673D01*
Y102966D01*
D02*
G37*
G36*
X482512D02*
X482499Y102959D01*
X482479D01*
X482458Y102946D01*
X482425Y102939D01*
X482392Y102926D01*
X482345Y102913D01*
X482292Y102899D01*
X482232Y102886D01*
X482165Y102866D01*
X482092Y102846D01*
X482012Y102826D01*
X481919Y102806D01*
X481826Y102779D01*
X481719Y102760D01*
X481606Y102733D01*
X481599D01*
X481579Y102726D01*
X481546Y102719D01*
X481506Y102713D01*
X481460Y102699D01*
X481400Y102686D01*
X481280Y102653D01*
X481140Y102613D01*
X481013Y102573D01*
X480953Y102553D01*
X480893Y102526D01*
X480847Y102506D01*
X480807Y102480D01*
X480794Y102473D01*
X480760Y102446D01*
X480714Y102400D01*
X480667Y102340D01*
X480614Y102267D01*
X480567Y102173D01*
X480534Y102074D01*
X480527Y102020D01*
X480520Y101960D01*
Y101947D01*
X480527Y101907D01*
X480534Y101854D01*
X480547Y101780D01*
X480574Y101694D01*
X480614Y101607D01*
X480674Y101514D01*
X480747Y101427D01*
X480760Y101421D01*
X480787Y101394D01*
X480840Y101361D01*
X480907Y101321D01*
X480993Y101274D01*
X481093Y101241D01*
X481213Y101214D01*
X481340Y101208D01*
X481380D01*
X481406Y101214D01*
X481446D01*
X481486Y101221D01*
X481586Y101241D01*
X481699Y101274D01*
X481826Y101314D01*
X481966Y101381D01*
X482099Y101467D01*
X482112Y101474D01*
X482139Y101501D01*
X482186Y101547D01*
X482245Y101601D01*
X482305Y101674D01*
X482359Y101754D01*
X482412Y101854D01*
X482452Y101954D01*
Y101960D01*
X482458Y101994D01*
X482472Y102040D01*
X482485Y102113D01*
Y102160D01*
X482492Y102213D01*
X482499Y102273D01*
X482505Y102333D01*
Y102407D01*
X482512Y102486D01*
Y102580D01*
Y102673D01*
Y102966D01*
D02*
G37*
G36*
X444943D02*
X444929Y102959D01*
X444909D01*
X444889Y102946D01*
X444856Y102939D01*
X444823Y102926D01*
X444776Y102913D01*
X444723Y102899D01*
X444663Y102886D01*
X444596Y102866D01*
X444523Y102846D01*
X444443Y102826D01*
X444350Y102806D01*
X444257Y102779D01*
X444150Y102760D01*
X444037Y102733D01*
X444030D01*
X444010Y102726D01*
X443977Y102719D01*
X443937Y102713D01*
X443890Y102699D01*
X443830Y102686D01*
X443711Y102653D01*
X443571Y102613D01*
X443444Y102573D01*
X443384Y102553D01*
X443324Y102526D01*
X443278Y102506D01*
X443238Y102480D01*
X443224Y102473D01*
X443191Y102446D01*
X443145Y102400D01*
X443098Y102340D01*
X443045Y102267D01*
X442998Y102173D01*
X442965Y102074D01*
X442958Y102020D01*
X442951Y101960D01*
Y101947D01*
X442958Y101907D01*
X442965Y101854D01*
X442978Y101780D01*
X443005Y101694D01*
X443045Y101607D01*
X443105Y101514D01*
X443178Y101427D01*
X443191Y101421D01*
X443218Y101394D01*
X443271Y101361D01*
X443338Y101321D01*
X443424Y101274D01*
X443524Y101241D01*
X443644Y101214D01*
X443771Y101208D01*
X443811D01*
X443837Y101214D01*
X443877D01*
X443917Y101221D01*
X444017Y101241D01*
X444130Y101274D01*
X444257Y101314D01*
X444397Y101381D01*
X444530Y101467D01*
X444543Y101474D01*
X444570Y101501D01*
X444616Y101547D01*
X444676Y101601D01*
X444736Y101674D01*
X444790Y101754D01*
X444843Y101854D01*
X444883Y101954D01*
Y101960D01*
X444889Y101994D01*
X444903Y102040D01*
X444916Y102113D01*
Y102160D01*
X444923Y102213D01*
X444929Y102273D01*
X444936Y102333D01*
Y102407D01*
X444943Y102486D01*
Y102580D01*
Y102673D01*
Y102966D01*
D02*
G37*
G36*
X500134Y104857D02*
X500088D01*
X500054Y104851D01*
X500014Y104844D01*
X499968Y104837D01*
X499854Y104811D01*
X499728Y104771D01*
X499595Y104711D01*
X499528Y104671D01*
X499468Y104624D01*
X499402Y104564D01*
X499342Y104504D01*
Y104498D01*
X499328Y104491D01*
X499315Y104471D01*
X499295Y104438D01*
X499268Y104404D01*
X499242Y104365D01*
X499215Y104311D01*
X499189Y104251D01*
X499155Y104191D01*
X499128Y104118D01*
X499102Y104038D01*
X499075Y103952D01*
X499042Y103765D01*
X499035Y103659D01*
X499029Y103552D01*
X501233D01*
Y103559D01*
Y103579D01*
X501226Y103612D01*
Y103659D01*
X501220Y103712D01*
X501213Y103772D01*
X501200Y103838D01*
X501186Y103912D01*
X501147Y104071D01*
X501087Y104231D01*
X501007Y104385D01*
X500953Y104458D01*
X500900Y104524D01*
X500893Y104531D01*
X500887Y104538D01*
X500867Y104558D01*
X500847Y104578D01*
X500780Y104631D01*
X500687Y104691D01*
X500574Y104751D01*
X500447Y104804D01*
X500294Y104844D01*
X500221Y104851D01*
X500134Y104857D01*
D02*
G37*
G36*
X462625Y107069D02*
X462565D01*
X462505Y107062D01*
X462425Y107048D01*
X462332Y107022D01*
X462245Y106995D01*
X462152Y106949D01*
X462072Y106889D01*
X462066Y106882D01*
X462046Y106855D01*
X462012Y106822D01*
X461979Y106775D01*
X461939Y106716D01*
X461912Y106642D01*
X461886Y106569D01*
X461879Y106482D01*
Y106469D01*
X461886Y106436D01*
X461899Y106376D01*
X461919Y106296D01*
X461959Y106203D01*
X462019Y106089D01*
X462059Y106029D01*
X462106Y105963D01*
X462152Y105896D01*
X462212Y105823D01*
X462572Y105403D01*
X462971Y105710D01*
X462978Y105717D01*
X462991Y105723D01*
X463011Y105743D01*
X463038Y105770D01*
X463111Y105836D01*
X463191Y105923D01*
X463271Y106023D01*
X463344Y106136D01*
X463371Y106196D01*
X463391Y106256D01*
X463404Y106323D01*
X463411Y106383D01*
Y106389D01*
Y106396D01*
Y106429D01*
X463398Y106482D01*
X463384Y106549D01*
X463358Y106629D01*
X463324Y106709D01*
X463271Y106789D01*
X463198Y106869D01*
X463191Y106875D01*
X463158Y106902D01*
X463111Y106935D01*
X463045Y106969D01*
X462965Y107009D01*
X462865Y107035D01*
X462752Y107062D01*
X462625Y107069D01*
D02*
G37*
G36*
X461992Y103812D02*
X461986D01*
X461972Y103798D01*
X461946Y103785D01*
X461912Y103765D01*
X461866Y103738D01*
X461819Y103712D01*
X461706Y103639D01*
X461586Y103545D01*
X461460Y103439D01*
X461340Y103326D01*
X461233Y103192D01*
Y103186D01*
X461220Y103179D01*
X461213Y103159D01*
X461193Y103132D01*
X461153Y103059D01*
X461113Y102966D01*
X461067Y102853D01*
X461027Y102726D01*
X461000Y102593D01*
X460987Y102453D01*
Y102446D01*
Y102433D01*
Y102407D01*
X460993Y102373D01*
Y102333D01*
X461000Y102287D01*
X461027Y102180D01*
X461060Y102060D01*
X461113Y101927D01*
X461193Y101800D01*
X461240Y101741D01*
X461293Y101681D01*
X461300D01*
X461306Y101667D01*
X461326Y101654D01*
X461353Y101634D01*
X461380Y101614D01*
X461420Y101587D01*
X461513Y101534D01*
X461633Y101474D01*
X461779Y101427D01*
X461946Y101394D01*
X462039Y101388D01*
X462132Y101381D01*
X462192D01*
X462259Y101388D01*
X462345Y101401D01*
X462445Y101414D01*
X462558Y101434D01*
X462672Y101467D01*
X462792Y101514D01*
X462798D01*
X462805Y101521D01*
X462825Y101527D01*
X462845Y101541D01*
X462911Y101574D01*
X462998Y101621D01*
X463105Y101681D01*
X463224Y101760D01*
X463351Y101854D01*
X463491Y101967D01*
X461992Y103812D01*
D02*
G37*
G36*
X490790Y116078D02*
X490737D01*
X490704Y116071D01*
X490657Y116065D01*
X490604Y116058D01*
X490484Y116025D01*
X490344Y115978D01*
X490271Y115945D01*
X490198Y115898D01*
X490124Y115851D01*
X490051Y115798D01*
X489978Y115732D01*
X489911Y115658D01*
X489904Y115652D01*
X489898Y115638D01*
X489878Y115612D01*
X489858Y115578D01*
X489831Y115538D01*
X489805Y115485D01*
X489771Y115419D01*
X489738Y115345D01*
X489705Y115265D01*
X489671Y115172D01*
X489645Y115072D01*
X489618Y114959D01*
X489598Y114839D01*
X489578Y114706D01*
X489571Y114566D01*
X489565Y114413D01*
Y114406D01*
Y114373D01*
Y114326D01*
X489571Y114266D01*
Y114193D01*
X489578Y114113D01*
X489585Y114020D01*
X489598Y113920D01*
X489625Y113707D01*
X489665Y113500D01*
X489691Y113394D01*
X489725Y113301D01*
X489764Y113207D01*
X489805Y113128D01*
X489811Y113121D01*
X489824Y113101D01*
X489845Y113074D01*
X489871Y113041D01*
X489904Y112994D01*
X489951Y112948D01*
X490004Y112894D01*
X490064Y112841D01*
X490131Y112788D01*
X490204Y112734D01*
X490291Y112688D01*
X490377Y112641D01*
X490477Y112608D01*
X490577Y112581D01*
X490690Y112561D01*
X490803Y112555D01*
X490850D01*
X490890Y112561D01*
X490930Y112568D01*
X490983Y112575D01*
X491103Y112608D01*
X491236Y112661D01*
X491310Y112695D01*
X491383Y112734D01*
X491449Y112781D01*
X491523Y112841D01*
X491596Y112908D01*
X491663Y112981D01*
X491669Y112988D01*
X491676Y113001D01*
X491696Y113028D01*
X491716Y113061D01*
X491749Y113108D01*
X491776Y113161D01*
X491809Y113227D01*
X491843Y113307D01*
X491876Y113394D01*
X491909Y113487D01*
X491942Y113594D01*
X491969Y113707D01*
X491989Y113833D01*
X492009Y113973D01*
X492016Y114120D01*
X492022Y114273D01*
Y114286D01*
Y114313D01*
Y114366D01*
X492016Y114433D01*
X492009Y114506D01*
X492002Y114599D01*
X491996Y114699D01*
X491982Y114806D01*
X491936Y115032D01*
X491876Y115259D01*
X491836Y115372D01*
X491789Y115472D01*
X491736Y115565D01*
X491676Y115652D01*
X491669Y115658D01*
X491663Y115672D01*
X491643Y115692D01*
X491616Y115718D01*
X491576Y115752D01*
X491536Y115785D01*
X491490Y115825D01*
X491436Y115865D01*
X491310Y115945D01*
X491156Y116011D01*
X491070Y116038D01*
X490983Y116058D01*
X490890Y116071D01*
X490790Y116078D01*
D02*
G37*
G36*
X450843D02*
X450790D01*
X450757Y116071D01*
X450710Y116065D01*
X450657Y116058D01*
X450537Y116025D01*
X450397Y115978D01*
X450324Y115945D01*
X450251Y115898D01*
X450177Y115851D01*
X450104Y115798D01*
X450031Y115732D01*
X449964Y115658D01*
X449958Y115652D01*
X449951Y115638D01*
X449931Y115612D01*
X449911Y115578D01*
X449885Y115538D01*
X449858Y115485D01*
X449824Y115419D01*
X449791Y115345D01*
X449758Y115265D01*
X449725Y115172D01*
X449698Y115072D01*
X449671Y114959D01*
X449651Y114839D01*
X449631Y114706D01*
X449625Y114566D01*
X449618Y114413D01*
Y114406D01*
Y114373D01*
Y114326D01*
X449625Y114266D01*
Y114193D01*
X449631Y114113D01*
X449638Y114020D01*
X449651Y113920D01*
X449678Y113707D01*
X449718Y113500D01*
X449745Y113394D01*
X449778Y113301D01*
X449818Y113207D01*
X449858Y113128D01*
X449864Y113121D01*
X449878Y113101D01*
X449898Y113074D01*
X449924Y113041D01*
X449958Y112994D01*
X450004Y112948D01*
X450058Y112894D01*
X450118Y112841D01*
X450184Y112788D01*
X450257Y112734D01*
X450344Y112688D01*
X450431Y112641D01*
X450530Y112608D01*
X450630Y112581D01*
X450744Y112561D01*
X450857Y112555D01*
X450903D01*
X450943Y112561D01*
X450983Y112568D01*
X451037Y112575D01*
X451157Y112608D01*
X451290Y112661D01*
X451363Y112695D01*
X451436Y112734D01*
X451503Y112781D01*
X451576Y112841D01*
X451649Y112908D01*
X451716Y112981D01*
X451723Y112988D01*
X451729Y113001D01*
X451749Y113028D01*
X451769Y113061D01*
X451802Y113108D01*
X451829Y113161D01*
X451862Y113227D01*
X451896Y113307D01*
X451929Y113394D01*
X451962Y113487D01*
X451996Y113594D01*
X452022Y113707D01*
X452042Y113833D01*
X452062Y113973D01*
X452069Y114120D01*
X452076Y114273D01*
Y114286D01*
Y114313D01*
Y114366D01*
X452069Y114433D01*
X452062Y114506D01*
X452056Y114599D01*
X452049Y114699D01*
X452036Y114806D01*
X451989Y115032D01*
X451929Y115259D01*
X451889Y115372D01*
X451842Y115472D01*
X451789Y115565D01*
X451729Y115652D01*
X451723Y115658D01*
X451716Y115672D01*
X451696Y115692D01*
X451669Y115718D01*
X451629Y115752D01*
X451589Y115785D01*
X451543Y115825D01*
X451489Y115865D01*
X451363Y115945D01*
X451210Y116011D01*
X451123Y116038D01*
X451037Y116058D01*
X450943Y116071D01*
X450843Y116078D01*
D02*
G37*
G36*
X481313Y114186D02*
X481300Y114180D01*
X481280D01*
X481260Y114166D01*
X481226Y114160D01*
X481193Y114146D01*
X481146Y114133D01*
X481093Y114120D01*
X481033Y114107D01*
X480967Y114086D01*
X480893Y114067D01*
X480814Y114047D01*
X480720Y114027D01*
X480627Y114000D01*
X480520Y113980D01*
X480407Y113953D01*
X480401D01*
X480381Y113947D01*
X480347Y113940D01*
X480307Y113933D01*
X480261Y113920D01*
X480201Y113907D01*
X480081Y113873D01*
X479941Y113833D01*
X479814Y113794D01*
X479755Y113774D01*
X479695Y113747D01*
X479648Y113727D01*
X479608Y113700D01*
X479595Y113694D01*
X479561Y113667D01*
X479515Y113620D01*
X479468Y113560D01*
X479415Y113487D01*
X479368Y113394D01*
X479335Y113294D01*
X479328Y113241D01*
X479322Y113181D01*
Y113167D01*
X479328Y113128D01*
X479335Y113074D01*
X479348Y113001D01*
X479375Y112914D01*
X479415Y112828D01*
X479475Y112734D01*
X479548Y112648D01*
X479561Y112641D01*
X479588Y112615D01*
X479641Y112581D01*
X479708Y112541D01*
X479795Y112495D01*
X479894Y112461D01*
X480014Y112435D01*
X480141Y112428D01*
X480181D01*
X480207Y112435D01*
X480247D01*
X480287Y112442D01*
X480387Y112461D01*
X480501Y112495D01*
X480627Y112535D01*
X480767Y112601D01*
X480900Y112688D01*
X480913Y112695D01*
X480940Y112721D01*
X480987Y112768D01*
X481047Y112821D01*
X481107Y112894D01*
X481160Y112974D01*
X481213Y113074D01*
X481253Y113174D01*
Y113181D01*
X481260Y113214D01*
X481273Y113261D01*
X481286Y113334D01*
Y113381D01*
X481293Y113434D01*
X481300Y113494D01*
X481306Y113554D01*
Y113627D01*
X481313Y113707D01*
Y113800D01*
Y113893D01*
Y114186D01*
D02*
G37*
G36*
X466921Y117916D02*
X465509D01*
Y116145D01*
X467001D01*
X467194Y116151D01*
X467380D01*
X467460Y116158D01*
X467533D01*
X467600Y116164D01*
X467667D01*
X467687Y116171D01*
X467713Y116178D01*
X467780Y116191D01*
X467873Y116218D01*
X467973Y116251D01*
X468073Y116298D01*
X468173Y116364D01*
X468266Y116437D01*
X468279Y116451D01*
X468306Y116477D01*
X468339Y116531D01*
X468386Y116597D01*
X468426Y116684D01*
X468466Y116790D01*
X468493Y116904D01*
X468499Y117037D01*
Y117044D01*
Y117050D01*
Y117070D01*
Y117097D01*
X468486Y117163D01*
X468472Y117243D01*
X468453Y117337D01*
X468413Y117437D01*
X468366Y117530D01*
X468299Y117616D01*
X468293Y117630D01*
X468266Y117650D01*
X468219Y117690D01*
X468153Y117736D01*
X468073Y117783D01*
X467973Y117829D01*
X467853Y117863D01*
X467720Y117889D01*
X467693D01*
X467667Y117896D01*
X467587D01*
X467533Y117903D01*
X467387D01*
X467294Y117909D01*
X467061D01*
X466921Y117916D01*
D02*
G37*
G36*
X466954Y114866D02*
X465509D01*
Y112814D01*
X467220D01*
X467300Y112821D01*
X467387D01*
X467567Y112828D01*
X467747Y112834D01*
X467827Y112841D01*
X467893Y112848D01*
X467960Y112854D01*
X468006Y112861D01*
X468020D01*
X468040Y112868D01*
X468066Y112874D01*
X468126Y112894D01*
X468206Y112921D01*
X468299Y112961D01*
X468393Y113014D01*
X468486Y113081D01*
X468572Y113161D01*
X468579Y113174D01*
X468606Y113207D01*
X468639Y113261D01*
X468686Y113334D01*
X468726Y113427D01*
X468759Y113540D01*
X468785Y113667D01*
X468792Y113813D01*
Y113820D01*
Y113827D01*
Y113847D01*
Y113873D01*
X468785Y113933D01*
X468772Y114020D01*
X468752Y114107D01*
X468719Y114206D01*
X468679Y114306D01*
X468619Y114400D01*
X468612Y114413D01*
X468586Y114439D01*
X468552Y114486D01*
X468499Y114539D01*
X468426Y114593D01*
X468346Y114653D01*
X468246Y114706D01*
X468133Y114752D01*
X468126D01*
X468119Y114759D01*
X468100Y114766D01*
X468066Y114772D01*
X468026Y114779D01*
X467980Y114786D01*
X467920Y114799D01*
X467846Y114812D01*
X467760Y114819D01*
X467660Y114832D01*
X467547Y114839D01*
X467420Y114846D01*
X467280Y114852D01*
X467127Y114859D01*
X466954Y114866D01*
D02*
G37*
G36*
X437117Y117916D02*
X435705D01*
Y116145D01*
X437197D01*
X437390Y116151D01*
X437577D01*
X437657Y116158D01*
X437730D01*
X437797Y116164D01*
X437863D01*
X437883Y116171D01*
X437910Y116178D01*
X437976Y116191D01*
X438070Y116218D01*
X438169Y116251D01*
X438269Y116298D01*
X438369Y116364D01*
X438463Y116437D01*
X438476Y116451D01*
X438503Y116477D01*
X438536Y116531D01*
X438582Y116597D01*
X438622Y116684D01*
X438662Y116790D01*
X438689Y116904D01*
X438696Y117037D01*
Y117044D01*
Y117050D01*
Y117070D01*
Y117097D01*
X438682Y117163D01*
X438669Y117243D01*
X438649Y117337D01*
X438609Y117437D01*
X438562Y117530D01*
X438496Y117616D01*
X438489Y117630D01*
X438463Y117650D01*
X438416Y117690D01*
X438349Y117736D01*
X438269Y117783D01*
X438169Y117829D01*
X438050Y117863D01*
X437916Y117889D01*
X437890D01*
X437863Y117896D01*
X437783D01*
X437730Y117903D01*
X437583D01*
X437490Y117909D01*
X437257D01*
X437117Y117916D01*
D02*
G37*
G36*
X437151Y114866D02*
X435705D01*
Y112814D01*
X437417D01*
X437497Y112821D01*
X437583D01*
X437763Y112828D01*
X437943Y112834D01*
X438023Y112841D01*
X438090Y112848D01*
X438156Y112854D01*
X438203Y112861D01*
X438216D01*
X438236Y112868D01*
X438263Y112874D01*
X438323Y112894D01*
X438403Y112921D01*
X438496Y112961D01*
X438589Y113014D01*
X438682Y113081D01*
X438769Y113161D01*
X438776Y113174D01*
X438802Y113207D01*
X438835Y113261D01*
X438882Y113334D01*
X438922Y113427D01*
X438955Y113540D01*
X438982Y113667D01*
X438989Y113813D01*
Y113820D01*
Y113827D01*
Y113847D01*
Y113873D01*
X438982Y113933D01*
X438969Y114020D01*
X438949Y114107D01*
X438915Y114206D01*
X438875Y114306D01*
X438815Y114400D01*
X438809Y114413D01*
X438782Y114439D01*
X438749Y114486D01*
X438696Y114539D01*
X438622Y114593D01*
X438543Y114653D01*
X438443Y114706D01*
X438329Y114752D01*
X438323D01*
X438316Y114759D01*
X438296Y114766D01*
X438263Y114772D01*
X438223Y114779D01*
X438176Y114786D01*
X438116Y114799D01*
X438043Y114812D01*
X437956Y114819D01*
X437856Y114832D01*
X437743Y114839D01*
X437617Y114846D01*
X437477Y114852D01*
X437324Y114859D01*
X437151Y114866D01*
D02*
G37*
G36*
X474220Y116005D02*
X474167D01*
X474127Y115998D01*
X474074Y115991D01*
X474014Y115978D01*
X473954Y115965D01*
X473880Y115951D01*
X473727Y115898D01*
X473647Y115858D01*
X473567Y115818D01*
X473481Y115765D01*
X473401Y115705D01*
X473321Y115638D01*
X473248Y115558D01*
X473241Y115552D01*
X473234Y115538D01*
X473214Y115512D01*
X473188Y115478D01*
X473161Y115432D01*
X473128Y115378D01*
X473088Y115312D01*
X473055Y115239D01*
X473021Y115152D01*
X472981Y115059D01*
X472948Y114952D01*
X472921Y114839D01*
X472895Y114719D01*
X472882Y114586D01*
X472868Y114446D01*
X472861Y114293D01*
Y114286D01*
Y114260D01*
Y114213D01*
X472868Y114160D01*
X472875Y114086D01*
X472882Y114007D01*
X472895Y113920D01*
X472908Y113827D01*
X472955Y113620D01*
X472988Y113514D01*
X473028Y113414D01*
X473068Y113307D01*
X473121Y113207D01*
X473181Y113114D01*
X473248Y113028D01*
X473254Y113021D01*
X473268Y113008D01*
X473288Y112988D01*
X473321Y112961D01*
X473354Y112928D01*
X473401Y112888D01*
X473454Y112848D01*
X473514Y112808D01*
X473587Y112768D01*
X473661Y112728D01*
X473827Y112655D01*
X473914Y112628D01*
X474014Y112608D01*
X474114Y112595D01*
X474220Y112588D01*
X474273D01*
X474313Y112595D01*
X474367Y112601D01*
X474420Y112615D01*
X474486Y112628D01*
X474553Y112641D01*
X474706Y112695D01*
X474786Y112728D01*
X474866Y112775D01*
X474953Y112821D01*
X475033Y112881D01*
X475113Y112948D01*
X475186Y113028D01*
X475192Y113034D01*
X475206Y113048D01*
X475219Y113074D01*
X475246Y113108D01*
X475279Y113154D01*
X475312Y113214D01*
X475346Y113274D01*
X475386Y113354D01*
X475419Y113441D01*
X475452Y113534D01*
X475486Y113640D01*
X475519Y113753D01*
X475545Y113880D01*
X475559Y114013D01*
X475572Y114153D01*
X475579Y114306D01*
Y114313D01*
Y114340D01*
Y114386D01*
X475572Y114439D01*
X475565Y114506D01*
X475559Y114586D01*
X475545Y114673D01*
X475532Y114766D01*
X475486Y114972D01*
X475452Y115072D01*
X475412Y115179D01*
X475366Y115279D01*
X475319Y115378D01*
X475252Y115472D01*
X475186Y115558D01*
X475179Y115565D01*
X475166Y115578D01*
X475146Y115598D01*
X475113Y115632D01*
X475079Y115665D01*
X475033Y115698D01*
X474979Y115738D01*
X474919Y115785D01*
X474853Y115825D01*
X474780Y115865D01*
X474613Y115938D01*
X474520Y115965D01*
X474427Y115985D01*
X474327Y115998D01*
X474220Y116005D01*
D02*
G37*
G36*
X444417D02*
X444363D01*
X444323Y115998D01*
X444270Y115991D01*
X444210Y115978D01*
X444150Y115965D01*
X444077Y115951D01*
X443924Y115898D01*
X443844Y115858D01*
X443764Y115818D01*
X443677Y115765D01*
X443597Y115705D01*
X443517Y115638D01*
X443444Y115558D01*
X443438Y115552D01*
X443431Y115538D01*
X443411Y115512D01*
X443384Y115478D01*
X443358Y115432D01*
X443324Y115378D01*
X443284Y115312D01*
X443251Y115239D01*
X443218Y115152D01*
X443178Y115059D01*
X443145Y114952D01*
X443118Y114839D01*
X443091Y114719D01*
X443078Y114586D01*
X443065Y114446D01*
X443058Y114293D01*
Y114286D01*
Y114260D01*
Y114213D01*
X443065Y114160D01*
X443071Y114086D01*
X443078Y114007D01*
X443091Y113920D01*
X443105Y113827D01*
X443151Y113620D01*
X443185Y113514D01*
X443224Y113414D01*
X443264Y113307D01*
X443318Y113207D01*
X443378Y113114D01*
X443444Y113028D01*
X443451Y113021D01*
X443464Y113008D01*
X443484Y112988D01*
X443517Y112961D01*
X443551Y112928D01*
X443597Y112888D01*
X443651Y112848D01*
X443711Y112808D01*
X443784Y112768D01*
X443857Y112728D01*
X444024Y112655D01*
X444110Y112628D01*
X444210Y112608D01*
X444310Y112595D01*
X444417Y112588D01*
X444470D01*
X444510Y112595D01*
X444563Y112601D01*
X444616Y112615D01*
X444683Y112628D01*
X444750Y112641D01*
X444903Y112695D01*
X444983Y112728D01*
X445063Y112775D01*
X445149Y112821D01*
X445229Y112881D01*
X445309Y112948D01*
X445382Y113028D01*
X445389Y113034D01*
X445402Y113048D01*
X445416Y113074D01*
X445442Y113108D01*
X445476Y113154D01*
X445509Y113214D01*
X445542Y113274D01*
X445582Y113354D01*
X445615Y113441D01*
X445649Y113534D01*
X445682Y113640D01*
X445715Y113753D01*
X445742Y113880D01*
X445755Y114013D01*
X445769Y114153D01*
X445775Y114306D01*
Y114313D01*
Y114340D01*
Y114386D01*
X445769Y114439D01*
X445762Y114506D01*
X445755Y114586D01*
X445742Y114673D01*
X445729Y114766D01*
X445682Y114972D01*
X445649Y115072D01*
X445609Y115179D01*
X445562Y115279D01*
X445515Y115378D01*
X445449Y115472D01*
X445382Y115558D01*
X445376Y115565D01*
X445362Y115578D01*
X445342Y115598D01*
X445309Y115632D01*
X445276Y115665D01*
X445229Y115698D01*
X445176Y115738D01*
X445116Y115785D01*
X445049Y115825D01*
X444976Y115865D01*
X444810Y115938D01*
X444716Y115965D01*
X444623Y115985D01*
X444523Y115998D01*
X444417Y116005D01*
D02*
G37*
G36*
X365090Y114727D02*
X362491Y107614D01*
X367739D01*
X365090Y114727D01*
D02*
G37*
%LPD*%
D10*
X346161Y486811D02*
G03*
X346161Y486811I-492J0D01*
G01*
X471992Y126654D02*
G03*
X471992Y126654I-492J0D01*
G01*
D11*
X389500Y182000D02*
G03*
X389500Y182000I-500J0D01*
G01*
X304000Y147343D02*
X304787Y146555D01*
X325260D01*
X304000Y147343D02*
Y148524D01*
X326047Y147343D02*
Y148524D01*
X325260Y146555D02*
X326047Y147343D01*
X375892Y283465D02*
Y287463D01*
Y285464D01*
X381890D01*
Y292462D02*
Y290462D01*
X380890Y289463D01*
X378891D01*
X377891Y290462D01*
Y292462D01*
X378891Y293461D01*
X379890D01*
Y289463D01*
X381890Y298460D02*
Y296460D01*
X380890Y295461D01*
X378891D01*
X377891Y296460D01*
Y298460D01*
X378891Y299459D01*
X379890D01*
Y295461D01*
X381890Y301459D02*
X377891D01*
Y304458D01*
X378891Y305457D01*
X381890D01*
Y307457D02*
Y310456D01*
X380890Y311455D01*
X379890Y310456D01*
Y308456D01*
X378891Y307457D01*
X377891Y308456D01*
Y311455D01*
Y313455D02*
X380890D01*
X381890Y314455D01*
Y317454D01*
X382889D01*
X383889Y316454D01*
Y315454D01*
X381890Y317454D02*
X377891D01*
X376891Y325451D02*
X375892Y326451D01*
Y328450D01*
X376891Y329450D01*
X377891D01*
X378891Y328450D01*
Y327450D01*
Y328450D01*
X379890Y329450D01*
X380890D01*
X381890Y328450D01*
Y326451D01*
X380890Y325451D01*
X381890Y331449D02*
X380890D01*
Y332449D01*
X381890D01*
Y331449D01*
X375892Y340446D02*
X376891Y338447D01*
X378891Y336447D01*
X380890D01*
X381890Y337447D01*
Y339446D01*
X380890Y340446D01*
X379890D01*
X378891Y339446D01*
Y336447D01*
X514764Y225486D02*
X518762D01*
X516763D01*
Y219488D01*
X520762Y225486D02*
X524760Y219488D01*
Y225486D02*
X520762Y219488D01*
X514764Y230315D02*
Y236313D01*
X517763D01*
X518762Y235313D01*
Y233314D01*
X517763Y232314D01*
X514764D01*
X516763D02*
X518762Y230315D01*
X520762Y236313D02*
X524760Y230315D01*
Y236313D02*
X520762Y230315D01*
X518762Y214644D02*
X517763Y215644D01*
X515764D01*
X514764Y214644D01*
Y210645D01*
X515764Y209646D01*
X517763D01*
X518762Y210645D01*
Y212645D01*
X516763D01*
X520762Y209646D02*
Y215644D01*
X524760Y209646D01*
Y215644D01*
X526760D02*
Y209646D01*
X529759D01*
X530759Y210645D01*
Y214644D01*
X529759Y215644D01*
X526760D01*
X284510Y199880D02*
X283511Y200880D01*
X281511D01*
X280512Y199880D01*
Y195882D01*
X281511Y194882D01*
X283511D01*
X284510Y195882D01*
Y197881D01*
X282511D01*
X286510Y194882D02*
Y200880D01*
X290509Y194882D01*
Y200880D01*
X292508D02*
Y194882D01*
X295507D01*
X296507Y195882D01*
Y199880D01*
X295507Y200880D01*
X292508D01*
X286417Y214567D02*
Y220565D01*
X289416D01*
X290416Y219565D01*
Y217566D01*
X289416Y216566D01*
X286417D01*
X288417D02*
X290416Y214567D01*
X292415Y220565D02*
X296414Y214567D01*
Y220565D02*
X292415Y214567D01*
X286417Y210722D02*
X290416D01*
X288417D01*
Y204724D01*
X292415Y210722D02*
X296414Y204724D01*
Y210722D02*
X292415Y204724D01*
X327756Y199880D02*
X331088D01*
X329422D01*
Y194882D01*
X332754Y199880D02*
X336087Y194882D01*
Y199880D02*
X332754Y194882D01*
X327756Y204724D02*
Y209723D01*
X330255D01*
X331088Y208890D01*
Y207224D01*
X330255Y206391D01*
X327756D01*
X329422D02*
X331088Y204724D01*
X332754Y209723D02*
X336087Y204724D01*
Y209723D02*
X332754Y204724D01*
X331088Y218732D02*
X330255Y219565D01*
X328589D01*
X327756Y218732D01*
Y215400D01*
X328589Y214567D01*
X330255D01*
X331088Y215400D01*
X335254Y219565D02*
X333587D01*
X332754Y218732D01*
Y215400D01*
X333587Y214567D01*
X335254D01*
X336087Y215400D01*
Y218732D01*
X335254Y219565D01*
X337753Y214567D02*
Y219565D01*
X339419Y217899D01*
X341085Y219565D01*
Y214567D01*
X331088Y228575D02*
X330255Y229408D01*
X328589D01*
X327756Y228575D01*
Y225242D01*
X328589Y224410D01*
X330255D01*
X331088Y225242D01*
X332754Y229408D02*
Y224410D01*
Y226909D01*
X336087D01*
Y229408D01*
Y224410D01*
X340252Y229408D02*
X338586D01*
X337753Y228575D01*
Y225242D01*
X338586Y224410D01*
X340252D01*
X341085Y225242D01*
Y228575D01*
X340252Y229408D01*
X331088Y239250D02*
X327756D01*
Y234252D01*
X331088D01*
X327756Y236751D02*
X329422D01*
X332754Y234252D02*
Y239250D01*
X336087Y234252D01*
Y239250D01*
X331088Y248260D02*
X330255Y249093D01*
X328589D01*
X327756Y248260D01*
Y247427D01*
X328589Y246594D01*
X330255D01*
X331088Y245761D01*
Y244928D01*
X330255Y244094D01*
X328589D01*
X327756Y244928D01*
X332754Y249093D02*
X336087D01*
X334420D01*
Y244094D01*
X337753D02*
Y249093D01*
X340252D01*
X341085Y248260D01*
Y246594D01*
X340252Y245761D01*
X337753D01*
X327756Y259920D02*
Y254921D01*
X330255D01*
X331088Y255754D01*
Y259087D01*
X330255Y259920D01*
X327756D01*
X332754D02*
X334420D01*
X333587D01*
Y254921D01*
X332754D01*
X334420D01*
X336920D02*
Y259920D01*
X339419D01*
X340252Y259087D01*
Y257420D01*
X339419Y256587D01*
X336920D01*
X338586D02*
X340252Y254921D01*
X327756Y269762D02*
Y266430D01*
X329422Y264764D01*
X331088Y266430D01*
Y269762D01*
X332754D02*
Y264764D01*
X335254D01*
X336087Y265597D01*
Y268929D01*
X335254Y269762D01*
X332754D01*
X337753D02*
Y264764D01*
X340252D01*
X341085Y265597D01*
Y268929D01*
X340252Y269762D01*
X337753D01*
X331088Y278772D02*
X330255Y279605D01*
X328589D01*
X327756Y278772D01*
Y275439D01*
X328589Y274606D01*
X330255D01*
X331088Y275439D01*
Y277105D01*
X329422D01*
X332754Y274606D02*
Y279605D01*
X336087Y274606D01*
Y279605D01*
X337753D02*
Y274606D01*
X340252D01*
X341085Y275439D01*
Y278772D01*
X340252Y279605D01*
X337753D01*
X523881Y321534D02*
X522881Y322533D01*
X520882D01*
X519882Y321534D01*
Y320534D01*
X520882Y319534D01*
X522881D01*
X523881Y318535D01*
Y317535D01*
X522881Y316535D01*
X520882D01*
X519882Y317535D01*
X525880Y322533D02*
X527879D01*
X526880D01*
Y316535D01*
X525880D01*
X527879D01*
X534877Y321534D02*
X533877Y322533D01*
X531878D01*
X530878Y321534D01*
Y317535D01*
X531878Y316535D01*
X533877D01*
X534877Y317535D01*
Y319534D01*
X532878D01*
X519685Y332065D02*
X520685Y333065D01*
X522684D01*
X523684Y332065D01*
Y331066D01*
X522684Y330066D01*
X521684D01*
X522684D01*
X523684Y329066D01*
Y328067D01*
X522684Y327067D01*
X520685D01*
X519685Y328067D01*
X525683Y333065D02*
Y329066D01*
X527682Y327067D01*
X529682Y329066D01*
Y333065D01*
X531681Y332065D02*
X532681Y333065D01*
X534680D01*
X535680Y332065D01*
Y331066D01*
X534680Y330066D01*
X533680D01*
X534680D01*
X535680Y329066D01*
Y328067D01*
X534680Y327067D01*
X532681D01*
X531681Y328067D01*
X523979Y342006D02*
X522979Y343006D01*
X520980D01*
X519980Y342006D01*
Y338007D01*
X520980Y337008D01*
X522979D01*
X523979Y338007D01*
Y340007D01*
X521980D01*
X525978Y337008D02*
Y343006D01*
X529977Y337008D01*
Y343006D01*
X531976D02*
Y337008D01*
X534975D01*
X535975Y338007D01*
Y342006D01*
X534975Y343006D01*
X531976D01*
X524668Y466613D02*
X523668Y467612D01*
X521669D01*
X520669Y466613D01*
Y465613D01*
X521669Y464613D01*
X523668D01*
X524668Y463614D01*
Y462614D01*
X523668Y461614D01*
X521669D01*
X520669Y462614D01*
X526667Y467612D02*
X528667D01*
X527667D01*
Y461614D01*
X526667D01*
X528667D01*
X535664Y466613D02*
X534665Y467612D01*
X532665D01*
X531666Y466613D01*
Y462614D01*
X532665Y461614D01*
X534665D01*
X535664Y462614D01*
Y464613D01*
X533665D01*
X524668Y477439D02*
X523668Y478439D01*
X521669D01*
X520669Y477439D01*
Y473441D01*
X521669Y472441D01*
X523668D01*
X524668Y473441D01*
Y475440D01*
X522669D01*
X526667Y472441D02*
Y478439D01*
X530666Y472441D01*
Y478439D01*
X532665D02*
Y472441D01*
X535664D01*
X536664Y473441D01*
Y477439D01*
X535664Y478439D01*
X532665D01*
X525652Y411494D02*
X524653Y412494D01*
X522653D01*
X521654Y411494D01*
Y407496D01*
X522653Y406496D01*
X524653D01*
X525652Y407496D01*
Y409495D01*
X523653D01*
X527652Y406496D02*
Y412494D01*
X531650Y406496D01*
Y412494D01*
X533650D02*
Y406496D01*
X536649D01*
X537648Y407496D01*
Y411494D01*
X536649Y412494D01*
X533650D01*
X525652Y417323D02*
X521654D01*
X525652Y421321D01*
Y422321D01*
X524653Y423321D01*
X522653D01*
X521654Y422321D01*
X530651Y417323D02*
Y423321D01*
X527652Y420322D01*
X531650D01*
X533650Y423321D02*
Y419322D01*
X535649Y417323D01*
X537648Y419322D01*
Y423321D01*
X340551Y475723D02*
Y469724D01*
X343550D01*
X344550Y470724D01*
Y474723D01*
X343550Y475723D01*
X340551D01*
X346549Y469724D02*
X348549D01*
X347549D01*
Y475723D01*
X346549Y474723D01*
X300984Y99961D02*
X294986D01*
Y102960D01*
X295986Y103959D01*
X297985D01*
X298985Y102960D01*
Y99961D01*
X294986Y109957D02*
Y105959D01*
X297985D01*
X296986Y107958D01*
Y108958D01*
X297985Y109957D01*
X299985D01*
X300984Y108958D01*
Y106958D01*
X299985Y105959D01*
X304134Y184148D02*
Y179149D01*
X305134Y178150D01*
X307133D01*
X308133Y179149D01*
Y184148D01*
X310132Y178150D02*
X312131D01*
X311132D01*
Y184148D01*
X310132Y183148D01*
X301181Y171260D02*
X295183D01*
Y174259D01*
X296183Y175259D01*
X298182D01*
X299182Y174259D01*
Y171260D01*
Y173259D02*
X301181Y175259D01*
Y177258D02*
Y179257D01*
Y178258D01*
X295183D01*
X296183Y177258D01*
X511299Y392700D02*
Y396698D01*
X510299Y397698D01*
X508300D01*
X507300Y396698D01*
Y392700D01*
X508300Y391700D01*
X510299D01*
X509299Y393699D02*
X511299Y391700D01*
X510299D02*
X511299Y392700D01*
X516297Y391700D02*
Y397698D01*
X513298Y394699D01*
X517297D01*
X486299Y392700D02*
Y396698D01*
X485299Y397698D01*
X483300D01*
X482300Y396698D01*
Y392700D01*
X483300Y391700D01*
X485299D01*
X484299Y393699D02*
X486299Y391700D01*
X485299D02*
X486299Y392700D01*
X488298Y396698D02*
X489298Y397698D01*
X491297D01*
X492297Y396698D01*
Y395699D01*
X491297Y394699D01*
X490297D01*
X491297D01*
X492297Y393699D01*
Y392700D01*
X491297Y391700D01*
X489298D01*
X488298Y392700D01*
X461299D02*
Y396698D01*
X460299Y397698D01*
X458300D01*
X457300Y396698D01*
Y392700D01*
X458300Y391700D01*
X460299D01*
X459299Y393699D02*
X461299Y391700D01*
X460299D02*
X461299Y392700D01*
X467297Y391700D02*
X463298D01*
X467297Y395699D01*
Y396698D01*
X466297Y397698D01*
X464298D01*
X463298Y396698D01*
X436299Y392700D02*
Y396698D01*
X435299Y397698D01*
X433300D01*
X432300Y396698D01*
Y392700D01*
X433300Y391700D01*
X435299D01*
X434299Y393699D02*
X436299Y391700D01*
X435299D02*
X436299Y392700D01*
X438298Y391700D02*
X440297D01*
X439298D01*
Y397698D01*
X438298Y396698D01*
X290354Y178150D02*
X284356D01*
Y181149D01*
X285356Y182148D01*
X287355D01*
X288355Y181149D01*
Y178150D01*
X290354Y184148D02*
Y186147D01*
Y185147D01*
X284356D01*
X285356Y184148D01*
X467000Y143998D02*
Y138000D01*
X469999D01*
X470999Y139000D01*
Y142998D01*
X469999Y143998D01*
X467000D01*
X476997Y138000D02*
X472998D01*
X476997Y141999D01*
Y142998D01*
X475997Y143998D01*
X473998D01*
X472998Y142998D01*
X386500Y192998D02*
Y188000D01*
X387500Y187000D01*
X389499D01*
X390499Y188000D01*
Y192998D01*
X392498Y191998D02*
X393498Y192998D01*
X395497D01*
X396497Y191998D01*
Y190999D01*
X395497Y189999D01*
X394497D01*
X395497D01*
X396497Y188999D01*
Y188000D01*
X395497Y187000D01*
X393498D01*
X392498Y188000D01*
X432500Y450000D02*
Y455998D01*
X435499D01*
X436499Y454998D01*
Y452999D01*
X435499Y451999D01*
X432500D01*
X438498Y450000D02*
X440497D01*
X439498D01*
Y455998D01*
X438498Y454998D01*
X447495Y450000D02*
X443496D01*
X447495Y453999D01*
Y454998D01*
X446495Y455998D01*
X444496D01*
X443496Y454998D01*
X370472Y446549D02*
Y441551D01*
X371472Y440551D01*
X373471D01*
X374471Y441551D01*
Y446549D01*
X380469Y440551D02*
X376470D01*
X380469Y444550D01*
Y445550D01*
X379469Y446549D01*
X377470D01*
X376470Y445550D01*
X501500Y154500D02*
X507498D01*
Y151501D01*
X506498Y150501D01*
X504499D01*
X503499Y151501D01*
Y154500D01*
Y152501D02*
X501500Y150501D01*
X507498Y144503D02*
Y148502D01*
X504499D01*
X505499Y146503D01*
Y145503D01*
X504499Y144503D01*
X502500D01*
X501500Y145503D01*
Y147502D01*
X502500Y148502D01*
X491500Y174500D02*
Y180498D01*
X494499D01*
X495499Y179498D01*
Y177499D01*
X494499Y176499D01*
X491500D01*
X493499D02*
X495499Y174500D01*
X501497Y180498D02*
X499497Y179498D01*
X497498Y177499D01*
Y175500D01*
X498498Y174500D01*
X500497D01*
X501497Y175500D01*
Y176499D01*
X500497Y177499D01*
X497498D01*
X506500Y197000D02*
Y202998D01*
X509499D01*
X510499Y201998D01*
Y199999D01*
X509499Y198999D01*
X506500D01*
X508499D02*
X510499Y197000D01*
X512498Y202998D02*
X516497D01*
Y201998D01*
X512498Y198000D01*
Y197000D01*
X417000Y124500D02*
Y130498D01*
X419999D01*
X420999Y129498D01*
Y127499D01*
X419999Y126499D01*
X417000D01*
X418999D02*
X420999Y124500D01*
X422998Y129498D02*
X423998Y130498D01*
X425997D01*
X426997Y129498D01*
Y128499D01*
X425997Y127499D01*
X424997D01*
X425997D01*
X426997Y126499D01*
Y125500D01*
X425997Y124500D01*
X423998D01*
X422998Y125500D01*
X417000Y139000D02*
Y144998D01*
X419999D01*
X420999Y143998D01*
Y141999D01*
X419999Y140999D01*
X417000D01*
X418999D02*
X420999Y139000D01*
X425997D02*
Y144998D01*
X422998Y141999D01*
X426997D01*
X383400Y146300D02*
Y152298D01*
X386399D01*
X387399Y151298D01*
Y149299D01*
X386399Y148299D01*
X383400D01*
X385399D02*
X387399Y146300D01*
X393397D02*
X389398D01*
X393397Y150299D01*
Y151298D01*
X392397Y152298D01*
X390398D01*
X389398Y151298D01*
X508100Y349400D02*
Y355398D01*
X511099D01*
X512099Y354398D01*
Y352399D01*
X511099Y351399D01*
X508100D01*
X518097Y349400D02*
X514098D01*
X518097Y353399D01*
Y354398D01*
X517097Y355398D01*
X515098D01*
X514098Y354398D01*
X523095Y349400D02*
Y355398D01*
X520096Y352399D01*
X524095D01*
X483100Y349400D02*
Y355398D01*
X486099D01*
X487099Y354398D01*
Y352399D01*
X486099Y351399D01*
X483100D01*
X489098Y349400D02*
X491097D01*
X490098D01*
Y355398D01*
X489098Y354398D01*
X494096Y350400D02*
X495096Y349400D01*
X497095D01*
X498095Y350400D01*
Y354398D01*
X497095Y355398D01*
X495096D01*
X494096Y354398D01*
Y353399D01*
X495096Y352399D01*
X498095D01*
X458100Y349400D02*
Y355398D01*
X461099D01*
X462099Y354398D01*
Y352399D01*
X461099Y351399D01*
X458100D01*
X464098Y349400D02*
X466097D01*
X465098D01*
Y355398D01*
X464098Y354398D01*
X473095Y355398D02*
X469096D01*
Y352399D01*
X471096Y353399D01*
X472095D01*
X473095Y352399D01*
Y350400D01*
X472095Y349400D01*
X470096D01*
X469096Y350400D01*
X433100Y349400D02*
Y355398D01*
X436099D01*
X437099Y354398D01*
Y352399D01*
X436099Y351399D01*
X433100D01*
X439098Y349400D02*
X441097D01*
X440098D01*
Y355398D01*
X439098Y354398D01*
X444096D02*
X445096Y355398D01*
X447095D01*
X448095Y354398D01*
Y350400D01*
X447095Y349400D01*
X445096D01*
X444096Y350400D01*
Y354398D01*
X508100Y484400D02*
Y490398D01*
X511099D01*
X512099Y489398D01*
Y487399D01*
X511099Y486399D01*
X508100D01*
X518097Y484400D02*
X514098D01*
X518097Y488399D01*
Y489398D01*
X517097Y490398D01*
X515098D01*
X514098Y489398D01*
X524095Y490398D02*
X522095Y489398D01*
X520096Y487399D01*
Y485400D01*
X521096Y484400D01*
X523095D01*
X524095Y485400D01*
Y486399D01*
X523095Y487399D01*
X520096D01*
X477500Y485000D02*
Y490998D01*
X480499D01*
X481499Y489998D01*
Y487999D01*
X480499Y486999D01*
X477500D01*
X483498Y485000D02*
X485497D01*
X484498D01*
Y490998D01*
X483498Y489998D01*
X488496D02*
X489496Y490998D01*
X491496D01*
X492495Y489998D01*
Y488999D01*
X491496Y487999D01*
X492495Y486999D01*
Y486000D01*
X491496Y485000D01*
X489496D01*
X488496Y486000D01*
Y486999D01*
X489496Y487999D01*
X488496Y488999D01*
Y489998D01*
X489496Y487999D02*
X491496D01*
X492500Y450000D02*
Y455998D01*
X495499D01*
X496499Y454998D01*
Y452999D01*
X495499Y451999D01*
X492500D01*
X502497Y450000D02*
X498498D01*
X502497Y453999D01*
Y454998D01*
X501497Y455998D01*
X499498D01*
X498498Y454998D01*
X508495Y450000D02*
X504496D01*
X508495Y453999D01*
Y454998D01*
X507495Y455998D01*
X505496D01*
X504496Y454998D01*
X447500Y485000D02*
Y490998D01*
X450499D01*
X451499Y489998D01*
Y487999D01*
X450499Y486999D01*
X447500D01*
X453498Y485000D02*
X455497D01*
X454498D01*
Y490998D01*
X453498Y489998D01*
X461495Y485000D02*
Y490998D01*
X458496Y487999D01*
X462495D01*
X462500Y450000D02*
Y455998D01*
X465499D01*
X466499Y454998D01*
Y452999D01*
X465499Y451999D01*
X462500D01*
X468498Y450000D02*
X470497D01*
X469498D01*
Y455998D01*
X468498Y454998D01*
X473496Y455998D02*
X477495D01*
Y454998D01*
X473496Y451000D01*
Y450000D01*
X507500Y427500D02*
Y433498D01*
X510499D01*
X511499Y432498D01*
Y430499D01*
X510499Y429499D01*
X507500D01*
X517497Y427500D02*
X513498D01*
X517497Y431499D01*
Y432498D01*
X516497Y433498D01*
X514498D01*
X513498Y432498D01*
X523495Y433498D02*
X519496D01*
Y430499D01*
X521495Y431499D01*
X522495D01*
X523495Y430499D01*
Y428500D01*
X522495Y427500D01*
X520496D01*
X519496Y428500D01*
X482500Y427500D02*
Y433498D01*
X485499D01*
X486499Y432498D01*
Y430499D01*
X485499Y429499D01*
X482500D01*
X492497Y427500D02*
X488498D01*
X492497Y431499D01*
Y432498D01*
X491497Y433498D01*
X489498D01*
X488498Y432498D01*
X494496D02*
X495496Y433498D01*
X497495D01*
X498495Y432498D01*
Y428500D01*
X497495Y427500D01*
X495496D01*
X494496Y428500D01*
Y432498D01*
X457500Y427500D02*
Y433498D01*
X460499D01*
X461499Y432498D01*
Y430499D01*
X460499Y429499D01*
X457500D01*
X463498Y427500D02*
X465497D01*
X464498D01*
Y433498D01*
X463498Y432498D01*
X472495Y433498D02*
X470496Y432498D01*
X468496Y430499D01*
Y428500D01*
X469496Y427500D01*
X471495D01*
X472495Y428500D01*
Y429499D01*
X471495Y430499D01*
X468496D01*
X432500Y427500D02*
Y433498D01*
X435499D01*
X436499Y432498D01*
Y430499D01*
X435499Y429499D01*
X432500D01*
X438498Y427500D02*
X440497D01*
X439498D01*
Y433498D01*
X438498Y432498D01*
X443496Y427500D02*
X445496D01*
X444496D01*
Y433498D01*
X443496Y432498D01*
X460000Y220850D02*
Y226848D01*
X462999D01*
X463999Y225848D01*
Y223849D01*
X462999Y222849D01*
X460000D01*
X465998Y220850D02*
X467997D01*
X466998D01*
Y226848D01*
X465998Y225848D01*
X470996D02*
X471996Y226848D01*
X473995D01*
X474995Y225848D01*
Y224849D01*
X473995Y223849D01*
X472996D01*
X473995D01*
X474995Y222849D01*
Y221850D01*
X473995Y220850D01*
X471996D01*
X470996Y221850D01*
X500000Y240158D02*
Y246156D01*
X502999D01*
X503999Y245156D01*
Y243157D01*
X502999Y242157D01*
X500000D01*
X509997Y240158D02*
X505998D01*
X509997Y244156D01*
Y245156D01*
X508997Y246156D01*
X506998D01*
X505998Y245156D01*
X511996D02*
X512996Y246156D01*
X514995D01*
X515995Y245156D01*
Y244156D01*
X514995Y243157D01*
X513996D01*
X514995D01*
X515995Y242157D01*
Y241157D01*
X514995Y240158D01*
X512996D01*
X511996Y241157D01*
X300197Y225394D02*
Y231392D01*
X303196D01*
X304196Y230392D01*
Y228393D01*
X303196Y227393D01*
X300197D01*
X310194Y225394D02*
X306195D01*
X310194Y229392D01*
Y230392D01*
X309194Y231392D01*
X307195D01*
X306195Y230392D01*
X287500Y410000D02*
Y415998D01*
X290499D01*
X291499Y414998D01*
Y412999D01*
X290499Y411999D01*
X287500D01*
X296497Y410000D02*
Y415998D01*
X293498Y412999D01*
X297497D01*
X287500Y307500D02*
Y313498D01*
X290499D01*
X291499Y312498D01*
Y310499D01*
X290499Y309499D01*
X287500D01*
X293498Y312498D02*
X294498Y313498D01*
X296497D01*
X297497Y312498D01*
Y311499D01*
X296497Y310499D01*
X295497D01*
X296497D01*
X297497Y309499D01*
Y308500D01*
X296497Y307500D01*
X294498D01*
X293498Y308500D01*
X445000Y248350D02*
Y254348D01*
X447999D01*
X448999Y253348D01*
Y251349D01*
X447999Y250349D01*
X445000D01*
X450998Y249350D02*
X451998Y248350D01*
X453997D01*
X454997Y249350D01*
Y253348D01*
X453997Y254348D01*
X451998D01*
X450998Y253348D01*
Y252349D01*
X451998Y251349D01*
X454997D01*
X500000Y250984D02*
Y256982D01*
X502999D01*
X503999Y255983D01*
Y253983D01*
X502999Y252984D01*
X500000D01*
X509997Y250984D02*
X505998D01*
X509997Y254983D01*
Y255983D01*
X508997Y256982D01*
X506998D01*
X505998Y255983D01*
X511996Y250984D02*
X513996D01*
X512996D01*
Y256982D01*
X511996Y255983D01*
X302500Y235000D02*
Y240998D01*
X305499D01*
X306499Y239998D01*
Y237999D01*
X305499Y236999D01*
X302500D01*
X312497Y240998D02*
X310497Y239998D01*
X308498Y237999D01*
Y236000D01*
X309498Y235000D01*
X311497D01*
X312497Y236000D01*
Y236999D01*
X311497Y237999D01*
X308498D01*
X302500Y440000D02*
Y445998D01*
X305499D01*
X306499Y444998D01*
Y442999D01*
X305499Y441999D01*
X302500D01*
X308498Y444998D02*
X309498Y445998D01*
X311497D01*
X312497Y444998D01*
Y443999D01*
X311497Y442999D01*
X312497Y441999D01*
Y441000D01*
X311497Y440000D01*
X309498D01*
X308498Y441000D01*
Y441999D01*
X309498Y442999D01*
X308498Y443999D01*
Y444998D01*
X309498Y442999D02*
X311497D01*
X302500Y337500D02*
Y343498D01*
X305499D01*
X306499Y342498D01*
Y340499D01*
X305499Y339499D01*
X302500D01*
X308498Y343498D02*
X312497D01*
Y342498D01*
X308498Y338500D01*
Y337500D01*
X446500Y200498D02*
Y194500D01*
X450499D01*
X452498D02*
X454497D01*
X453498D01*
Y200498D01*
X452498Y199498D01*
X485499Y201998D02*
X484499Y202998D01*
X482500D01*
X481500Y201998D01*
Y198000D01*
X482500Y197000D01*
X484499D01*
X485499Y198000D01*
X487498Y197000D02*
X489497D01*
X488498D01*
Y202998D01*
X487498Y201998D01*
X492496D02*
X493496Y202998D01*
X495496D01*
X496495Y201998D01*
Y200999D01*
X495496Y199999D01*
X494496D01*
X495496D01*
X496495Y198999D01*
Y198000D01*
X495496Y197000D01*
X493496D01*
X492496Y198000D01*
X466502Y188499D02*
X465502Y187499D01*
Y185500D01*
X466502Y184500D01*
X470500D01*
X471500Y185500D01*
Y187499D01*
X470500Y188499D01*
X471500Y190498D02*
Y192497D01*
Y191498D01*
X465502D01*
X466502Y190498D01*
X471500Y199495D02*
Y195496D01*
X467501Y199495D01*
X466502D01*
X465502Y198495D01*
Y196496D01*
X466502Y195496D01*
X520121Y192853D02*
X519121Y193852D01*
X517122D01*
X516122Y192853D01*
Y188854D01*
X517122Y187854D01*
X519121D01*
X520121Y188854D01*
X522120Y187854D02*
X524120D01*
X523120D01*
Y193852D01*
X522120Y192853D01*
X531117Y193852D02*
X527118D01*
Y190853D01*
X529118Y191853D01*
X530118D01*
X531117Y190853D01*
Y188854D01*
X530118Y187854D01*
X528118D01*
X527118Y188854D01*
X456499Y305848D02*
X455499Y306848D01*
X453500D01*
X452500Y305848D01*
Y301850D01*
X453500Y300850D01*
X455499D01*
X456499Y301850D01*
X458498Y300850D02*
X460497D01*
X459498D01*
Y306848D01*
X458498Y305848D01*
X463496D02*
X464496Y306848D01*
X466496D01*
X467495Y305848D01*
Y301850D01*
X466496Y300850D01*
X464496D01*
X463496Y301850D01*
Y305848D01*
X510999D02*
X509999Y306848D01*
X508000D01*
X507000Y305848D01*
Y301850D01*
X508000Y300850D01*
X509999D01*
X510999Y301850D01*
X512998Y300850D02*
X514997D01*
X513998D01*
Y306848D01*
X512998Y305848D01*
X520996Y300850D02*
Y306848D01*
X517996Y303849D01*
X521995D01*
X286499Y239998D02*
X285499Y240998D01*
X283500D01*
X282500Y239998D01*
Y236000D01*
X283500Y235000D01*
X285499D01*
X286499Y236000D01*
X288498Y235000D02*
X290497D01*
X289498D01*
Y240998D01*
X288498Y239998D01*
X286499Y444998D02*
X285499Y445998D01*
X283500D01*
X282500Y444998D01*
Y441000D01*
X283500Y440000D01*
X285499D01*
X286499Y441000D01*
X288498Y444998D02*
X289498Y445998D01*
X291497D01*
X292497Y444998D01*
Y443999D01*
X291497Y442999D01*
X290497D01*
X291497D01*
X292497Y441999D01*
Y441000D01*
X291497Y440000D01*
X289498D01*
X288498Y441000D01*
X286499Y342498D02*
X285499Y343498D01*
X283500D01*
X282500Y342498D01*
Y338500D01*
X283500Y337500D01*
X285499D01*
X286499Y338500D01*
X292497Y337500D02*
X288498D01*
X292497Y341499D01*
Y342498D01*
X291497Y343498D01*
X289498D01*
X288498Y342498D01*
X420499Y151998D02*
X419499Y152998D01*
X417500D01*
X416500Y151998D01*
Y148000D01*
X417500Y147000D01*
X419499D01*
X420499Y148000D01*
X422498Y151998D02*
X423498Y152998D01*
X425497D01*
X426497Y151998D01*
Y150999D01*
X425497Y149999D01*
X426497Y148999D01*
Y148000D01*
X425497Y147000D01*
X423498D01*
X422498Y148000D01*
Y148999D01*
X423498Y149999D01*
X422498Y150999D01*
Y151998D01*
X423498Y149999D02*
X425497D01*
X475499Y179498D02*
X474499Y180498D01*
X472500D01*
X471500Y179498D01*
Y175500D01*
X472500Y174500D01*
X474499D01*
X475499Y175500D01*
X477498Y174500D02*
X479497D01*
X478498D01*
Y180498D01*
X477498Y179498D01*
X482496Y174500D02*
X484496D01*
X483496D01*
Y180498D01*
X482496Y179498D01*
X408904Y196998D02*
X407905Y197998D01*
X405905D01*
X404906Y196998D01*
Y193000D01*
X405905Y192000D01*
X407905D01*
X408904Y193000D01*
X410904D02*
X411903Y192000D01*
X413903D01*
X414902Y193000D01*
Y196998D01*
X413903Y197998D01*
X411903D01*
X410904Y196998D01*
Y195999D01*
X411903Y194999D01*
X414902D01*
X377030Y189053D02*
X376030Y190053D01*
X374031D01*
X373031Y189053D01*
Y185055D01*
X374031Y184055D01*
X376030D01*
X377030Y185055D01*
X379030Y190053D02*
X383028D01*
Y189053D01*
X379030Y185055D01*
Y184055D01*
X362999Y196998D02*
X361999Y197998D01*
X360000D01*
X359000Y196998D01*
Y193000D01*
X360000Y192000D01*
X361999D01*
X362999Y193000D01*
X368997Y197998D02*
X366997Y196998D01*
X364998Y194999D01*
Y193000D01*
X365998Y192000D01*
X367997D01*
X368997Y193000D01*
Y193999D01*
X367997Y194999D01*
X364998D01*
X349471Y189053D02*
X348471Y190053D01*
X346472D01*
X345472Y189053D01*
Y185055D01*
X346472Y184055D01*
X348471D01*
X349471Y185055D01*
X355469Y190053D02*
X351470D01*
Y187054D01*
X353470Y188054D01*
X354469D01*
X355469Y187054D01*
Y185055D01*
X354469Y184055D01*
X352470D01*
X351470Y185055D01*
X385499Y129498D02*
X384499Y130498D01*
X382500D01*
X381500Y129498D01*
Y125500D01*
X382500Y124500D01*
X384499D01*
X385499Y125500D01*
X390497Y124500D02*
Y130498D01*
X387498Y127499D01*
X391497D01*
D12*
X508697Y373760D02*
G03*
X508697Y373760I-197J0D01*
G01*
X483697D02*
G03*
X483697Y373760I-197J0D01*
G01*
X458697D02*
G03*
X458697Y373760I-197J0D01*
G01*
X433697D02*
G03*
X433697Y373760I-197J0D01*
G01*
D13*
X356693Y485354D02*
X361209D01*
X356693Y459606D02*
Y485354D01*
Y459606D02*
X361209D01*
X432902Y185000D02*
Y190500D01*
X459902D01*
X432902Y163500D02*
X459902D01*
X432902D02*
Y169000D01*
X459902Y185000D02*
Y190500D01*
Y163500D02*
Y169000D01*
X304842Y99724D02*
X314843D01*
X304842D02*
Y119724D01*
X314843D01*
Y99724D02*
Y119724D01*
X429500Y207500D02*
X439500D01*
X429500D02*
Y297500D01*
X439500D01*
Y207500D02*
Y297500D01*
X455000Y207500D02*
Y237500D01*
X445000D02*
X455000D01*
X445000Y207500D02*
Y237500D01*
Y207500D02*
X455000D01*
X432500Y460000D02*
Y480000D01*
Y460000D02*
X442500D01*
Y480000D01*
X432500D02*
X442500D01*
X455961Y153858D02*
X460476D01*
Y128110D02*
Y153858D01*
X455961Y128110D02*
X460476D01*
X292500Y145000D02*
Y175000D01*
X282500D02*
X292500D01*
X282500Y145000D02*
Y175000D01*
Y145000D02*
X292500D01*
X511909Y378130D02*
X513091D01*
X506791Y384429D02*
X509350D01*
X506791Y381319D02*
Y384429D01*
X518209Y381319D02*
Y384429D01*
X515650D02*
X518209D01*
X486909Y378130D02*
X488091D01*
X481791Y384429D02*
X484350D01*
X481791Y381319D02*
Y384429D01*
X493209Y381319D02*
Y384429D01*
X490650D02*
X493209D01*
X461909Y378130D02*
X463091D01*
X456791Y384429D02*
X459350D01*
X456791Y381319D02*
Y384429D01*
X468209Y381319D02*
Y384429D01*
X465650D02*
X468209D01*
X436909Y378130D02*
X438091D01*
X431791Y384429D02*
X434350D01*
X431791Y381319D02*
Y384429D01*
X443209Y381319D02*
Y384429D01*
X440650D02*
X443209D01*
X494500Y207500D02*
Y297500D01*
X484500D02*
X494500D01*
X484500Y207500D02*
Y297500D01*
Y207500D02*
X494500D01*
X500000D02*
X510000D01*
X500000D02*
Y237500D01*
X510000D01*
Y207500D02*
Y237500D01*
X325000Y192500D02*
Y282500D01*
X315000D02*
X325000D01*
X315000Y192500D02*
Y282500D01*
Y192500D02*
X325000D01*
X300000D02*
X310000D01*
X300000D02*
Y222500D01*
X310000D01*
Y192500D02*
Y222500D01*
X325000Y295000D02*
Y385000D01*
X315000D02*
X325000D01*
X315000Y295000D02*
Y385000D01*
Y295000D02*
X325000D01*
X300000D02*
X310000D01*
X300000D02*
Y325000D01*
X310000D01*
Y295000D02*
Y325000D01*
X325000Y397500D02*
Y487500D01*
X315000D02*
X325000D01*
X315000Y397500D02*
Y487500D01*
Y397500D02*
X325000D01*
X300000D02*
X310000D01*
X300000D02*
Y427500D01*
X310000D01*
Y397500D02*
Y427500D01*
X517500Y315000D02*
Y345000D01*
X507500D02*
X517500D01*
X507500Y315000D02*
Y345000D01*
Y315000D02*
X517500D01*
X492500D02*
Y345000D01*
X482500D02*
X492500D01*
X482500Y315000D02*
Y345000D01*
Y315000D02*
X492500D01*
X467500D02*
Y345000D01*
X457500D02*
X467500D01*
X457500Y315000D02*
Y345000D01*
Y315000D02*
X467500D01*
X442500D02*
Y345000D01*
X432500D02*
X442500D01*
X432500Y315000D02*
Y345000D01*
Y315000D02*
X442500D01*
X507500Y425000D02*
X517500D01*
Y405000D02*
Y425000D01*
X507500Y405000D02*
X517500D01*
X507500D02*
Y425000D01*
X482500D02*
X492500D01*
Y405000D02*
Y425000D01*
X482500Y405000D02*
X492500D01*
X482500D02*
Y425000D01*
X457500D02*
X467500D01*
Y405000D02*
Y425000D01*
X457500Y405000D02*
X467500D01*
X457500D02*
Y425000D01*
X432500D02*
X442500D01*
Y405000D02*
Y425000D01*
X432500Y405000D02*
X442500D01*
X432500D02*
Y425000D01*
X507500Y480000D02*
X517500D01*
Y460000D02*
Y480000D01*
X507500Y460000D02*
X517500D01*
X507500D02*
Y480000D01*
X477500D02*
X487500D01*
Y460000D02*
Y480000D01*
X477500Y460000D02*
X487500D01*
X477500D02*
Y480000D01*
X492500D02*
X502500D01*
Y460000D02*
Y480000D01*
X492500Y460000D02*
X502500D01*
X492500D02*
Y480000D01*
X447500D02*
X457500D01*
Y460000D02*
Y480000D01*
X447500Y460000D02*
X457500D01*
X447500D02*
Y480000D01*
X462500D02*
X472500D01*
Y460000D02*
Y480000D01*
X462500Y460000D02*
X472500D01*
X462500D02*
Y480000D01*
D14*
X368810Y128100D02*
X377900D01*
X350100Y155900D02*
X359190D01*
X350100Y128100D02*
Y155900D01*
Y128100D02*
X359190D01*
X377900D02*
Y155900D01*
X368810D02*
X377900D01*
X281100Y378900D02*
X290190D01*
X299810Y351100D02*
X308900D01*
Y378900D01*
X299810D02*
X308900D01*
X281100Y351100D02*
Y378900D01*
Y351100D02*
X290190D01*
X281100Y481400D02*
X290190D01*
X299810Y453600D02*
X308900D01*
Y481400D01*
X299810D02*
X308900D01*
X281100Y453600D02*
Y481400D01*
Y453600D02*
X290190D01*
X281100Y276400D02*
X290190D01*
X299810Y248600D02*
X308900D01*
Y276400D01*
X299810D02*
X308900D01*
X281100Y248600D02*
Y276400D01*
Y248600D02*
X290190D01*
X500600Y292250D02*
X509690D01*
X519310Y264450D02*
X528400D01*
Y292250D01*
X519310D02*
X528400D01*
X500600Y264450D02*
Y292250D01*
Y264450D02*
X509690D01*
X446100Y292250D02*
X455190D01*
X464810Y264450D02*
X473900D01*
Y292250D01*
X464810D02*
X473900D01*
X446100Y264450D02*
Y292250D01*
Y264450D02*
X455190D01*
X528432Y151454D02*
X537522D01*
X509722Y179254D02*
X518812D01*
X509722Y151454D02*
Y179254D01*
Y151454D02*
X518812D01*
X537522D02*
Y179254D01*
X528432D02*
X537522D01*
X388150Y159200D02*
X404850D01*
X388150Y179800D02*
X404850D01*
M02*
