G04*
G04 #@! TF.GenerationSoftware,Altium Limited,Altium Designer,18.0.9 (584)*
G04*
G04 Layer_Color=16711935*
%FSLAX25Y25*%
%MOIN*%
G70*
G01*
G75*
%ADD11C,0.01000*%
%ADD12C,0.00394*%
%ADD54C,0.00000*%
%ADD55C,0.00100*%
D11*
X389500Y182000D02*
G03*
X389500Y182000I-500J0D01*
G01*
D12*
X356693Y459606D02*
Y485354D01*
X380689Y459606D02*
Y485354D01*
X356693D02*
X380689D01*
X356693Y459606D02*
X380689D01*
X433173Y163772D02*
Y190228D01*
X459630Y163772D02*
Y190228D01*
X433173D02*
X459630D01*
X433173Y163772D02*
X459630D01*
X486146Y193831D02*
X491854D01*
X486146Y185169D02*
X491854D01*
Y193831D01*
X486146Y185169D02*
Y193831D01*
X436480Y153858D02*
X460476D01*
X436480Y128110D02*
X460476D01*
X436480D02*
Y153858D01*
X460476Y128110D02*
Y153858D01*
X506791Y378130D02*
X518209D01*
X506791D02*
Y384429D01*
X518209D01*
Y378130D02*
Y384429D01*
X295571Y166535D02*
X300886D01*
X295571Y158268D02*
X300886D01*
Y166535D01*
X295571Y158268D02*
Y166535D01*
X481791Y378130D02*
X493209D01*
X481791D02*
Y384429D01*
X493209D01*
Y378130D02*
Y384429D01*
X456791Y378130D02*
X468209D01*
X456791D02*
Y384429D01*
X468209D01*
Y378130D02*
Y384429D01*
X431791Y378130D02*
X443209D01*
X431791D02*
Y384429D01*
X443209D01*
Y378130D02*
Y384429D01*
X498843Y185366D02*
Y193634D01*
X504157Y185366D02*
Y193634D01*
X498843Y185366D02*
X504157D01*
X498843Y193634D02*
X504157D01*
X499157Y145366D02*
Y153634D01*
X493843Y145366D02*
Y153634D01*
X499157D01*
X493843Y145366D02*
X499157D01*
X473646Y185169D02*
Y193831D01*
X479354Y185169D02*
Y193831D01*
X473646Y185169D02*
X479354D01*
X473646Y193831D02*
X479354D01*
Y162669D02*
Y171331D01*
X473646Y162669D02*
Y171331D01*
X479354D01*
X473646Y162669D02*
X479354D01*
X499157Y162866D02*
Y171134D01*
X493843Y162866D02*
Y171134D01*
X499157D01*
X493843Y162866D02*
X499157D01*
X405122Y189854D02*
X413784D01*
X405122Y184146D02*
X413784D01*
X405122D02*
Y189854D01*
X413784Y184146D02*
Y189854D01*
X393134Y136843D02*
Y142157D01*
X384866Y136843D02*
Y142157D01*
Y136843D02*
X393134D01*
X384866Y142157D02*
X393134D01*
X410634Y136843D02*
Y142157D01*
X402366Y136843D02*
Y142157D01*
Y136843D02*
X410634D01*
X402366Y142157D02*
X410634D01*
Y126843D02*
Y132157D01*
X402366Y126843D02*
Y132157D01*
Y126843D02*
X410634D01*
X402366Y132157D02*
X410634D01*
X371146Y178378D02*
X376854D01*
X371146Y169716D02*
X376854D01*
Y178378D01*
X371146Y169716D02*
Y178378D01*
X361146D02*
X366854D01*
X361146Y169716D02*
X366854D01*
Y178378D01*
X361146Y169716D02*
Y178378D01*
X351146D02*
X356854D01*
X351146Y169716D02*
X356854D01*
Y178378D01*
X351146Y169716D02*
Y178378D01*
X402169Y146646D02*
Y152354D01*
X410831Y146646D02*
Y152354D01*
X402169D02*
X410831D01*
X402169Y146646D02*
X410831D01*
D54*
X395300Y179300D02*
G03*
X397700Y179300I1200J0D01*
G01*
D55*
X370700Y155400D02*
X377400Y148700D01*
X350600D02*
X357300Y155400D01*
X350600Y128600D02*
Y155400D01*
Y128600D02*
X377400D01*
Y155400D01*
X350600D02*
X377400D01*
X281600Y358300D02*
X288300Y351600D01*
X301700D02*
X308400Y358300D01*
Y351600D02*
Y378400D01*
X281600D02*
X308400D01*
X281600Y351600D02*
Y378400D01*
Y351600D02*
X308400D01*
X281600Y460800D02*
X288300Y454100D01*
X301700D02*
X308400Y460800D01*
Y454100D02*
Y480900D01*
X281600D02*
X308400D01*
X281600Y454100D02*
Y480900D01*
Y454100D02*
X308400D01*
X281600Y255800D02*
X288300Y249100D01*
X301700D02*
X308400Y255800D01*
Y249100D02*
Y275900D01*
X281600D02*
X308400D01*
X281600Y249100D02*
Y275900D01*
Y249100D02*
X308400D01*
X501100Y271650D02*
X507800Y264950D01*
X521200D02*
X527900Y271650D01*
Y264950D02*
Y291750D01*
X501100D02*
X527900D01*
X501100Y264950D02*
Y291750D01*
Y264950D02*
X527900D01*
X446600Y271650D02*
X453300Y264950D01*
X466700D02*
X473400Y271650D01*
Y264950D02*
Y291750D01*
X446600D02*
X473400D01*
X446600Y264950D02*
Y291750D01*
Y264950D02*
X473400D01*
X530322Y178754D02*
X537022Y172054D01*
X510222D02*
X516922Y178754D01*
X510222Y151954D02*
Y178754D01*
Y151954D02*
X537022D01*
Y178754D01*
X510222D02*
X537022D01*
X388650Y176050D02*
Y177950D01*
X384300D02*
X388650D01*
X384300Y176050D02*
Y177950D01*
Y176050D02*
X388650D01*
Y171050D02*
Y172950D01*
X384300D02*
X388650D01*
X384300Y171050D02*
Y172950D01*
Y171050D02*
X388650D01*
Y166050D02*
Y167950D01*
X384300D02*
X388650D01*
X384300Y166050D02*
Y167950D01*
Y166050D02*
X388650D01*
Y161050D02*
Y162950D01*
X384300D02*
X388650D01*
X384300Y161050D02*
Y162950D01*
Y161050D02*
X388650D01*
X404350D02*
Y162950D01*
Y161050D02*
X408700D01*
Y162950D01*
X404350D02*
X408700D01*
X404350Y166050D02*
Y167950D01*
Y166050D02*
X408700D01*
Y167950D01*
X404350D02*
X408700D01*
X404350Y171050D02*
Y172950D01*
Y171050D02*
X408700D01*
Y172950D01*
X404350D02*
X408700D01*
X404350Y176050D02*
Y177950D01*
Y176050D02*
X408700D01*
Y177950D01*
X404350D02*
X408700D01*
X388650Y159700D02*
X404350D01*
Y179300D01*
X388650D02*
X404350D01*
X388650Y159700D02*
Y179300D01*
M02*
