G04*
G04 #@! TF.GenerationSoftware,Altium Limited,Altium Designer,18.0.9 (584)*
G04*
G04 Layer_Color=16711935*
%FSLAX25Y25*%
%MOIN*%
G70*
G01*
G75*
%ADD27C,0.06800*%
%ADD28R,0.06706X0.06706*%
%ADD29C,0.06706*%
%ADD30C,0.20485*%
%ADD31C,0.05800*%
D27*
X347500Y312500D02*
D03*
Y322500D02*
D03*
Y332500D02*
D03*
Y342500D02*
D03*
Y352500D02*
D03*
Y362500D02*
D03*
Y372500D02*
D03*
Y382500D02*
D03*
Y392500D02*
D03*
Y402500D02*
D03*
Y412500D02*
D03*
Y422500D02*
D03*
Y432500D02*
D03*
Y442500D02*
D03*
Y302500D02*
D03*
Y292500D02*
D03*
Y282500D02*
D03*
Y272500D02*
D03*
Y262500D02*
D03*
Y252500D02*
D03*
Y242500D02*
D03*
Y232500D02*
D03*
Y222500D02*
D03*
Y212500D02*
D03*
X407500D02*
D03*
Y222500D02*
D03*
Y232500D02*
D03*
Y242500D02*
D03*
Y252500D02*
D03*
Y262500D02*
D03*
Y272500D02*
D03*
Y282500D02*
D03*
Y292500D02*
D03*
Y302500D02*
D03*
Y312500D02*
D03*
Y322500D02*
D03*
Y332500D02*
D03*
Y342500D02*
D03*
Y352500D02*
D03*
Y362500D02*
D03*
Y372500D02*
D03*
Y382500D02*
D03*
Y392500D02*
D03*
Y402500D02*
D03*
Y412500D02*
D03*
Y422500D02*
D03*
Y432500D02*
D03*
Y442500D02*
D03*
X357500Y262500D02*
D03*
X367500D02*
D03*
X377500D02*
D03*
X387500D02*
D03*
X397500D02*
D03*
X357500Y292500D02*
D03*
Y282500D02*
D03*
Y272500D02*
D03*
Y252500D02*
D03*
Y242500D02*
D03*
Y232500D02*
D03*
Y222500D02*
D03*
Y212500D02*
D03*
X397500D02*
D03*
Y222500D02*
D03*
Y232500D02*
D03*
Y242500D02*
D03*
Y252500D02*
D03*
Y272500D02*
D03*
Y282500D02*
D03*
Y292500D02*
D03*
Y352500D02*
D03*
Y362500D02*
D03*
Y372500D02*
D03*
Y382500D02*
D03*
Y392500D02*
D03*
Y402500D02*
D03*
Y412500D02*
D03*
Y432500D02*
D03*
X351500Y124500D02*
D03*
X295000Y440000D02*
D03*
D28*
X309842Y114724D02*
D03*
X434500Y292500D02*
D03*
X450000Y212500D02*
D03*
X437500Y465000D02*
D03*
X287500Y150000D02*
D03*
X489500Y292500D02*
D03*
X505000Y212500D02*
D03*
X320000Y277500D02*
D03*
X305000Y197500D02*
D03*
X320000Y380000D02*
D03*
X305000Y300000D02*
D03*
X320000Y482500D02*
D03*
X305000Y402500D02*
D03*
X512500Y320000D02*
D03*
X487500D02*
D03*
X462500D02*
D03*
X437500D02*
D03*
X512500Y410000D02*
D03*
X487500D02*
D03*
X462500D02*
D03*
X437500D02*
D03*
X512500Y465000D02*
D03*
X482500D02*
D03*
X497500D02*
D03*
X452500D02*
D03*
X467500D02*
D03*
D29*
X309842Y104724D02*
D03*
X434500Y272500D02*
D03*
Y262500D02*
D03*
Y252500D02*
D03*
Y242500D02*
D03*
Y232500D02*
D03*
Y222500D02*
D03*
Y212500D02*
D03*
Y282500D02*
D03*
X450000Y222500D02*
D03*
Y232500D02*
D03*
X437500Y475000D02*
D03*
X287500Y160000D02*
D03*
Y170000D02*
D03*
X489500Y282500D02*
D03*
Y212500D02*
D03*
Y222500D02*
D03*
Y232500D02*
D03*
Y242500D02*
D03*
Y252500D02*
D03*
Y262500D02*
D03*
Y272500D02*
D03*
X505000Y232500D02*
D03*
Y222500D02*
D03*
X320000Y267500D02*
D03*
Y197500D02*
D03*
Y207500D02*
D03*
Y217500D02*
D03*
Y227500D02*
D03*
Y237500D02*
D03*
Y247500D02*
D03*
Y257500D02*
D03*
X305000Y217500D02*
D03*
Y207500D02*
D03*
X320000Y370000D02*
D03*
Y300000D02*
D03*
Y310000D02*
D03*
Y320000D02*
D03*
Y330000D02*
D03*
Y340000D02*
D03*
Y350000D02*
D03*
Y360000D02*
D03*
X305000Y320000D02*
D03*
Y310000D02*
D03*
X320000Y472500D02*
D03*
Y402500D02*
D03*
Y412500D02*
D03*
Y422500D02*
D03*
Y432500D02*
D03*
Y442500D02*
D03*
Y452500D02*
D03*
Y462500D02*
D03*
X305000Y422500D02*
D03*
Y412500D02*
D03*
X512500Y330000D02*
D03*
Y340000D02*
D03*
X487500Y330000D02*
D03*
Y340000D02*
D03*
X462500Y330000D02*
D03*
Y340000D02*
D03*
X437500Y330000D02*
D03*
Y340000D02*
D03*
X512500Y420000D02*
D03*
X487500D02*
D03*
X462500D02*
D03*
X437500D02*
D03*
X512500Y475000D02*
D03*
X482500D02*
D03*
X497500D02*
D03*
X452500D02*
D03*
X467500D02*
D03*
D30*
X511811Y125984D02*
D03*
X410000Y480000D02*
D03*
X338583Y110236D02*
D03*
D31*
X523622Y200787D02*
D03*
X515748Y141732D02*
D03*
X475394Y376969D02*
D03*
X511811Y369094D02*
D03*
X500000Y376969D02*
D03*
X449803D02*
D03*
X475394Y389764D02*
D03*
X314961Y127953D02*
D03*
X386400Y155400D02*
D03*
X335000Y350000D02*
D03*
X396500Y129500D02*
D03*
X486500Y164500D02*
D03*
Y139500D02*
D03*
X419000Y134500D02*
D03*
X364000Y184500D02*
D03*
X396500Y172000D02*
D03*
X295000Y340000D02*
D03*
Y237500D02*
D03*
M02*
