G04*
G04 #@! TF.GenerationSoftware,Altium Limited,Altium Designer,18.0.9 (584)*
G04*
G04 Layer_Physical_Order=2*
G04 Layer_Color=16711680*
%FSLAX25Y25*%
%MOIN*%
G70*
G01*
G75*
%ADD11C,0.01000*%
%ADD42C,0.04000*%
%ADD43C,0.06000*%
%ADD44C,0.02000*%
%ADD46C,0.01500*%
%ADD48C,0.06000*%
%ADD49R,0.05906X0.05906*%
%ADD50C,0.05906*%
%ADD51C,0.19685*%
%ADD52C,0.05000*%
G36*
X534376Y498728D02*
X536240Y498229D01*
X538024Y497490D01*
X539696Y496524D01*
X541228Y495349D01*
X542593Y493984D01*
X543769Y492452D01*
X544734Y490780D01*
X545473Y488996D01*
X545972Y487132D01*
X546225Y485217D01*
Y484252D01*
Y106299D01*
Y105334D01*
X545972Y103420D01*
X545473Y101555D01*
X544734Y99771D01*
X543769Y98099D01*
X542593Y96567D01*
X541228Y95202D01*
X539696Y94027D01*
X538024Y93061D01*
X536240Y92322D01*
X534376Y91823D01*
X532461Y91571D01*
X282499D01*
X280585Y91823D01*
X278720Y92322D01*
X276936Y93061D01*
X275264Y94027D01*
X273732Y95202D01*
X272367Y96567D01*
X271192Y98099D01*
X270227Y99771D01*
X269488Y101555D01*
X268988Y103420D01*
X268736Y105334D01*
Y106299D01*
Y484252D01*
Y485217D01*
X268988Y487132D01*
X269488Y488996D01*
X270227Y490780D01*
X271192Y492452D01*
X272367Y493984D01*
X273732Y495349D01*
X275264Y496524D01*
X276936Y497490D01*
X278720Y498229D01*
X280585Y498728D01*
X282499Y498981D01*
X532461D01*
X534376Y498728D01*
D02*
G37*
%LPC*%
G36*
X323953Y486453D02*
X320500D01*
Y483000D01*
X323953D01*
Y486453D01*
D02*
G37*
G36*
X319500D02*
X316047D01*
Y483000D01*
X319500D01*
Y486453D01*
D02*
G37*
G36*
X323953Y482000D02*
X320500D01*
Y478547D01*
X323953D01*
Y482000D01*
D02*
G37*
G36*
X319500D02*
X316047D01*
Y478547D01*
X319500D01*
Y482000D01*
D02*
G37*
G36*
X513000Y478921D02*
Y475500D01*
X516421D01*
X516351Y476032D01*
X515953Y476993D01*
X515319Y477819D01*
X514493Y478453D01*
X513532Y478851D01*
X513000Y478921D01*
D02*
G37*
G36*
X498000D02*
Y475500D01*
X501421D01*
X501351Y476032D01*
X500953Y476993D01*
X500319Y477819D01*
X499493Y478453D01*
X498532Y478851D01*
X498000Y478921D01*
D02*
G37*
G36*
X483000D02*
Y475500D01*
X486421D01*
X486351Y476032D01*
X485953Y476993D01*
X485319Y477819D01*
X484493Y478453D01*
X483532Y478851D01*
X483000Y478921D01*
D02*
G37*
G36*
X468000D02*
Y475500D01*
X471421D01*
X471351Y476032D01*
X470953Y476993D01*
X470319Y477819D01*
X469493Y478453D01*
X468532Y478851D01*
X468000Y478921D01*
D02*
G37*
G36*
X453000D02*
Y475500D01*
X456421D01*
X456351Y476032D01*
X455953Y476993D01*
X455319Y477819D01*
X454493Y478453D01*
X453532Y478851D01*
X453000Y478921D01*
D02*
G37*
G36*
X438000D02*
Y475500D01*
X441421D01*
X441351Y476032D01*
X440953Y476993D01*
X440319Y477819D01*
X439493Y478453D01*
X438532Y478851D01*
X438000Y478921D01*
D02*
G37*
G36*
X512000D02*
X511468Y478851D01*
X510507Y478453D01*
X509681Y477819D01*
X509047Y476993D01*
X508649Y476032D01*
X508579Y475500D01*
X512000D01*
Y478921D01*
D02*
G37*
G36*
X497000D02*
X496468Y478851D01*
X495507Y478453D01*
X494681Y477819D01*
X494047Y476993D01*
X493649Y476032D01*
X493579Y475500D01*
X497000D01*
Y478921D01*
D02*
G37*
G36*
X482000D02*
X481468Y478851D01*
X480507Y478453D01*
X479681Y477819D01*
X479047Y476993D01*
X478649Y476032D01*
X478579Y475500D01*
X482000D01*
Y478921D01*
D02*
G37*
G36*
X467000D02*
X466468Y478851D01*
X465507Y478453D01*
X464681Y477819D01*
X464047Y476993D01*
X463649Y476032D01*
X463579Y475500D01*
X467000D01*
Y478921D01*
D02*
G37*
G36*
X452000D02*
X451468Y478851D01*
X450507Y478453D01*
X449681Y477819D01*
X449047Y476993D01*
X448649Y476032D01*
X448579Y475500D01*
X452000D01*
Y478921D01*
D02*
G37*
G36*
X437000D02*
X436468Y478851D01*
X435507Y478453D01*
X434681Y477819D01*
X434047Y476993D01*
X433649Y476032D01*
X433579Y475500D01*
X437000D01*
Y478921D01*
D02*
G37*
G36*
X516421Y474500D02*
X513000D01*
Y471079D01*
X513532Y471149D01*
X514493Y471547D01*
X515319Y472181D01*
X515953Y473007D01*
X516351Y473968D01*
X516421Y474500D01*
D02*
G37*
G36*
X501421D02*
X498000D01*
Y471079D01*
X498532Y471149D01*
X499493Y471547D01*
X500319Y472181D01*
X500953Y473007D01*
X501351Y473968D01*
X501421Y474500D01*
D02*
G37*
G36*
X486421D02*
X483000D01*
Y471079D01*
X483532Y471149D01*
X484493Y471547D01*
X485319Y472181D01*
X485953Y473007D01*
X486351Y473968D01*
X486421Y474500D01*
D02*
G37*
G36*
X471421D02*
X468000D01*
Y471079D01*
X468532Y471149D01*
X469493Y471547D01*
X470319Y472181D01*
X470953Y473007D01*
X471351Y473968D01*
X471421Y474500D01*
D02*
G37*
G36*
X456421D02*
X453000D01*
Y471079D01*
X453532Y471149D01*
X454493Y471547D01*
X455319Y472181D01*
X455953Y473007D01*
X456351Y473968D01*
X456421Y474500D01*
D02*
G37*
G36*
X441421D02*
X438000D01*
Y471079D01*
X438532Y471149D01*
X439493Y471547D01*
X440319Y472181D01*
X440953Y473007D01*
X441351Y473968D01*
X441421Y474500D01*
D02*
G37*
G36*
X512000D02*
X508579D01*
X508649Y473968D01*
X509047Y473007D01*
X509681Y472181D01*
X510507Y471547D01*
X511468Y471149D01*
X512000Y471079D01*
Y474500D01*
D02*
G37*
G36*
X497000D02*
X493579D01*
X493649Y473968D01*
X494047Y473007D01*
X494681Y472181D01*
X495507Y471547D01*
X496468Y471149D01*
X497000Y471079D01*
Y474500D01*
D02*
G37*
G36*
X482000D02*
X478579D01*
X478649Y473968D01*
X479047Y473007D01*
X479681Y472181D01*
X480507Y471547D01*
X481468Y471149D01*
X482000Y471079D01*
Y474500D01*
D02*
G37*
G36*
X467000D02*
X463579D01*
X463649Y473968D01*
X464047Y473007D01*
X464681Y472181D01*
X465507Y471547D01*
X466468Y471149D01*
X467000Y471079D01*
Y474500D01*
D02*
G37*
G36*
X452000D02*
X448579D01*
X448649Y473968D01*
X449047Y473007D01*
X449681Y472181D01*
X450507Y471547D01*
X451468Y471149D01*
X452000Y471079D01*
Y474500D01*
D02*
G37*
G36*
X437000D02*
X433579D01*
X433649Y473968D01*
X434047Y473007D01*
X434681Y472181D01*
X435507Y471547D01*
X436468Y471149D01*
X437000Y471079D01*
Y474500D01*
D02*
G37*
G36*
X410000Y490876D02*
X408299Y490742D01*
X406639Y490344D01*
X405062Y489691D01*
X403607Y488799D01*
X402310Y487690D01*
X401201Y486393D01*
X400309Y484938D01*
X399656Y483361D01*
X399258Y481701D01*
X399124Y480000D01*
X399258Y478299D01*
X399656Y476639D01*
X400309Y475062D01*
X401201Y473607D01*
X402310Y472309D01*
X403607Y471201D01*
X405062Y470309D01*
X406639Y469656D01*
X408299Y469258D01*
X410000Y469124D01*
X411701Y469258D01*
X413361Y469656D01*
X414938Y470309D01*
X416393Y471201D01*
X417691Y472309D01*
X418799Y473607D01*
X419691Y475062D01*
X420344Y476639D01*
X420742Y478299D01*
X420876Y480000D01*
X420742Y481701D01*
X420344Y483361D01*
X419691Y484938D01*
X418799Y486393D01*
X417691Y487690D01*
X416393Y488799D01*
X414938Y489691D01*
X413361Y490344D01*
X411701Y490742D01*
X410000Y490876D01*
D02*
G37*
G36*
X516453Y468953D02*
X508547D01*
Y461047D01*
X516453D01*
Y468953D01*
D02*
G37*
G36*
X501453D02*
X493547D01*
Y461047D01*
X501453D01*
Y468953D01*
D02*
G37*
G36*
X486453D02*
X478547D01*
Y461047D01*
X486453D01*
Y468953D01*
D02*
G37*
G36*
X471453D02*
X463547D01*
Y461047D01*
X471453D01*
Y468953D01*
D02*
G37*
G36*
X456453D02*
X448547D01*
Y461047D01*
X456453D01*
Y468953D01*
D02*
G37*
G36*
X441453D02*
X433547D01*
Y461047D01*
X441453D01*
Y468953D01*
D02*
G37*
G36*
X320000Y466487D02*
X318968Y466351D01*
X318007Y465953D01*
X317181Y465319D01*
X316547Y464493D01*
X316149Y463532D01*
X316013Y462500D01*
X316149Y461468D01*
X316547Y460507D01*
X317181Y459681D01*
X318007Y459047D01*
X318968Y458649D01*
X320000Y458513D01*
X321032Y458649D01*
X321993Y459047D01*
X322819Y459681D01*
X323453Y460507D01*
X323851Y461468D01*
X323987Y462500D01*
X323851Y463532D01*
X323453Y464493D01*
X322819Y465319D01*
X321993Y465953D01*
X321032Y466351D01*
X320000Y466487D01*
D02*
G37*
G36*
Y456487D02*
X318968Y456351D01*
X318007Y455953D01*
X317181Y455319D01*
X316547Y454493D01*
X316149Y453532D01*
X316013Y452500D01*
X316149Y451468D01*
X316547Y450507D01*
X317181Y449681D01*
X318007Y449047D01*
X318968Y448649D01*
X320000Y448513D01*
X321032Y448649D01*
X321993Y449047D01*
X322819Y449681D01*
X323453Y450507D01*
X323851Y451468D01*
X323987Y452500D01*
X323851Y453532D01*
X323453Y454493D01*
X322819Y455319D01*
X321993Y455953D01*
X321032Y456351D01*
X320000Y456487D01*
D02*
G37*
G36*
X407500Y446534D02*
X406456Y446397D01*
X405483Y445994D01*
X404647Y445353D01*
X404023Y444539D01*
X395000D01*
X395000Y444539D01*
X394220Y444384D01*
X393558Y443942D01*
X393558Y443942D01*
X383558Y433942D01*
X383116Y433280D01*
X382961Y432500D01*
Y349539D01*
X350900D01*
X350654Y350039D01*
X350994Y350483D01*
X351397Y351456D01*
X351535Y352500D01*
X351397Y353544D01*
X350994Y354517D01*
X350353Y355353D01*
X349517Y355994D01*
X348544Y356397D01*
X347500Y356535D01*
X346456Y356397D01*
X345483Y355994D01*
X344647Y355353D01*
X344006Y354517D01*
X343603Y353544D01*
X343465Y352500D01*
X343603Y351456D01*
X344006Y350483D01*
X344346Y350039D01*
X344100Y349539D01*
X338849D01*
X338519Y349915D01*
X338530Y350000D01*
X338410Y350914D01*
X338057Y351765D01*
X337496Y352496D01*
X337039Y352847D01*
Y407500D01*
X336884Y408280D01*
X336442Y408942D01*
X323858Y421525D01*
X323987Y422500D01*
X323851Y423532D01*
X323453Y424493D01*
X322819Y425319D01*
X321993Y425953D01*
X321032Y426351D01*
X320000Y426487D01*
X318968Y426351D01*
X318007Y425953D01*
X317181Y425319D01*
X316547Y424493D01*
X316149Y423532D01*
X316013Y422500D01*
X316149Y421468D01*
X316547Y420507D01*
X317181Y419681D01*
X318007Y419047D01*
X318968Y418649D01*
X320000Y418513D01*
X320975Y418642D01*
X332961Y406655D01*
Y352847D01*
X332504Y352496D01*
X331943Y351765D01*
X331590Y350914D01*
X331470Y350000D01*
X331590Y349086D01*
X331943Y348235D01*
X332504Y347504D01*
X333235Y346943D01*
X334086Y346590D01*
X335000Y346470D01*
X335571Y346545D01*
X336058Y346058D01*
X336720Y345616D01*
X337500Y345461D01*
X344100D01*
X344346Y344961D01*
X344006Y344517D01*
X343603Y343544D01*
X343465Y342500D01*
X343603Y341456D01*
X344006Y340483D01*
X344647Y339647D01*
X344835Y339503D01*
X344674Y339029D01*
X338134D01*
X326081Y351081D01*
X325585Y351413D01*
X325000Y351529D01*
X323645D01*
X323453Y351993D01*
X322819Y352819D01*
X321993Y353453D01*
X321032Y353851D01*
X320000Y353987D01*
X318968Y353851D01*
X318007Y353453D01*
X317181Y352819D01*
X316547Y351993D01*
X316149Y351032D01*
X316013Y350000D01*
X316149Y348968D01*
X316547Y348007D01*
X317181Y347181D01*
X317378Y347029D01*
X317209Y346529D01*
X315634D01*
X314029Y348133D01*
Y351867D01*
X318504Y356341D01*
X318968Y356149D01*
X320000Y356013D01*
X321032Y356149D01*
X321993Y356547D01*
X322819Y357181D01*
X323453Y358007D01*
X323851Y358968D01*
X323987Y360000D01*
X323851Y361032D01*
X323453Y361993D01*
X322819Y362819D01*
X321993Y363453D01*
X321032Y363851D01*
X320000Y363987D01*
X318968Y363851D01*
X318007Y363453D01*
X317181Y362819D01*
X316547Y361993D01*
X316149Y361032D01*
X316013Y360000D01*
X316149Y358968D01*
X316341Y358504D01*
X311419Y353581D01*
X311087Y353085D01*
X310971Y352500D01*
Y347500D01*
X311087Y346915D01*
X311419Y346419D01*
X313919Y343919D01*
X314415Y343587D01*
X315000Y343471D01*
X317209D01*
X317378Y342971D01*
X317181Y342819D01*
X316547Y341993D01*
X316149Y341032D01*
X316013Y340000D01*
X316149Y338968D01*
X316547Y338007D01*
X317181Y337181D01*
X318007Y336547D01*
X318968Y336149D01*
X320000Y336013D01*
X321032Y336149D01*
X321496Y336341D01*
X343805Y314032D01*
X343603Y313544D01*
X343465Y312500D01*
X343603Y311456D01*
X344006Y310483D01*
X344647Y309647D01*
X345483Y309006D01*
X346456Y308603D01*
X347500Y308466D01*
X348544Y308603D01*
X349517Y309006D01*
X350353Y309647D01*
X350994Y310483D01*
X351397Y311456D01*
X351535Y312500D01*
X351397Y313544D01*
X350994Y314517D01*
X350353Y315353D01*
X349517Y315994D01*
X348544Y316397D01*
X347500Y316534D01*
X346456Y316397D01*
X345968Y316195D01*
X323659Y338504D01*
X323851Y338968D01*
X323987Y340000D01*
X323851Y341032D01*
X323453Y341993D01*
X322819Y342819D01*
X322622Y342971D01*
X322792Y343471D01*
X324366D01*
X343805Y324032D01*
X343603Y323544D01*
X343465Y322500D01*
X343603Y321456D01*
X344006Y320483D01*
X344647Y319647D01*
X345483Y319006D01*
X346456Y318603D01*
X347500Y318465D01*
X348544Y318603D01*
X349517Y319006D01*
X350353Y319647D01*
X350994Y320483D01*
X351397Y321456D01*
X351535Y322500D01*
X351397Y323544D01*
X350994Y324517D01*
X350353Y325353D01*
X349517Y325994D01*
X348544Y326397D01*
X347500Y326535D01*
X346456Y326397D01*
X345968Y326195D01*
X336199Y335964D01*
X336518Y336352D01*
X336915Y336087D01*
X337500Y335971D01*
X344674D01*
X344835Y335497D01*
X344647Y335353D01*
X344006Y334517D01*
X343603Y333544D01*
X343465Y332500D01*
X343603Y331456D01*
X344006Y330483D01*
X344647Y329647D01*
X345483Y329006D01*
X346456Y328603D01*
X347500Y328466D01*
X348544Y328603D01*
X349517Y329006D01*
X350353Y329647D01*
X350994Y330483D01*
X351397Y331456D01*
X351535Y332500D01*
X351397Y333544D01*
X350994Y334517D01*
X350353Y335353D01*
X350165Y335497D01*
X350325Y335971D01*
X384366D01*
X398919Y321419D01*
X399415Y321087D01*
X400000Y320971D01*
X403804D01*
X404006Y320483D01*
X404346Y320039D01*
X404100Y319539D01*
X402500D01*
X402500Y319539D01*
X401720Y319384D01*
X401058Y318942D01*
X401058Y318942D01*
X391058Y308942D01*
X390616Y308280D01*
X390461Y307500D01*
Y265900D01*
X389961Y265654D01*
X389517Y265994D01*
X388544Y266397D01*
X387500Y266534D01*
X386456Y266397D01*
X385483Y265994D01*
X384647Y265353D01*
X384006Y264517D01*
X383603Y263544D01*
X383466Y262500D01*
X383603Y261456D01*
X384006Y260483D01*
X384647Y259647D01*
X385483Y259006D01*
X386456Y258603D01*
X387500Y258466D01*
X388544Y258603D01*
X389517Y259006D01*
X389961Y259346D01*
X390461Y259100D01*
Y245845D01*
X364155Y219539D01*
X360900D01*
X360654Y220039D01*
X360994Y220483D01*
X361397Y221456D01*
X361535Y222500D01*
X361397Y223544D01*
X360994Y224517D01*
X360353Y225353D01*
X359517Y225994D01*
X358544Y226397D01*
X357500Y226535D01*
X356456Y226397D01*
X355968Y226195D01*
X353581Y228581D01*
X353085Y228913D01*
X352500Y229029D01*
X350325D01*
X350165Y229503D01*
X350353Y229647D01*
X350994Y230483D01*
X351397Y231456D01*
X351535Y232500D01*
X351397Y233544D01*
X350994Y234517D01*
X350353Y235353D01*
X349517Y235994D01*
X348544Y236397D01*
X347500Y236535D01*
X346456Y236397D01*
X345483Y235994D01*
X344647Y235353D01*
X344006Y234517D01*
X343603Y233544D01*
X343465Y232500D01*
X343603Y231456D01*
X344006Y230483D01*
X344647Y229647D01*
X344835Y229503D01*
X344674Y229029D01*
X323645D01*
X323453Y229493D01*
X322819Y230319D01*
X321993Y230953D01*
X321032Y231351D01*
X320000Y231487D01*
X318968Y231351D01*
X318007Y230953D01*
X317181Y230319D01*
X316547Y229493D01*
X316149Y228532D01*
X316013Y227500D01*
X316149Y226468D01*
X316547Y225507D01*
X317181Y224681D01*
X318007Y224047D01*
X318968Y223649D01*
X320000Y223513D01*
X321032Y223649D01*
X321993Y224047D01*
X322819Y224681D01*
X323453Y225507D01*
X323645Y225971D01*
X344674D01*
X344835Y225497D01*
X344647Y225353D01*
X344006Y224517D01*
X343603Y223544D01*
X343465Y222500D01*
X343603Y221456D01*
X344006Y220483D01*
X344346Y220039D01*
X344100Y219539D01*
X323418D01*
X322819Y220319D01*
X321993Y220953D01*
X321032Y221351D01*
X320000Y221487D01*
X318968Y221351D01*
X318007Y220953D01*
X317181Y220319D01*
X316547Y219493D01*
X316149Y218532D01*
X316013Y217500D01*
X316149Y216468D01*
X316547Y215507D01*
X317181Y214681D01*
X318007Y214047D01*
X318968Y213649D01*
X320000Y213513D01*
X321032Y213649D01*
X321993Y214047D01*
X322819Y214681D01*
X323418Y215461D01*
X344100D01*
X344346Y214961D01*
X344006Y214517D01*
X343603Y213544D01*
X343465Y212500D01*
X343603Y211456D01*
X344006Y210483D01*
X344647Y209647D01*
X345483Y209006D01*
X346456Y208603D01*
X347500Y208466D01*
X348544Y208603D01*
X349517Y209006D01*
X350353Y209647D01*
X350994Y210483D01*
X351397Y211456D01*
X351535Y212500D01*
X351397Y213544D01*
X350994Y214517D01*
X350654Y214961D01*
X350900Y215461D01*
X354100D01*
X354346Y214961D01*
X354006Y214517D01*
X353603Y213544D01*
X353466Y212500D01*
X353603Y211456D01*
X354006Y210483D01*
X354647Y209647D01*
X355483Y209006D01*
X356456Y208603D01*
X357500Y208466D01*
X358544Y208603D01*
X359517Y209006D01*
X360353Y209647D01*
X360994Y210483D01*
X361397Y211456D01*
X361535Y212500D01*
X361397Y213544D01*
X360994Y214517D01*
X360654Y214961D01*
X360900Y215461D01*
X365000D01*
X365780Y215616D01*
X366442Y216058D01*
X393025Y242641D01*
X393480Y242389D01*
X393603Y241456D01*
X394006Y240483D01*
X394647Y239647D01*
X395483Y239006D01*
X396456Y238603D01*
X397500Y238465D01*
X398544Y238603D01*
X399517Y239006D01*
X400353Y239647D01*
X400994Y240483D01*
X401397Y241456D01*
X401535Y242500D01*
X401397Y243544D01*
X400994Y244517D01*
X400353Y245353D01*
X399517Y245994D01*
X398544Y246397D01*
X397500Y246534D01*
X396456Y246397D01*
X395483Y245994D01*
X395039Y245654D01*
X394539Y245900D01*
Y249100D01*
X395039Y249346D01*
X395483Y249006D01*
X396456Y248603D01*
X397500Y248465D01*
X398544Y248603D01*
X399517Y249006D01*
X400353Y249647D01*
X400994Y250483D01*
X401397Y251456D01*
X401535Y252500D01*
X401397Y253544D01*
X400994Y254517D01*
X400353Y255353D01*
X399517Y255994D01*
X398544Y256397D01*
X397500Y256535D01*
X396456Y256397D01*
X395483Y255994D01*
X395039Y255654D01*
X394539Y255900D01*
Y259100D01*
X395039Y259346D01*
X395483Y259006D01*
X396456Y258603D01*
X397500Y258466D01*
X398544Y258603D01*
X399517Y259006D01*
X400353Y259647D01*
X400994Y260483D01*
X401397Y261456D01*
X401535Y262500D01*
X401397Y263544D01*
X400994Y264517D01*
X400353Y265353D01*
X399517Y265994D01*
X398544Y266397D01*
X397500Y266534D01*
X396456Y266397D01*
X395483Y265994D01*
X395039Y265654D01*
X394539Y265900D01*
Y269100D01*
X395039Y269346D01*
X395483Y269006D01*
X396456Y268603D01*
X397500Y268465D01*
X398544Y268603D01*
X399517Y269006D01*
X400353Y269647D01*
X400994Y270483D01*
X401397Y271456D01*
X401535Y272500D01*
X401397Y273544D01*
X400994Y274517D01*
X400353Y275353D01*
X399517Y275994D01*
X398544Y276397D01*
X397500Y276535D01*
X396456Y276397D01*
X395483Y275994D01*
X395039Y275654D01*
X394539Y275900D01*
Y279100D01*
X395039Y279346D01*
X395483Y279006D01*
X396456Y278603D01*
X397500Y278466D01*
X398544Y278603D01*
X399517Y279006D01*
X400353Y279647D01*
X400994Y280483D01*
X401397Y281456D01*
X401535Y282500D01*
X401397Y283544D01*
X400994Y284517D01*
X400353Y285353D01*
X399517Y285994D01*
X398544Y286397D01*
X397500Y286535D01*
X396456Y286397D01*
X395483Y285994D01*
X395039Y285654D01*
X394539Y285900D01*
Y289100D01*
X395039Y289346D01*
X395483Y289006D01*
X396456Y288603D01*
X397500Y288465D01*
X398544Y288603D01*
X399517Y289006D01*
X400353Y289647D01*
X400994Y290483D01*
X401397Y291456D01*
X401535Y292500D01*
X401397Y293544D01*
X400994Y294517D01*
X400353Y295353D01*
X399517Y295994D01*
X398544Y296397D01*
X397500Y296534D01*
X396456Y296397D01*
X395483Y295994D01*
X395039Y295654D01*
X394539Y295900D01*
Y306655D01*
X403345Y315461D01*
X404100D01*
X404346Y314961D01*
X404006Y314517D01*
X403603Y313544D01*
X403466Y312500D01*
X403603Y311456D01*
X404006Y310483D01*
X404647Y309647D01*
X405483Y309006D01*
X406456Y308603D01*
X407500Y308466D01*
X408544Y308603D01*
X409517Y309006D01*
X410353Y309647D01*
X410994Y310483D01*
X411397Y311456D01*
X411535Y312500D01*
X411397Y313544D01*
X410994Y314517D01*
X410654Y314961D01*
X410900Y315461D01*
X425000D01*
X425780Y315616D01*
X426442Y316058D01*
X433085Y322702D01*
X433547Y322510D01*
Y316047D01*
X441453D01*
Y323953D01*
X434990D01*
X434798Y324415D01*
X436525Y326142D01*
X437500Y326013D01*
X438532Y326149D01*
X439493Y326547D01*
X440319Y327181D01*
X440953Y328007D01*
X441351Y328968D01*
X441487Y330000D01*
X441351Y331032D01*
X440953Y331993D01*
X440319Y332819D01*
X439493Y333453D01*
X438532Y333851D01*
X437500Y333987D01*
X436525Y333858D01*
X431442Y338942D01*
X430780Y339384D01*
X430000Y339539D01*
X410900D01*
X410654Y340039D01*
X410994Y340483D01*
X411397Y341456D01*
X411535Y342500D01*
X411397Y343544D01*
X410994Y344517D01*
X410353Y345353D01*
X409517Y345994D01*
X408544Y346397D01*
X407500Y346534D01*
X406456Y346397D01*
X405483Y345994D01*
X404647Y345353D01*
X404006Y344517D01*
X403603Y343544D01*
X403466Y342500D01*
X403603Y341456D01*
X404006Y340483D01*
X404346Y340039D01*
X404100Y339539D01*
X395845D01*
X387039Y348345D01*
Y431655D01*
X395845Y440461D01*
X404023D01*
X404647Y439647D01*
X405483Y439006D01*
X406456Y438603D01*
X407500Y438465D01*
X408544Y438603D01*
X409517Y439006D01*
X410353Y439647D01*
X410994Y440483D01*
X411397Y441456D01*
X411535Y442500D01*
X411397Y443544D01*
X410994Y444517D01*
X410353Y445353D01*
X409517Y445994D01*
X408544Y446397D01*
X407500Y446534D01*
D02*
G37*
G36*
X348000Y446469D02*
Y443000D01*
X351469D01*
X351397Y443544D01*
X350994Y444517D01*
X350353Y445353D01*
X349517Y445994D01*
X348544Y446397D01*
X348000Y446469D01*
D02*
G37*
G36*
X347000D02*
X346456Y446397D01*
X345483Y445994D01*
X344647Y445353D01*
X344006Y444517D01*
X343603Y443544D01*
X343531Y443000D01*
X347000D01*
Y446469D01*
D02*
G37*
G36*
X351469Y442000D02*
X348000D01*
Y438531D01*
X348544Y438603D01*
X349517Y439006D01*
X350353Y439647D01*
X350994Y440483D01*
X351397Y441456D01*
X351469Y442000D01*
D02*
G37*
G36*
X347000D02*
X343531D01*
X343603Y441456D01*
X344006Y440483D01*
X344647Y439647D01*
X345483Y439006D01*
X346456Y438603D01*
X347000Y438531D01*
Y442000D01*
D02*
G37*
G36*
X320000Y446487D02*
X318968Y446351D01*
X318007Y445953D01*
X317181Y445319D01*
X316547Y444493D01*
X316149Y443532D01*
X316013Y442500D01*
X316149Y441468D01*
X316547Y440507D01*
X317181Y439681D01*
X318007Y439047D01*
X318968Y438649D01*
X320000Y438513D01*
X321032Y438649D01*
X321993Y439047D01*
X322819Y439681D01*
X323453Y440507D01*
X323851Y441468D01*
X323987Y442500D01*
X323851Y443532D01*
X323453Y444493D01*
X322819Y445319D01*
X321993Y445953D01*
X321032Y446351D01*
X320000Y446487D01*
D02*
G37*
G36*
Y436487D02*
X318968Y436351D01*
X318007Y435953D01*
X317181Y435319D01*
X316547Y434493D01*
X316149Y433532D01*
X316013Y432500D01*
X316149Y431468D01*
X316547Y430507D01*
X317181Y429681D01*
X318007Y429047D01*
X318968Y428649D01*
X320000Y428513D01*
X321032Y428649D01*
X321993Y429047D01*
X322819Y429681D01*
X323453Y430507D01*
X323851Y431468D01*
X323987Y432500D01*
X323851Y433532D01*
X323453Y434493D01*
X322819Y435319D01*
X321993Y435953D01*
X321032Y436351D01*
X320000Y436487D01*
D02*
G37*
G36*
X407500Y436535D02*
X406456Y436397D01*
X405483Y435994D01*
X404647Y435353D01*
X404006Y434517D01*
X403603Y433544D01*
X403466Y432500D01*
X403603Y431456D01*
X404006Y430483D01*
X404647Y429647D01*
X405483Y429006D01*
X406456Y428603D01*
X407500Y428466D01*
X408544Y428603D01*
X409517Y429006D01*
X410353Y429647D01*
X410994Y430483D01*
X411397Y431456D01*
X411535Y432500D01*
X411397Y433544D01*
X410994Y434517D01*
X410353Y435353D01*
X409517Y435994D01*
X408544Y436397D01*
X407500Y436535D01*
D02*
G37*
G36*
X397500D02*
X396456Y436397D01*
X395483Y435994D01*
X394647Y435353D01*
X394006Y434517D01*
X393603Y433544D01*
X393465Y432500D01*
X393603Y431456D01*
X394006Y430483D01*
X394647Y429647D01*
X395483Y429006D01*
X396456Y428603D01*
X397500Y428466D01*
X398544Y428603D01*
X399517Y429006D01*
X400353Y429647D01*
X400994Y430483D01*
X401397Y431456D01*
X401535Y432500D01*
X401397Y433544D01*
X400994Y434517D01*
X400353Y435353D01*
X399517Y435994D01*
X398544Y436397D01*
X397500Y436535D01*
D02*
G37*
G36*
X347500D02*
X346456Y436397D01*
X345483Y435994D01*
X344647Y435353D01*
X344006Y434517D01*
X343603Y433544D01*
X343465Y432500D01*
X343603Y431456D01*
X344006Y430483D01*
X344647Y429647D01*
X345483Y429006D01*
X346456Y428603D01*
X347500Y428466D01*
X348544Y428603D01*
X349517Y429006D01*
X350353Y429647D01*
X350994Y430483D01*
X351397Y431456D01*
X351535Y432500D01*
X351397Y433544D01*
X350994Y434517D01*
X350353Y435353D01*
X349517Y435994D01*
X348544Y436397D01*
X347500Y436535D01*
D02*
G37*
G36*
X305000Y426487D02*
X303968Y426351D01*
X303007Y425953D01*
X302181Y425319D01*
X301547Y424493D01*
X301149Y423532D01*
X301013Y422500D01*
X301149Y421468D01*
X301547Y420507D01*
X302181Y419681D01*
X303007Y419047D01*
X303968Y418649D01*
X305000Y418513D01*
X306032Y418649D01*
X306993Y419047D01*
X307819Y419681D01*
X308453Y420507D01*
X308851Y421468D01*
X308987Y422500D01*
X308851Y423532D01*
X308453Y424493D01*
X307819Y425319D01*
X306993Y425953D01*
X306032Y426351D01*
X305000Y426487D01*
D02*
G37*
G36*
X407500Y426535D02*
X406456Y426397D01*
X405483Y425994D01*
X404647Y425353D01*
X404006Y424517D01*
X403603Y423544D01*
X403466Y422500D01*
X403603Y421456D01*
X404006Y420483D01*
X404647Y419647D01*
X405483Y419006D01*
X406456Y418603D01*
X407500Y418466D01*
X408544Y418603D01*
X409517Y419006D01*
X410353Y419647D01*
X410994Y420483D01*
X411397Y421456D01*
X411535Y422500D01*
X411397Y423544D01*
X410994Y424517D01*
X410353Y425353D01*
X409517Y425994D01*
X408544Y426397D01*
X407500Y426535D01*
D02*
G37*
G36*
X347500D02*
X346456Y426397D01*
X345483Y425994D01*
X344647Y425353D01*
X344006Y424517D01*
X343603Y423544D01*
X343465Y422500D01*
X343603Y421456D01*
X344006Y420483D01*
X344647Y419647D01*
X345483Y419006D01*
X346456Y418603D01*
X347500Y418466D01*
X348544Y418603D01*
X349517Y419006D01*
X350353Y419647D01*
X350994Y420483D01*
X351397Y421456D01*
X351535Y422500D01*
X351397Y423544D01*
X350994Y424517D01*
X350353Y425353D01*
X349517Y425994D01*
X348544Y426397D01*
X347500Y426535D01*
D02*
G37*
G36*
X312500Y476535D02*
X311456Y476397D01*
X310483Y475994D01*
X309647Y475353D01*
X309647Y475353D01*
X292147Y457853D01*
X291506Y457017D01*
X291103Y456044D01*
X290966Y455000D01*
X290966Y455000D01*
Y440000D01*
Y352500D01*
X290966Y352500D01*
X290966Y352500D01*
Y340000D01*
Y250000D01*
X290966Y250000D01*
X290966Y250000D01*
Y237500D01*
Y189685D01*
X290966Y189685D01*
X291103Y188641D01*
X291506Y187668D01*
X292147Y186832D01*
X302147Y176832D01*
X302147Y176832D01*
X302983Y176191D01*
X303956Y175788D01*
X305000Y175651D01*
X305000Y175651D01*
X310926D01*
Y127953D01*
X311064Y126909D01*
X311467Y125935D01*
X312108Y125100D01*
X312943Y124459D01*
X313916Y124056D01*
X314961Y123918D01*
X316005Y124056D01*
X316978Y124459D01*
X317813Y125100D01*
X318455Y125935D01*
X318858Y126909D01*
X318995Y127953D01*
Y175651D01*
X324185D01*
X324435Y175683D01*
X324685Y175651D01*
X325729Y175788D01*
X326702Y176191D01*
X327538Y176832D01*
X346671Y195966D01*
X415000D01*
X415000Y195966D01*
X416044Y196103D01*
X417017Y196506D01*
X417853Y197147D01*
X425353Y204647D01*
X425994Y205483D01*
X426397Y206456D01*
X426535Y207500D01*
Y275829D01*
X429171Y278466D01*
X489500D01*
X490544Y278603D01*
X491517Y279006D01*
X492353Y279647D01*
X492994Y280483D01*
X493397Y281456D01*
X493535Y282500D01*
X493397Y283544D01*
X492994Y284517D01*
X492353Y285353D01*
X491517Y285994D01*
X490544Y286397D01*
X489500Y286535D01*
X479428D01*
Y352660D01*
X490058Y363289D01*
X490058Y363289D01*
X490699Y364124D01*
X491102Y365097D01*
X491239Y366142D01*
Y392717D01*
X491102Y393761D01*
X490699Y394734D01*
X490058Y395569D01*
X490058Y395569D01*
X480412Y405215D01*
Y416241D01*
X486122D01*
X486456Y416103D01*
X487500Y415966D01*
X512500D01*
X513544Y416103D01*
X514517Y416506D01*
X515353Y417147D01*
X515994Y417983D01*
X516397Y418956D01*
X516535Y420000D01*
X516397Y421044D01*
X515994Y422017D01*
X515353Y422853D01*
X514517Y423494D01*
X513544Y423897D01*
X512500Y424035D01*
X488602D01*
X488269Y424173D01*
X487224Y424310D01*
X487224Y424310D01*
X462776D01*
X461731Y424173D01*
X461398Y424035D01*
X437500D01*
X436456Y423897D01*
X435483Y423494D01*
X434647Y422853D01*
X434006Y422017D01*
X433603Y421044D01*
X433465Y420000D01*
X433603Y418956D01*
X434006Y417983D01*
X434647Y417147D01*
X435483Y416506D01*
X436456Y416103D01*
X437500Y415966D01*
X462500D01*
X462500Y415966D01*
X463544Y416103D01*
X463878Y416241D01*
X472343D01*
Y403543D01*
X472343Y403543D01*
X472481Y402499D01*
X472884Y401526D01*
X473525Y400691D01*
X483170Y391045D01*
Y367813D01*
X472541Y357184D01*
X471900Y356348D01*
X471497Y355375D01*
X471359Y354331D01*
X471359Y354331D01*
Y286535D01*
X427500D01*
X427500Y286535D01*
X426456Y286397D01*
X425483Y285994D01*
X424647Y285353D01*
X424647Y285353D01*
X419647Y280353D01*
X419006Y279517D01*
X418603Y278544D01*
X418466Y277500D01*
X418466Y277500D01*
Y209171D01*
X413329Y204034D01*
X345000D01*
X345000Y204034D01*
X343956Y203897D01*
X342983Y203494D01*
X342147Y202853D01*
X323014Y183720D01*
X306671D01*
X299035Y191356D01*
Y237500D01*
Y248329D01*
X314171Y263465D01*
X320000D01*
X321044Y263603D01*
X322017Y264006D01*
X322853Y264647D01*
X323494Y265483D01*
X323897Y266456D01*
X324035Y267500D01*
X323897Y268544D01*
X323494Y269517D01*
X322853Y270353D01*
X322017Y270994D01*
X321044Y271397D01*
X320000Y271534D01*
X312500D01*
X312500Y271534D01*
X311456Y271397D01*
X310483Y270994D01*
X309647Y270353D01*
X309647Y270353D01*
X299497Y260202D01*
X299035Y260394D01*
Y340000D01*
Y350829D01*
X314171Y365966D01*
X320000D01*
X321044Y366103D01*
X322017Y366506D01*
X322853Y367147D01*
X323494Y367983D01*
X323897Y368956D01*
X324035Y370000D01*
X323897Y371044D01*
X323494Y372017D01*
X322853Y372853D01*
X322017Y373494D01*
X321044Y373897D01*
X320000Y374035D01*
X312500D01*
X312500Y374035D01*
X311456Y373897D01*
X310483Y373494D01*
X309647Y372853D01*
X309647Y372853D01*
X299497Y362702D01*
X299035Y362894D01*
Y440000D01*
Y453329D01*
X314171Y468466D01*
X320000D01*
X321044Y468603D01*
X322017Y469006D01*
X322853Y469647D01*
X323494Y470483D01*
X323897Y471456D01*
X324035Y472500D01*
X323897Y473544D01*
X323494Y474517D01*
X322853Y475353D01*
X322017Y475994D01*
X321044Y476397D01*
X320000Y476535D01*
X312500D01*
X312500Y476535D01*
D02*
G37*
G36*
X320000Y416487D02*
X318968Y416351D01*
X318007Y415953D01*
X317181Y415319D01*
X316547Y414493D01*
X316149Y413532D01*
X316013Y412500D01*
X316149Y411468D01*
X316547Y410507D01*
X317181Y409681D01*
X318007Y409047D01*
X318968Y408649D01*
X320000Y408513D01*
X321032Y408649D01*
X321993Y409047D01*
X322819Y409681D01*
X323453Y410507D01*
X323851Y411468D01*
X323987Y412500D01*
X323851Y413532D01*
X323453Y414493D01*
X322819Y415319D01*
X321993Y415953D01*
X321032Y416351D01*
X320000Y416487D01*
D02*
G37*
G36*
X305000D02*
X303968Y416351D01*
X303007Y415953D01*
X302181Y415319D01*
X301547Y414493D01*
X301149Y413532D01*
X301013Y412500D01*
X301149Y411468D01*
X301547Y410507D01*
X302181Y409681D01*
X303007Y409047D01*
X303968Y408649D01*
X305000Y408513D01*
X306032Y408649D01*
X306993Y409047D01*
X307819Y409681D01*
X308453Y410507D01*
X308851Y411468D01*
X308987Y412500D01*
X308851Y413532D01*
X308453Y414493D01*
X307819Y415319D01*
X306993Y415953D01*
X306032Y416351D01*
X305000Y416487D01*
D02*
G37*
G36*
X407500Y416535D02*
X406456Y416397D01*
X405483Y415994D01*
X404647Y415353D01*
X404006Y414517D01*
X403603Y413544D01*
X403466Y412500D01*
X403603Y411456D01*
X404006Y410483D01*
X404647Y409647D01*
X405483Y409006D01*
X406456Y408603D01*
X407500Y408465D01*
X408544Y408603D01*
X409517Y409006D01*
X410353Y409647D01*
X410994Y410483D01*
X411397Y411456D01*
X411535Y412500D01*
X411397Y413544D01*
X410994Y414517D01*
X410353Y415353D01*
X409517Y415994D01*
X408544Y416397D01*
X407500Y416535D01*
D02*
G37*
G36*
X397500D02*
X396456Y416397D01*
X395483Y415994D01*
X394647Y415353D01*
X394006Y414517D01*
X393603Y413544D01*
X393465Y412500D01*
X393603Y411456D01*
X394006Y410483D01*
X394647Y409647D01*
X395483Y409006D01*
X396456Y408603D01*
X397500Y408465D01*
X398544Y408603D01*
X399517Y409006D01*
X400353Y409647D01*
X400994Y410483D01*
X401397Y411456D01*
X401535Y412500D01*
X401397Y413544D01*
X400994Y414517D01*
X400353Y415353D01*
X399517Y415994D01*
X398544Y416397D01*
X397500Y416535D01*
D02*
G37*
G36*
X347500D02*
X346456Y416397D01*
X345483Y415994D01*
X344647Y415353D01*
X344006Y414517D01*
X343603Y413544D01*
X343465Y412500D01*
X343603Y411456D01*
X344006Y410483D01*
X344647Y409647D01*
X345483Y409006D01*
X346456Y408603D01*
X347500Y408465D01*
X348544Y408603D01*
X349517Y409006D01*
X350353Y409647D01*
X350994Y410483D01*
X351397Y411456D01*
X351535Y412500D01*
X351397Y413544D01*
X350994Y414517D01*
X350353Y415353D01*
X349517Y415994D01*
X348544Y416397D01*
X347500Y416535D01*
D02*
G37*
G36*
X516453Y413953D02*
X508547D01*
Y406047D01*
X516453D01*
Y413953D01*
D02*
G37*
G36*
X491453D02*
X483547D01*
Y406047D01*
X491453D01*
Y413953D01*
D02*
G37*
G36*
X466453D02*
X458547D01*
Y406047D01*
X466453D01*
Y413953D01*
D02*
G37*
G36*
X441453D02*
X433547D01*
Y406047D01*
X441453D01*
Y413953D01*
D02*
G37*
G36*
X308953Y406453D02*
X305500D01*
Y403000D01*
X308953D01*
Y406453D01*
D02*
G37*
G36*
X304500D02*
X301047D01*
Y403000D01*
X304500D01*
Y406453D01*
D02*
G37*
G36*
X308953Y402000D02*
X305500D01*
Y398547D01*
X308953D01*
Y402000D01*
D02*
G37*
G36*
X304500D02*
X301047D01*
Y398547D01*
X304500D01*
Y402000D01*
D02*
G37*
G36*
X320000Y406487D02*
X318968Y406351D01*
X318007Y405953D01*
X317181Y405319D01*
X316547Y404493D01*
X316149Y403532D01*
X316013Y402500D01*
X316149Y401468D01*
X316547Y400507D01*
X317181Y399681D01*
X318007Y399047D01*
X318968Y398649D01*
X320000Y398513D01*
X321032Y398649D01*
X321993Y399047D01*
X322819Y399681D01*
X323453Y400507D01*
X323851Y401468D01*
X323987Y402500D01*
X323851Y403532D01*
X323453Y404493D01*
X322819Y405319D01*
X321993Y405953D01*
X321032Y406351D01*
X320000Y406487D01*
D02*
G37*
G36*
X407500Y406534D02*
X406456Y406397D01*
X405483Y405994D01*
X404647Y405353D01*
X404006Y404517D01*
X403603Y403544D01*
X403466Y402500D01*
X403603Y401456D01*
X404006Y400483D01*
X404647Y399647D01*
X405483Y399006D01*
X406456Y398603D01*
X407500Y398465D01*
X408544Y398603D01*
X409517Y399006D01*
X410353Y399647D01*
X410994Y400483D01*
X411397Y401456D01*
X411535Y402500D01*
X411397Y403544D01*
X410994Y404517D01*
X410353Y405353D01*
X409517Y405994D01*
X408544Y406397D01*
X407500Y406534D01*
D02*
G37*
G36*
X397500D02*
X396456Y406397D01*
X395483Y405994D01*
X394647Y405353D01*
X394006Y404517D01*
X393603Y403544D01*
X393465Y402500D01*
X393603Y401456D01*
X394006Y400483D01*
X394647Y399647D01*
X395483Y399006D01*
X396456Y398603D01*
X397500Y398465D01*
X398544Y398603D01*
X399517Y399006D01*
X400353Y399647D01*
X400994Y400483D01*
X401397Y401456D01*
X401535Y402500D01*
X401397Y403544D01*
X400994Y404517D01*
X400353Y405353D01*
X399517Y405994D01*
X398544Y406397D01*
X397500Y406534D01*
D02*
G37*
G36*
X347500D02*
X346456Y406397D01*
X345483Y405994D01*
X344647Y405353D01*
X344006Y404517D01*
X343603Y403544D01*
X343465Y402500D01*
X343603Y401456D01*
X344006Y400483D01*
X344647Y399647D01*
X345483Y399006D01*
X346456Y398603D01*
X347500Y398465D01*
X348544Y398603D01*
X349517Y399006D01*
X350353Y399647D01*
X350994Y400483D01*
X351397Y401456D01*
X351535Y402500D01*
X351397Y403544D01*
X350994Y404517D01*
X350353Y405353D01*
X349517Y405994D01*
X348544Y406397D01*
X347500Y406534D01*
D02*
G37*
G36*
X407500Y396534D02*
X406456Y396397D01*
X405483Y395994D01*
X404647Y395353D01*
X404006Y394517D01*
X403603Y393544D01*
X403466Y392500D01*
X403603Y391456D01*
X404006Y390483D01*
X404647Y389647D01*
X405483Y389006D01*
X406456Y388603D01*
X407500Y388465D01*
X408544Y388603D01*
X409517Y389006D01*
X410353Y389647D01*
X410994Y390483D01*
X411397Y391456D01*
X411535Y392500D01*
X411397Y393544D01*
X410994Y394517D01*
X410353Y395353D01*
X409517Y395994D01*
X408544Y396397D01*
X407500Y396534D01*
D02*
G37*
G36*
X397500D02*
X396456Y396397D01*
X395483Y395994D01*
X394647Y395353D01*
X394006Y394517D01*
X393603Y393544D01*
X393465Y392500D01*
X393603Y391456D01*
X394006Y390483D01*
X394647Y389647D01*
X395483Y389006D01*
X396456Y388603D01*
X397500Y388465D01*
X398544Y388603D01*
X399517Y389006D01*
X400353Y389647D01*
X400994Y390483D01*
X401397Y391456D01*
X401535Y392500D01*
X401397Y393544D01*
X400994Y394517D01*
X400353Y395353D01*
X399517Y395994D01*
X398544Y396397D01*
X397500Y396534D01*
D02*
G37*
G36*
X347500D02*
X346456Y396397D01*
X345483Y395994D01*
X344647Y395353D01*
X344006Y394517D01*
X343603Y393544D01*
X343465Y392500D01*
X343603Y391456D01*
X344006Y390483D01*
X344647Y389647D01*
X345483Y389006D01*
X346456Y388603D01*
X347500Y388465D01*
X348544Y388603D01*
X349517Y389006D01*
X350353Y389647D01*
X350994Y390483D01*
X351397Y391456D01*
X351535Y392500D01*
X351397Y393544D01*
X350994Y394517D01*
X350353Y395353D01*
X349517Y395994D01*
X348544Y396397D01*
X347500Y396534D01*
D02*
G37*
G36*
X475394Y393294D02*
X474480Y393174D01*
X473629Y392821D01*
X472897Y392260D01*
X472337Y391529D01*
X430000D01*
X429415Y391413D01*
X428919Y391081D01*
X416866Y379029D01*
X410325D01*
X410165Y379503D01*
X410353Y379647D01*
X410994Y380483D01*
X411397Y381456D01*
X411535Y382500D01*
X411397Y383544D01*
X410994Y384517D01*
X410353Y385353D01*
X409517Y385994D01*
X408544Y386397D01*
X407500Y386535D01*
X406456Y386397D01*
X405483Y385994D01*
X404647Y385353D01*
X404006Y384517D01*
X403603Y383544D01*
X403466Y382500D01*
X403603Y381456D01*
X404006Y380483D01*
X404647Y379647D01*
X404835Y379503D01*
X404674Y379029D01*
X402500D01*
X401915Y378913D01*
X401419Y378581D01*
X399032Y376195D01*
X398544Y376397D01*
X397500Y376535D01*
X396456Y376397D01*
X395483Y375994D01*
X394647Y375353D01*
X394006Y374517D01*
X393603Y373544D01*
X393465Y372500D01*
X393603Y371456D01*
X394006Y370483D01*
X394647Y369647D01*
X395483Y369006D01*
X396456Y368603D01*
X397500Y368465D01*
X398544Y368603D01*
X399517Y369006D01*
X400353Y369647D01*
X400994Y370483D01*
X401397Y371456D01*
X401535Y372500D01*
X401397Y373544D01*
X401195Y374032D01*
X403133Y375971D01*
X404674D01*
X404835Y375497D01*
X404647Y375353D01*
X404006Y374517D01*
X403603Y373544D01*
X403466Y372500D01*
X403603Y371456D01*
X404006Y370483D01*
X404647Y369647D01*
X405483Y369006D01*
X406456Y368603D01*
X407500Y368465D01*
X408544Y368603D01*
X409517Y369006D01*
X410353Y369647D01*
X410994Y370483D01*
X411397Y371456D01*
X411535Y372500D01*
X411397Y373544D01*
X410994Y374517D01*
X410353Y375353D01*
X410165Y375497D01*
X410325Y375971D01*
X417500D01*
X418085Y376087D01*
X418581Y376419D01*
X430633Y388471D01*
X472141D01*
X472336Y387999D01*
X472897Y387267D01*
X473629Y386706D01*
X474480Y386354D01*
X475394Y386234D01*
X476307Y386354D01*
X477159Y386706D01*
X477890Y387267D01*
X478451Y387999D01*
X478804Y388850D01*
X478924Y389764D01*
X478804Y390677D01*
X478451Y391529D01*
X477890Y392260D01*
X477159Y392821D01*
X476307Y393174D01*
X475394Y393294D01*
D02*
G37*
G36*
X323953Y383953D02*
X320500D01*
Y380500D01*
X323953D01*
Y383953D01*
D02*
G37*
G36*
X319500D02*
X316047D01*
Y380500D01*
X319500D01*
Y383953D01*
D02*
G37*
G36*
X397500Y386535D02*
X396456Y386397D01*
X395483Y385994D01*
X394647Y385353D01*
X394006Y384517D01*
X393603Y383544D01*
X393465Y382500D01*
X393603Y381456D01*
X394006Y380483D01*
X394647Y379647D01*
X395483Y379006D01*
X396456Y378603D01*
X397500Y378466D01*
X398544Y378603D01*
X399517Y379006D01*
X400353Y379647D01*
X400994Y380483D01*
X401397Y381456D01*
X401535Y382500D01*
X401397Y383544D01*
X400994Y384517D01*
X400353Y385353D01*
X399517Y385994D01*
X398544Y386397D01*
X397500Y386535D01*
D02*
G37*
G36*
X347500D02*
X346456Y386397D01*
X345483Y385994D01*
X344647Y385353D01*
X344006Y384517D01*
X343603Y383544D01*
X343465Y382500D01*
X343603Y381456D01*
X344006Y380483D01*
X344647Y379647D01*
X345483Y379006D01*
X346456Y378603D01*
X347500Y378466D01*
X348544Y378603D01*
X349517Y379006D01*
X350353Y379647D01*
X350994Y380483D01*
X351397Y381456D01*
X351535Y382500D01*
X351397Y383544D01*
X350994Y384517D01*
X350353Y385353D01*
X349517Y385994D01*
X348544Y386397D01*
X347500Y386535D01*
D02*
G37*
G36*
X500500Y380433D02*
Y377468D01*
X503464D01*
X503410Y377882D01*
X503057Y378734D01*
X502496Y379465D01*
X501765Y380026D01*
X500914Y380378D01*
X500500Y380433D01*
D02*
G37*
G36*
X499500D02*
X499086Y380378D01*
X498235Y380026D01*
X497504Y379465D01*
X496943Y378734D01*
X496590Y377882D01*
X496536Y377468D01*
X499500D01*
Y380433D01*
D02*
G37*
G36*
X475894D02*
Y377468D01*
X478858D01*
X478804Y377882D01*
X478451Y378734D01*
X477890Y379465D01*
X477159Y380026D01*
X476307Y380378D01*
X475894Y380433D01*
D02*
G37*
G36*
X474894D02*
X474480Y380378D01*
X473629Y380026D01*
X472897Y379465D01*
X472336Y378734D01*
X471984Y377882D01*
X471929Y377468D01*
X474894D01*
Y380433D01*
D02*
G37*
G36*
X450303D02*
Y377468D01*
X453267D01*
X453213Y377882D01*
X452860Y378734D01*
X452299Y379465D01*
X451568Y380026D01*
X450717Y380378D01*
X450303Y380433D01*
D02*
G37*
G36*
X449303D02*
X448889Y380378D01*
X448038Y380026D01*
X447307Y379465D01*
X446746Y378734D01*
X446393Y377882D01*
X446339Y377468D01*
X449303D01*
Y380433D01*
D02*
G37*
G36*
X323953Y379500D02*
X320500D01*
Y376047D01*
X323953D01*
Y379500D01*
D02*
G37*
G36*
X319500D02*
X316047D01*
Y376047D01*
X319500D01*
Y379500D01*
D02*
G37*
G36*
X503464Y376468D02*
X500500D01*
Y373504D01*
X500914Y373559D01*
X501765Y373911D01*
X502496Y374472D01*
X503057Y375203D01*
X503410Y376055D01*
X503464Y376468D01*
D02*
G37*
G36*
X499500D02*
X496536D01*
X496590Y376055D01*
X496943Y375203D01*
X497504Y374472D01*
X498235Y373911D01*
X499086Y373559D01*
X499500Y373504D01*
Y376468D01*
D02*
G37*
G36*
X478858D02*
X475894D01*
Y373504D01*
X476307Y373559D01*
X477159Y373911D01*
X477890Y374472D01*
X478451Y375203D01*
X478804Y376055D01*
X478858Y376468D01*
D02*
G37*
G36*
X474894D02*
X471929D01*
X471984Y376055D01*
X472336Y375203D01*
X472897Y374472D01*
X473629Y373911D01*
X474480Y373559D01*
X474894Y373504D01*
Y376468D01*
D02*
G37*
G36*
X453267D02*
X450303D01*
Y373504D01*
X450717Y373559D01*
X451568Y373911D01*
X452299Y374472D01*
X452860Y375203D01*
X453213Y376055D01*
X453267Y376468D01*
D02*
G37*
G36*
X449303D02*
X446339D01*
X446393Y376055D01*
X446746Y375203D01*
X447307Y374472D01*
X448038Y373911D01*
X448889Y373559D01*
X449303Y373504D01*
Y376468D01*
D02*
G37*
G36*
X512311Y372559D02*
Y369595D01*
X515275D01*
X515221Y370008D01*
X514868Y370860D01*
X514307Y371591D01*
X513576Y372152D01*
X512725Y372504D01*
X512311Y372559D01*
D02*
G37*
G36*
X511311D02*
X510897Y372504D01*
X510046Y372152D01*
X509315Y371591D01*
X508754Y370860D01*
X508401Y370008D01*
X508347Y369595D01*
X511311D01*
Y372559D01*
D02*
G37*
G36*
X347500Y376535D02*
X346456Y376397D01*
X345483Y375994D01*
X344647Y375353D01*
X344006Y374517D01*
X343603Y373544D01*
X343465Y372500D01*
X343603Y371456D01*
X344006Y370483D01*
X344647Y369647D01*
X345483Y369006D01*
X346456Y368603D01*
X347500Y368465D01*
X348544Y368603D01*
X349517Y369006D01*
X350353Y369647D01*
X350994Y370483D01*
X351397Y371456D01*
X351535Y372500D01*
X351397Y373544D01*
X350994Y374517D01*
X350353Y375353D01*
X349517Y375994D01*
X348544Y376397D01*
X347500Y376535D01*
D02*
G37*
G36*
X515275Y368595D02*
X512311D01*
Y365630D01*
X512725Y365685D01*
X513576Y366037D01*
X514307Y366598D01*
X514868Y367329D01*
X515221Y368181D01*
X515275Y368595D01*
D02*
G37*
G36*
X511311D02*
X508347D01*
X508401Y368181D01*
X508754Y367329D01*
X509315Y366598D01*
X510046Y366037D01*
X510897Y365685D01*
X511311Y365630D01*
Y368595D01*
D02*
G37*
G36*
X407500Y366534D02*
X406456Y366397D01*
X405483Y365994D01*
X404647Y365353D01*
X404006Y364517D01*
X403603Y363544D01*
X403466Y362500D01*
X403603Y361456D01*
X404006Y360483D01*
X404647Y359647D01*
X405483Y359006D01*
X406456Y358603D01*
X407500Y358466D01*
X408544Y358603D01*
X409517Y359006D01*
X410353Y359647D01*
X410994Y360483D01*
X411397Y361456D01*
X411535Y362500D01*
X411397Y363544D01*
X410994Y364517D01*
X410353Y365353D01*
X409517Y365994D01*
X408544Y366397D01*
X407500Y366534D01*
D02*
G37*
G36*
X397500D02*
X396456Y366397D01*
X395483Y365994D01*
X394647Y365353D01*
X394006Y364517D01*
X393603Y363544D01*
X393465Y362500D01*
X393603Y361456D01*
X394006Y360483D01*
X394647Y359647D01*
X395483Y359006D01*
X396456Y358603D01*
X397500Y358466D01*
X398544Y358603D01*
X399517Y359006D01*
X400353Y359647D01*
X400994Y360483D01*
X401397Y361456D01*
X401535Y362500D01*
X401397Y363544D01*
X400994Y364517D01*
X400353Y365353D01*
X399517Y365994D01*
X398544Y366397D01*
X397500Y366534D01*
D02*
G37*
G36*
X347500D02*
X346456Y366397D01*
X345483Y365994D01*
X344647Y365353D01*
X344006Y364517D01*
X343603Y363544D01*
X343465Y362500D01*
X343603Y361456D01*
X344006Y360483D01*
X344647Y359647D01*
X345483Y359006D01*
X346456Y358603D01*
X347500Y358466D01*
X348544Y358603D01*
X349517Y359006D01*
X350353Y359647D01*
X350994Y360483D01*
X351397Y361456D01*
X351535Y362500D01*
X351397Y363544D01*
X350994Y364517D01*
X350353Y365353D01*
X349517Y365994D01*
X348544Y366397D01*
X347500Y366534D01*
D02*
G37*
G36*
X407500Y356535D02*
X406456Y356397D01*
X405483Y355994D01*
X404647Y355353D01*
X404006Y354517D01*
X403603Y353544D01*
X403466Y352500D01*
X403603Y351456D01*
X404006Y350483D01*
X404647Y349647D01*
X405483Y349006D01*
X406456Y348603D01*
X407500Y348465D01*
X408544Y348603D01*
X409517Y349006D01*
X410353Y349647D01*
X410994Y350483D01*
X411397Y351456D01*
X411535Y352500D01*
X411397Y353544D01*
X410994Y354517D01*
X410353Y355353D01*
X409517Y355994D01*
X408544Y356397D01*
X407500Y356535D01*
D02*
G37*
G36*
X397500D02*
X396456Y356397D01*
X395483Y355994D01*
X394647Y355353D01*
X394006Y354517D01*
X393603Y353544D01*
X393465Y352500D01*
X393603Y351456D01*
X394006Y350483D01*
X394647Y349647D01*
X395483Y349006D01*
X396456Y348603D01*
X397500Y348465D01*
X398544Y348603D01*
X399517Y349006D01*
X400353Y349647D01*
X400994Y350483D01*
X401397Y351456D01*
X401535Y352500D01*
X401397Y353544D01*
X400994Y354517D01*
X400353Y355353D01*
X399517Y355994D01*
X398544Y356397D01*
X397500Y356535D01*
D02*
G37*
G36*
X513000Y343921D02*
Y340500D01*
X516421D01*
X516351Y341032D01*
X515953Y341993D01*
X515319Y342819D01*
X514493Y343453D01*
X513532Y343851D01*
X513000Y343921D01*
D02*
G37*
G36*
X488000D02*
Y340500D01*
X491421D01*
X491351Y341032D01*
X490953Y341993D01*
X490319Y342819D01*
X489493Y343453D01*
X488532Y343851D01*
X488000Y343921D01*
D02*
G37*
G36*
X463000D02*
Y340500D01*
X466421D01*
X466351Y341032D01*
X465953Y341993D01*
X465319Y342819D01*
X464493Y343453D01*
X463532Y343851D01*
X463000Y343921D01*
D02*
G37*
G36*
X438000D02*
Y340500D01*
X441421D01*
X441351Y341032D01*
X440953Y341993D01*
X440319Y342819D01*
X439493Y343453D01*
X438532Y343851D01*
X438000Y343921D01*
D02*
G37*
G36*
X512000D02*
X511468Y343851D01*
X510507Y343453D01*
X509681Y342819D01*
X509047Y341993D01*
X508649Y341032D01*
X508579Y340500D01*
X512000D01*
Y343921D01*
D02*
G37*
G36*
X487000D02*
X486468Y343851D01*
X485507Y343453D01*
X484681Y342819D01*
X484047Y341993D01*
X483649Y341032D01*
X483579Y340500D01*
X487000D01*
Y343921D01*
D02*
G37*
G36*
X462000D02*
X461468Y343851D01*
X460507Y343453D01*
X459681Y342819D01*
X459047Y341993D01*
X458649Y341032D01*
X458579Y340500D01*
X462000D01*
Y343921D01*
D02*
G37*
G36*
X437000D02*
X436468Y343851D01*
X435507Y343453D01*
X434681Y342819D01*
X434047Y341993D01*
X433649Y341032D01*
X433579Y340500D01*
X437000D01*
Y343921D01*
D02*
G37*
G36*
X516421Y339500D02*
X513000D01*
Y336079D01*
X513532Y336149D01*
X514493Y336547D01*
X515319Y337181D01*
X515953Y338007D01*
X516351Y338968D01*
X516421Y339500D01*
D02*
G37*
G36*
X491421D02*
X488000D01*
Y336079D01*
X488532Y336149D01*
X489493Y336547D01*
X490319Y337181D01*
X490953Y338007D01*
X491351Y338968D01*
X491421Y339500D01*
D02*
G37*
G36*
X466421D02*
X463000D01*
Y336079D01*
X463532Y336149D01*
X464493Y336547D01*
X465319Y337181D01*
X465953Y338007D01*
X466351Y338968D01*
X466421Y339500D01*
D02*
G37*
G36*
X441421D02*
X438000D01*
Y336079D01*
X438532Y336149D01*
X439493Y336547D01*
X440319Y337181D01*
X440953Y338007D01*
X441351Y338968D01*
X441421Y339500D01*
D02*
G37*
G36*
X512000D02*
X508579D01*
X508649Y338968D01*
X509047Y338007D01*
X509681Y337181D01*
X510507Y336547D01*
X511468Y336149D01*
X512000Y336079D01*
Y339500D01*
D02*
G37*
G36*
X487000D02*
X483579D01*
X483649Y338968D01*
X484047Y338007D01*
X484681Y337181D01*
X485507Y336547D01*
X486468Y336149D01*
X487000Y336079D01*
Y339500D01*
D02*
G37*
G36*
X462000D02*
X458579D01*
X458649Y338968D01*
X459047Y338007D01*
X459681Y337181D01*
X460507Y336547D01*
X461468Y336149D01*
X462000Y336079D01*
Y339500D01*
D02*
G37*
G36*
X437000D02*
X433579D01*
X433649Y338968D01*
X434047Y338007D01*
X434681Y337181D01*
X435507Y336547D01*
X436468Y336149D01*
X437000Y336079D01*
Y339500D01*
D02*
G37*
G36*
X487500Y333987D02*
X486468Y333851D01*
X485507Y333453D01*
X484681Y332819D01*
X484047Y331993D01*
X483649Y331032D01*
X483513Y330000D01*
X483649Y328968D01*
X484047Y328007D01*
X484681Y327181D01*
X485507Y326547D01*
X486468Y326149D01*
X487500Y326013D01*
X488532Y326149D01*
X489493Y326547D01*
X490319Y327181D01*
X490953Y328007D01*
X491351Y328968D01*
X491487Y330000D01*
X491351Y331032D01*
X490953Y331993D01*
X490319Y332819D01*
X489493Y333453D01*
X488532Y333851D01*
X487500Y333987D01*
D02*
G37*
G36*
X462500D02*
X461468Y333851D01*
X460507Y333453D01*
X459681Y332819D01*
X459047Y331993D01*
X458649Y331032D01*
X458513Y330000D01*
X458649Y328968D01*
X459047Y328007D01*
X459681Y327181D01*
X460507Y326547D01*
X461468Y326149D01*
X462500Y326013D01*
X463532Y326149D01*
X464493Y326547D01*
X465319Y327181D01*
X465953Y328007D01*
X466351Y328968D01*
X466487Y330000D01*
X466351Y331032D01*
X465953Y331993D01*
X465319Y332819D01*
X464493Y333453D01*
X463532Y333851D01*
X462500Y333987D01*
D02*
G37*
G36*
X491453Y323953D02*
X483547D01*
Y316047D01*
X491453D01*
Y323953D01*
D02*
G37*
G36*
X466453D02*
X458547D01*
Y316047D01*
X466453D01*
Y323953D01*
D02*
G37*
G36*
X320000Y323987D02*
X318968Y323851D01*
X318007Y323453D01*
X317181Y322819D01*
X316547Y321993D01*
X316149Y321032D01*
X316013Y320000D01*
X316149Y318968D01*
X316547Y318007D01*
X317181Y317181D01*
X318007Y316547D01*
X318968Y316149D01*
X320000Y316013D01*
X321032Y316149D01*
X321993Y316547D01*
X322819Y317181D01*
X323453Y318007D01*
X323851Y318968D01*
X323987Y320000D01*
X323851Y321032D01*
X323453Y321993D01*
X322819Y322819D01*
X321993Y323453D01*
X321032Y323851D01*
X320000Y323987D01*
D02*
G37*
G36*
X305000D02*
X303968Y323851D01*
X303007Y323453D01*
X302181Y322819D01*
X301547Y321993D01*
X301149Y321032D01*
X301013Y320000D01*
X301149Y318968D01*
X301547Y318007D01*
X302181Y317181D01*
X303007Y316547D01*
X303968Y316149D01*
X305000Y316013D01*
X306032Y316149D01*
X306993Y316547D01*
X307819Y317181D01*
X308453Y318007D01*
X308851Y318968D01*
X308987Y320000D01*
X308851Y321032D01*
X308453Y321993D01*
X307819Y322819D01*
X306993Y323453D01*
X306032Y323851D01*
X305000Y323987D01*
D02*
G37*
G36*
X320000Y313987D02*
X318968Y313851D01*
X318007Y313453D01*
X317181Y312819D01*
X316547Y311993D01*
X316149Y311032D01*
X316013Y310000D01*
X316149Y308968D01*
X316547Y308007D01*
X317181Y307181D01*
X318007Y306547D01*
X318968Y306149D01*
X320000Y306013D01*
X321032Y306149D01*
X321993Y306547D01*
X322819Y307181D01*
X323453Y308007D01*
X323851Y308968D01*
X323987Y310000D01*
X323851Y311032D01*
X323453Y311993D01*
X322819Y312819D01*
X321993Y313453D01*
X321032Y313851D01*
X320000Y313987D01*
D02*
G37*
G36*
X305000D02*
X303968Y313851D01*
X303007Y313453D01*
X302181Y312819D01*
X301547Y311993D01*
X301149Y311032D01*
X301013Y310000D01*
X301149Y308968D01*
X301547Y308007D01*
X302181Y307181D01*
X303007Y306547D01*
X303968Y306149D01*
X305000Y306013D01*
X306032Y306149D01*
X306993Y306547D01*
X307819Y307181D01*
X308453Y308007D01*
X308851Y308968D01*
X308987Y310000D01*
X308851Y311032D01*
X308453Y311993D01*
X307819Y312819D01*
X306993Y313453D01*
X306032Y313851D01*
X305000Y313987D01*
D02*
G37*
G36*
X308953Y303953D02*
X305500D01*
Y300500D01*
X308953D01*
Y303953D01*
D02*
G37*
G36*
X304500D02*
X301047D01*
Y300500D01*
X304500D01*
Y303953D01*
D02*
G37*
G36*
X407500Y306535D02*
X406456Y306397D01*
X405483Y305994D01*
X404647Y305353D01*
X404006Y304517D01*
X403603Y303544D01*
X403466Y302500D01*
X403603Y301456D01*
X404006Y300483D01*
X404647Y299647D01*
X405483Y299006D01*
X406456Y298603D01*
X407500Y298465D01*
X408544Y298603D01*
X409517Y299006D01*
X410353Y299647D01*
X410994Y300483D01*
X411397Y301456D01*
X411535Y302500D01*
X411397Y303544D01*
X410994Y304517D01*
X410353Y305353D01*
X409517Y305994D01*
X408544Y306397D01*
X407500Y306535D01*
D02*
G37*
G36*
X347500D02*
X346456Y306397D01*
X345483Y305994D01*
X344647Y305353D01*
X344006Y304517D01*
X343603Y303544D01*
X343465Y302500D01*
X343603Y301456D01*
X344006Y300483D01*
X344647Y299647D01*
X345483Y299006D01*
X346456Y298603D01*
X347500Y298465D01*
X348544Y298603D01*
X349517Y299006D01*
X350353Y299647D01*
X350994Y300483D01*
X351397Y301456D01*
X351535Y302500D01*
X351397Y303544D01*
X350994Y304517D01*
X350353Y305353D01*
X349517Y305994D01*
X348544Y306397D01*
X347500Y306535D01*
D02*
G37*
G36*
X308953Y299500D02*
X305500D01*
Y296047D01*
X308953D01*
Y299500D01*
D02*
G37*
G36*
X304500D02*
X301047D01*
Y296047D01*
X304500D01*
Y299500D01*
D02*
G37*
G36*
X320000Y303987D02*
X318968Y303851D01*
X318007Y303453D01*
X317181Y302819D01*
X316547Y301993D01*
X316149Y301032D01*
X316013Y300000D01*
X316149Y298968D01*
X316547Y298007D01*
X317181Y297181D01*
X318007Y296547D01*
X318968Y296149D01*
X320000Y296013D01*
X321032Y296149D01*
X321993Y296547D01*
X322819Y297181D01*
X323453Y298007D01*
X323851Y298968D01*
X323987Y300000D01*
X323851Y301032D01*
X323453Y301993D01*
X322819Y302819D01*
X321993Y303453D01*
X321032Y303851D01*
X320000Y303987D01*
D02*
G37*
G36*
X493453Y296453D02*
X490000D01*
Y293000D01*
X493453D01*
Y296453D01*
D02*
G37*
G36*
X438453D02*
X435000D01*
Y293000D01*
X438453D01*
Y296453D01*
D02*
G37*
G36*
X489000D02*
X485547D01*
Y293000D01*
X489000D01*
Y296453D01*
D02*
G37*
G36*
X434000D02*
X430547D01*
Y293000D01*
X434000D01*
Y296453D01*
D02*
G37*
G36*
X493453Y292000D02*
X490000D01*
Y288547D01*
X493453D01*
Y292000D01*
D02*
G37*
G36*
X489000D02*
X485547D01*
Y288547D01*
X489000D01*
Y292000D01*
D02*
G37*
G36*
X438453D02*
X435000D01*
Y288547D01*
X438453D01*
Y292000D01*
D02*
G37*
G36*
X434000D02*
X430547D01*
Y288547D01*
X434000D01*
Y292000D01*
D02*
G37*
G36*
X407500Y296534D02*
X406456Y296397D01*
X405483Y295994D01*
X404647Y295353D01*
X404006Y294517D01*
X403603Y293544D01*
X403466Y292500D01*
X403603Y291456D01*
X404006Y290483D01*
X404647Y289647D01*
X405483Y289006D01*
X406456Y288603D01*
X407500Y288465D01*
X408544Y288603D01*
X409517Y289006D01*
X410353Y289647D01*
X410994Y290483D01*
X411397Y291456D01*
X411535Y292500D01*
X411397Y293544D01*
X410994Y294517D01*
X410353Y295353D01*
X409517Y295994D01*
X408544Y296397D01*
X407500Y296534D01*
D02*
G37*
G36*
X357500D02*
X356456Y296397D01*
X355483Y295994D01*
X354647Y295353D01*
X354006Y294517D01*
X353603Y293544D01*
X353466Y292500D01*
X353603Y291456D01*
X354006Y290483D01*
X354647Y289647D01*
X355483Y289006D01*
X356456Y288603D01*
X357500Y288465D01*
X358544Y288603D01*
X359517Y289006D01*
X360353Y289647D01*
X360994Y290483D01*
X361397Y291456D01*
X361535Y292500D01*
X361397Y293544D01*
X360994Y294517D01*
X360353Y295353D01*
X359517Y295994D01*
X358544Y296397D01*
X357500Y296534D01*
D02*
G37*
G36*
X320000Y333987D02*
X318968Y333851D01*
X318007Y333453D01*
X317181Y332819D01*
X316547Y331993D01*
X316149Y331032D01*
X316013Y330000D01*
X316149Y328968D01*
X316547Y328007D01*
X317181Y327181D01*
X318007Y326547D01*
X318968Y326149D01*
X320000Y326013D01*
X321032Y326149D01*
X321496Y326341D01*
X333471Y314367D01*
Y305000D01*
X333587Y304415D01*
X333919Y303919D01*
X343805Y294032D01*
X343603Y293544D01*
X343465Y292500D01*
X343603Y291456D01*
X344006Y290483D01*
X344647Y289647D01*
X345483Y289006D01*
X346456Y288603D01*
X347500Y288465D01*
X348544Y288603D01*
X349517Y289006D01*
X350353Y289647D01*
X350994Y290483D01*
X351397Y291456D01*
X351535Y292500D01*
X351397Y293544D01*
X350994Y294517D01*
X350353Y295353D01*
X349517Y295994D01*
X348544Y296397D01*
X347500Y296534D01*
X346456Y296397D01*
X345968Y296195D01*
X336529Y305633D01*
Y315000D01*
X336413Y315585D01*
X336081Y316081D01*
X323659Y328504D01*
X323851Y328968D01*
X323987Y330000D01*
X323851Y331032D01*
X323453Y331993D01*
X322819Y332819D01*
X321993Y333453D01*
X321032Y333851D01*
X320000Y333987D01*
D02*
G37*
G36*
X407500Y286535D02*
X406456Y286397D01*
X405483Y285994D01*
X404647Y285353D01*
X404006Y284517D01*
X403603Y283544D01*
X403466Y282500D01*
X403603Y281456D01*
X404006Y280483D01*
X404647Y279647D01*
X405483Y279006D01*
X406456Y278603D01*
X407500Y278466D01*
X408544Y278603D01*
X409517Y279006D01*
X410353Y279647D01*
X410994Y280483D01*
X411397Y281456D01*
X411535Y282500D01*
X411397Y283544D01*
X410994Y284517D01*
X410353Y285353D01*
X409517Y285994D01*
X408544Y286397D01*
X407500Y286535D01*
D02*
G37*
G36*
X357500D02*
X356456Y286397D01*
X355483Y285994D01*
X354647Y285353D01*
X354006Y284517D01*
X353603Y283544D01*
X353466Y282500D01*
X353603Y281456D01*
X354006Y280483D01*
X354647Y279647D01*
X355483Y279006D01*
X356456Y278603D01*
X357500Y278466D01*
X358544Y278603D01*
X359517Y279006D01*
X360353Y279647D01*
X360994Y280483D01*
X361397Y281456D01*
X361535Y282500D01*
X361397Y283544D01*
X360994Y284517D01*
X360353Y285353D01*
X359517Y285994D01*
X358544Y286397D01*
X357500Y286535D01*
D02*
G37*
G36*
X347500D02*
X346456Y286397D01*
X345483Y285994D01*
X344647Y285353D01*
X344006Y284517D01*
X343603Y283544D01*
X343465Y282500D01*
X343603Y281456D01*
X344006Y280483D01*
X344647Y279647D01*
X345483Y279006D01*
X346456Y278603D01*
X347500Y278466D01*
X348544Y278603D01*
X349517Y279006D01*
X350353Y279647D01*
X350994Y280483D01*
X351397Y281456D01*
X351535Y282500D01*
X351397Y283544D01*
X350994Y284517D01*
X350353Y285353D01*
X349517Y285994D01*
X348544Y286397D01*
X347500Y286535D01*
D02*
G37*
G36*
X323953Y281453D02*
X320500D01*
Y278000D01*
X323953D01*
Y281453D01*
D02*
G37*
G36*
X319500D02*
X316047D01*
Y278000D01*
X319500D01*
Y281453D01*
D02*
G37*
G36*
X323953Y277000D02*
X320500D01*
Y273547D01*
X323953D01*
Y277000D01*
D02*
G37*
G36*
X319500D02*
X316047D01*
Y273547D01*
X319500D01*
Y277000D01*
D02*
G37*
G36*
X489500Y276487D02*
X488468Y276351D01*
X487507Y275953D01*
X486681Y275319D01*
X486047Y274493D01*
X485649Y273532D01*
X485513Y272500D01*
X485649Y271468D01*
X486047Y270507D01*
X486681Y269681D01*
X487507Y269047D01*
X488468Y268649D01*
X489500Y268513D01*
X490532Y268649D01*
X491493Y269047D01*
X492319Y269681D01*
X492953Y270507D01*
X493351Y271468D01*
X493487Y272500D01*
X493351Y273532D01*
X492953Y274493D01*
X492319Y275319D01*
X491493Y275953D01*
X490532Y276351D01*
X489500Y276487D01*
D02*
G37*
G36*
X434500D02*
X433468Y276351D01*
X432507Y275953D01*
X431681Y275319D01*
X431047Y274493D01*
X430649Y273532D01*
X430513Y272500D01*
X430649Y271468D01*
X431047Y270507D01*
X431681Y269681D01*
X432507Y269047D01*
X433468Y268649D01*
X434500Y268513D01*
X435532Y268649D01*
X436493Y269047D01*
X437319Y269681D01*
X437953Y270507D01*
X438351Y271468D01*
X438487Y272500D01*
X438351Y273532D01*
X437953Y274493D01*
X437319Y275319D01*
X436493Y275953D01*
X435532Y276351D01*
X434500Y276487D01*
D02*
G37*
G36*
X407500Y276535D02*
X406456Y276397D01*
X405483Y275994D01*
X404647Y275353D01*
X404006Y274517D01*
X403603Y273544D01*
X403466Y272500D01*
X403603Y271456D01*
X404006Y270483D01*
X404647Y269647D01*
X405483Y269006D01*
X406456Y268603D01*
X407500Y268465D01*
X408544Y268603D01*
X409517Y269006D01*
X410353Y269647D01*
X410994Y270483D01*
X411397Y271456D01*
X411535Y272500D01*
X411397Y273544D01*
X410994Y274517D01*
X410353Y275353D01*
X409517Y275994D01*
X408544Y276397D01*
X407500Y276535D01*
D02*
G37*
G36*
X357500D02*
X356456Y276397D01*
X355483Y275994D01*
X354647Y275353D01*
X354006Y274517D01*
X353603Y273544D01*
X353466Y272500D01*
X353603Y271456D01*
X354006Y270483D01*
X354647Y269647D01*
X355483Y269006D01*
X356456Y268603D01*
X357500Y268465D01*
X358544Y268603D01*
X359517Y269006D01*
X360353Y269647D01*
X360994Y270483D01*
X361397Y271456D01*
X361535Y272500D01*
X361397Y273544D01*
X360994Y274517D01*
X360353Y275353D01*
X359517Y275994D01*
X358544Y276397D01*
X357500Y276535D01*
D02*
G37*
G36*
X347500D02*
X346456Y276397D01*
X345483Y275994D01*
X344647Y275353D01*
X344006Y274517D01*
X343603Y273544D01*
X343465Y272500D01*
X343603Y271456D01*
X344006Y270483D01*
X344647Y269647D01*
X345483Y269006D01*
X346456Y268603D01*
X347500Y268465D01*
X348544Y268603D01*
X349517Y269006D01*
X350353Y269647D01*
X350994Y270483D01*
X351397Y271456D01*
X351535Y272500D01*
X351397Y273544D01*
X350994Y274517D01*
X350353Y275353D01*
X349517Y275994D01*
X348544Y276397D01*
X347500Y276535D01*
D02*
G37*
G36*
X489500Y266487D02*
X488468Y266351D01*
X487507Y265953D01*
X486681Y265319D01*
X486047Y264493D01*
X485649Y263532D01*
X485513Y262500D01*
X485649Y261468D01*
X486047Y260507D01*
X486681Y259681D01*
X487507Y259047D01*
X488468Y258649D01*
X489500Y258513D01*
X490532Y258649D01*
X491493Y259047D01*
X492319Y259681D01*
X492953Y260507D01*
X493351Y261468D01*
X493487Y262500D01*
X493351Y263532D01*
X492953Y264493D01*
X492319Y265319D01*
X491493Y265953D01*
X490532Y266351D01*
X489500Y266487D01*
D02*
G37*
G36*
X434500D02*
X433468Y266351D01*
X432507Y265953D01*
X431681Y265319D01*
X431047Y264493D01*
X430649Y263532D01*
X430513Y262500D01*
X430649Y261468D01*
X431047Y260507D01*
X431681Y259681D01*
X432507Y259047D01*
X433468Y258649D01*
X434500Y258513D01*
X435532Y258649D01*
X436493Y259047D01*
X437319Y259681D01*
X437953Y260507D01*
X438351Y261468D01*
X438487Y262500D01*
X438351Y263532D01*
X437953Y264493D01*
X437319Y265319D01*
X436493Y265953D01*
X435532Y266351D01*
X434500Y266487D01*
D02*
G37*
G36*
X407500Y266534D02*
X406456Y266397D01*
X405483Y265994D01*
X404647Y265353D01*
X404006Y264517D01*
X403603Y263544D01*
X403466Y262500D01*
X403603Y261456D01*
X404006Y260483D01*
X404647Y259647D01*
X405483Y259006D01*
X406456Y258603D01*
X407500Y258466D01*
X408544Y258603D01*
X409517Y259006D01*
X410353Y259647D01*
X410994Y260483D01*
X411397Y261456D01*
X411535Y262500D01*
X411397Y263544D01*
X410994Y264517D01*
X410353Y265353D01*
X409517Y265994D01*
X408544Y266397D01*
X407500Y266534D01*
D02*
G37*
G36*
X377500D02*
X376456Y266397D01*
X375483Y265994D01*
X374647Y265353D01*
X374006Y264517D01*
X373603Y263544D01*
X373465Y262500D01*
X373603Y261456D01*
X374006Y260483D01*
X374647Y259647D01*
X375483Y259006D01*
X376456Y258603D01*
X377500Y258466D01*
X378544Y258603D01*
X379517Y259006D01*
X380353Y259647D01*
X380994Y260483D01*
X381397Y261456D01*
X381535Y262500D01*
X381397Y263544D01*
X380994Y264517D01*
X380353Y265353D01*
X379517Y265994D01*
X378544Y266397D01*
X377500Y266534D01*
D02*
G37*
G36*
X367500D02*
X366456Y266397D01*
X365483Y265994D01*
X364647Y265353D01*
X364006Y264517D01*
X363603Y263544D01*
X363465Y262500D01*
X363603Y261456D01*
X364006Y260483D01*
X364647Y259647D01*
X365483Y259006D01*
X366456Y258603D01*
X367500Y258466D01*
X368544Y258603D01*
X369517Y259006D01*
X370353Y259647D01*
X370994Y260483D01*
X371397Y261456D01*
X371534Y262500D01*
X371397Y263544D01*
X370994Y264517D01*
X370353Y265353D01*
X369517Y265994D01*
X368544Y266397D01*
X367500Y266534D01*
D02*
G37*
G36*
X357500D02*
X356456Y266397D01*
X355483Y265994D01*
X354647Y265353D01*
X354006Y264517D01*
X353603Y263544D01*
X353466Y262500D01*
X353603Y261456D01*
X354006Y260483D01*
X354647Y259647D01*
X355483Y259006D01*
X356456Y258603D01*
X357500Y258466D01*
X358544Y258603D01*
X359517Y259006D01*
X360353Y259647D01*
X360994Y260483D01*
X361397Y261456D01*
X361535Y262500D01*
X361397Y263544D01*
X360994Y264517D01*
X360353Y265353D01*
X359517Y265994D01*
X358544Y266397D01*
X357500Y266534D01*
D02*
G37*
G36*
X347500D02*
X346456Y266397D01*
X345483Y265994D01*
X344647Y265353D01*
X344006Y264517D01*
X343603Y263544D01*
X343465Y262500D01*
X343603Y261456D01*
X344006Y260483D01*
X344647Y259647D01*
X345483Y259006D01*
X346456Y258603D01*
X347500Y258466D01*
X348544Y258603D01*
X349517Y259006D01*
X350353Y259647D01*
X350994Y260483D01*
X351397Y261456D01*
X351535Y262500D01*
X351397Y263544D01*
X350994Y264517D01*
X350353Y265353D01*
X349517Y265994D01*
X348544Y266397D01*
X347500Y266534D01*
D02*
G37*
G36*
X320000Y261487D02*
X318968Y261351D01*
X318007Y260953D01*
X317181Y260319D01*
X316547Y259493D01*
X316149Y258532D01*
X316013Y257500D01*
X316149Y256468D01*
X316547Y255507D01*
X317181Y254681D01*
X318007Y254047D01*
X318968Y253649D01*
X320000Y253513D01*
X321032Y253649D01*
X321993Y254047D01*
X322819Y254681D01*
X323453Y255507D01*
X323851Y256468D01*
X323987Y257500D01*
X323851Y258532D01*
X323453Y259493D01*
X322819Y260319D01*
X321993Y260953D01*
X321032Y261351D01*
X320000Y261487D01*
D02*
G37*
G36*
X489500Y256487D02*
X488468Y256351D01*
X487507Y255953D01*
X486681Y255319D01*
X486047Y254493D01*
X485649Y253532D01*
X485513Y252500D01*
X485649Y251468D01*
X486047Y250507D01*
X486681Y249681D01*
X487507Y249047D01*
X488468Y248649D01*
X489500Y248513D01*
X490532Y248649D01*
X491493Y249047D01*
X492319Y249681D01*
X492953Y250507D01*
X493351Y251468D01*
X493487Y252500D01*
X493351Y253532D01*
X492953Y254493D01*
X492319Y255319D01*
X491493Y255953D01*
X490532Y256351D01*
X489500Y256487D01*
D02*
G37*
G36*
X434500D02*
X433468Y256351D01*
X432507Y255953D01*
X431681Y255319D01*
X431047Y254493D01*
X430649Y253532D01*
X430513Y252500D01*
X430649Y251468D01*
X431047Y250507D01*
X431681Y249681D01*
X432507Y249047D01*
X433468Y248649D01*
X434500Y248513D01*
X435532Y248649D01*
X436493Y249047D01*
X437319Y249681D01*
X437953Y250507D01*
X438351Y251468D01*
X438487Y252500D01*
X438351Y253532D01*
X437953Y254493D01*
X437319Y255319D01*
X436493Y255953D01*
X435532Y256351D01*
X434500Y256487D01*
D02*
G37*
G36*
X407500Y256535D02*
X406456Y256397D01*
X405483Y255994D01*
X404647Y255353D01*
X404006Y254517D01*
X403603Y253544D01*
X403466Y252500D01*
X403603Y251456D01*
X404006Y250483D01*
X404647Y249647D01*
X405483Y249006D01*
X406456Y248603D01*
X407500Y248465D01*
X408544Y248603D01*
X409517Y249006D01*
X410353Y249647D01*
X410994Y250483D01*
X411397Y251456D01*
X411535Y252500D01*
X411397Y253544D01*
X410994Y254517D01*
X410353Y255353D01*
X409517Y255994D01*
X408544Y256397D01*
X407500Y256535D01*
D02*
G37*
G36*
X357500D02*
X356456Y256397D01*
X355483Y255994D01*
X354647Y255353D01*
X354006Y254517D01*
X353603Y253544D01*
X353466Y252500D01*
X353603Y251456D01*
X354006Y250483D01*
X354647Y249647D01*
X355483Y249006D01*
X356456Y248603D01*
X357500Y248465D01*
X358544Y248603D01*
X359517Y249006D01*
X360353Y249647D01*
X360994Y250483D01*
X361397Y251456D01*
X361535Y252500D01*
X361397Y253544D01*
X360994Y254517D01*
X360353Y255353D01*
X359517Y255994D01*
X358544Y256397D01*
X357500Y256535D01*
D02*
G37*
G36*
X347500D02*
X346456Y256397D01*
X345483Y255994D01*
X344647Y255353D01*
X344006Y254517D01*
X343603Y253544D01*
X343465Y252500D01*
X343603Y251456D01*
X344006Y250483D01*
X344647Y249647D01*
X345483Y249006D01*
X346456Y248603D01*
X347500Y248465D01*
X348544Y248603D01*
X349517Y249006D01*
X350353Y249647D01*
X350994Y250483D01*
X351397Y251456D01*
X351535Y252500D01*
X351397Y253544D01*
X350994Y254517D01*
X350353Y255353D01*
X349517Y255994D01*
X348544Y256397D01*
X347500Y256535D01*
D02*
G37*
G36*
X320000Y251487D02*
X318968Y251351D01*
X318007Y250953D01*
X317181Y250319D01*
X316547Y249493D01*
X316149Y248532D01*
X316013Y247500D01*
X316149Y246468D01*
X316547Y245507D01*
X317181Y244681D01*
X318007Y244047D01*
X318968Y243649D01*
X320000Y243513D01*
X321032Y243649D01*
X321993Y244047D01*
X322819Y244681D01*
X323453Y245507D01*
X323851Y246468D01*
X323987Y247500D01*
X323851Y248532D01*
X323453Y249493D01*
X322819Y250319D01*
X321993Y250953D01*
X321032Y251351D01*
X320000Y251487D01*
D02*
G37*
G36*
X489500Y246487D02*
X488468Y246351D01*
X487507Y245953D01*
X486681Y245319D01*
X486047Y244493D01*
X485649Y243532D01*
X485513Y242500D01*
X485649Y241468D01*
X486047Y240507D01*
X486681Y239681D01*
X487507Y239047D01*
X488468Y238649D01*
X489500Y238513D01*
X490532Y238649D01*
X491493Y239047D01*
X492319Y239681D01*
X492953Y240507D01*
X493351Y241468D01*
X493487Y242500D01*
X493351Y243532D01*
X492953Y244493D01*
X492319Y245319D01*
X491493Y245953D01*
X490532Y246351D01*
X489500Y246487D01*
D02*
G37*
G36*
X434500D02*
X433468Y246351D01*
X432507Y245953D01*
X431681Y245319D01*
X431047Y244493D01*
X430649Y243532D01*
X430513Y242500D01*
X430649Y241468D01*
X431047Y240507D01*
X431681Y239681D01*
X432507Y239047D01*
X433468Y238649D01*
X434500Y238513D01*
X435532Y238649D01*
X436493Y239047D01*
X437319Y239681D01*
X437953Y240507D01*
X438351Y241468D01*
X438487Y242500D01*
X438351Y243532D01*
X437953Y244493D01*
X437319Y245319D01*
X436493Y245953D01*
X435532Y246351D01*
X434500Y246487D01*
D02*
G37*
G36*
X407500Y246534D02*
X406456Y246397D01*
X405483Y245994D01*
X404647Y245353D01*
X404006Y244517D01*
X403603Y243544D01*
X403466Y242500D01*
X403603Y241456D01*
X404006Y240483D01*
X404647Y239647D01*
X405483Y239006D01*
X406456Y238603D01*
X407500Y238465D01*
X408544Y238603D01*
X409517Y239006D01*
X410353Y239647D01*
X410994Y240483D01*
X411397Y241456D01*
X411535Y242500D01*
X411397Y243544D01*
X410994Y244517D01*
X410353Y245353D01*
X409517Y245994D01*
X408544Y246397D01*
X407500Y246534D01*
D02*
G37*
G36*
X357500D02*
X356456Y246397D01*
X355483Y245994D01*
X354647Y245353D01*
X354006Y244517D01*
X353603Y243544D01*
X353466Y242500D01*
X353603Y241456D01*
X354006Y240483D01*
X354647Y239647D01*
X355483Y239006D01*
X356456Y238603D01*
X357500Y238465D01*
X358544Y238603D01*
X359517Y239006D01*
X360353Y239647D01*
X360994Y240483D01*
X361397Y241456D01*
X361535Y242500D01*
X361397Y243544D01*
X360994Y244517D01*
X360353Y245353D01*
X359517Y245994D01*
X358544Y246397D01*
X357500Y246534D01*
D02*
G37*
G36*
X347500D02*
X346456Y246397D01*
X345483Y245994D01*
X344647Y245353D01*
X344006Y244517D01*
X343603Y243544D01*
X343465Y242500D01*
X343603Y241456D01*
X344006Y240483D01*
X344647Y239647D01*
X345483Y239006D01*
X346456Y238603D01*
X347500Y238465D01*
X348544Y238603D01*
X349517Y239006D01*
X350353Y239647D01*
X350994Y240483D01*
X351397Y241456D01*
X351535Y242500D01*
X351397Y243544D01*
X350994Y244517D01*
X350353Y245353D01*
X349517Y245994D01*
X348544Y246397D01*
X347500Y246534D01*
D02*
G37*
G36*
X320000Y241487D02*
X318968Y241351D01*
X318007Y240953D01*
X317181Y240319D01*
X316547Y239493D01*
X316149Y238532D01*
X316013Y237500D01*
X316149Y236468D01*
X316547Y235507D01*
X317181Y234681D01*
X318007Y234047D01*
X318968Y233649D01*
X320000Y233513D01*
X321032Y233649D01*
X321993Y234047D01*
X322819Y234681D01*
X323453Y235507D01*
X323851Y236468D01*
X323987Y237500D01*
X323851Y238532D01*
X323453Y239493D01*
X322819Y240319D01*
X321993Y240953D01*
X321032Y241351D01*
X320000Y241487D01*
D02*
G37*
G36*
X505000Y236487D02*
X503968Y236351D01*
X503007Y235953D01*
X502181Y235319D01*
X501547Y234493D01*
X501149Y233532D01*
X501013Y232500D01*
X501149Y231468D01*
X501547Y230507D01*
X502181Y229681D01*
X503007Y229047D01*
X503968Y228649D01*
X505000Y228513D01*
X506032Y228649D01*
X506993Y229047D01*
X507819Y229681D01*
X508453Y230507D01*
X508851Y231468D01*
X508987Y232500D01*
X508851Y233532D01*
X508453Y234493D01*
X507819Y235319D01*
X506993Y235953D01*
X506032Y236351D01*
X505000Y236487D01*
D02*
G37*
G36*
X450000D02*
X448968Y236351D01*
X448007Y235953D01*
X447181Y235319D01*
X446547Y234493D01*
X446149Y233532D01*
X446013Y232500D01*
X446149Y231468D01*
X446547Y230507D01*
X447181Y229681D01*
X448007Y229047D01*
X448968Y228649D01*
X450000Y228513D01*
X451032Y228649D01*
X451993Y229047D01*
X452819Y229681D01*
X453453Y230507D01*
X453851Y231468D01*
X453987Y232500D01*
X453851Y233532D01*
X453453Y234493D01*
X452819Y235319D01*
X451993Y235953D01*
X451032Y236351D01*
X450000Y236487D01*
D02*
G37*
G36*
X434500D02*
X433468Y236351D01*
X432507Y235953D01*
X431681Y235319D01*
X431047Y234493D01*
X430649Y233532D01*
X430513Y232500D01*
X430649Y231468D01*
X431047Y230507D01*
X431681Y229681D01*
X432507Y229047D01*
X433468Y228649D01*
X434500Y228513D01*
X435532Y228649D01*
X436493Y229047D01*
X437319Y229681D01*
X437953Y230507D01*
X438351Y231468D01*
X438487Y232500D01*
X438351Y233532D01*
X437953Y234493D01*
X437319Y235319D01*
X436493Y235953D01*
X435532Y236351D01*
X434500Y236487D01*
D02*
G37*
G36*
X407500Y236535D02*
X406456Y236397D01*
X405483Y235994D01*
X404647Y235353D01*
X404006Y234517D01*
X403603Y233544D01*
X403466Y232500D01*
X403603Y231456D01*
X404006Y230483D01*
X404647Y229647D01*
X405483Y229006D01*
X406456Y228603D01*
X407500Y228466D01*
X408544Y228603D01*
X409517Y229006D01*
X410353Y229647D01*
X410994Y230483D01*
X411397Y231456D01*
X411535Y232500D01*
X411397Y233544D01*
X410994Y234517D01*
X410353Y235353D01*
X409517Y235994D01*
X408544Y236397D01*
X407500Y236535D01*
D02*
G37*
G36*
X397500D02*
X396456Y236397D01*
X395483Y235994D01*
X394647Y235353D01*
X394006Y234517D01*
X393603Y233544D01*
X393465Y232500D01*
X393603Y231456D01*
X394006Y230483D01*
X394647Y229647D01*
X395483Y229006D01*
X396456Y228603D01*
X397500Y228466D01*
X398544Y228603D01*
X399517Y229006D01*
X400353Y229647D01*
X400994Y230483D01*
X401397Y231456D01*
X401535Y232500D01*
X401397Y233544D01*
X400994Y234517D01*
X400353Y235353D01*
X399517Y235994D01*
X398544Y236397D01*
X397500Y236535D01*
D02*
G37*
G36*
X357500D02*
X356456Y236397D01*
X355483Y235994D01*
X354647Y235353D01*
X354006Y234517D01*
X353603Y233544D01*
X353466Y232500D01*
X353603Y231456D01*
X354006Y230483D01*
X354647Y229647D01*
X355483Y229006D01*
X356456Y228603D01*
X357500Y228466D01*
X358544Y228603D01*
X359517Y229006D01*
X360353Y229647D01*
X360994Y230483D01*
X361397Y231456D01*
X361535Y232500D01*
X361397Y233544D01*
X360994Y234517D01*
X360353Y235353D01*
X359517Y235994D01*
X358544Y236397D01*
X357500Y236535D01*
D02*
G37*
G36*
X505000Y226487D02*
X503968Y226351D01*
X503007Y225953D01*
X502181Y225319D01*
X501547Y224493D01*
X501149Y223532D01*
X501013Y222500D01*
X501149Y221468D01*
X501547Y220507D01*
X502181Y219681D01*
X503007Y219047D01*
X503968Y218649D01*
X505000Y218513D01*
X506032Y218649D01*
X506993Y219047D01*
X507819Y219681D01*
X508453Y220507D01*
X508851Y221468D01*
X508987Y222500D01*
X508851Y223532D01*
X508453Y224493D01*
X507819Y225319D01*
X506993Y225953D01*
X506032Y226351D01*
X505000Y226487D01*
D02*
G37*
G36*
X489500D02*
X488468Y226351D01*
X487507Y225953D01*
X486681Y225319D01*
X486047Y224493D01*
X485649Y223532D01*
X485513Y222500D01*
X485649Y221468D01*
X486047Y220507D01*
X486681Y219681D01*
X487507Y219047D01*
X488468Y218649D01*
X489500Y218513D01*
X490532Y218649D01*
X491493Y219047D01*
X492319Y219681D01*
X492953Y220507D01*
X493351Y221468D01*
X493487Y222500D01*
X493351Y223532D01*
X492953Y224493D01*
X492319Y225319D01*
X491493Y225953D01*
X490532Y226351D01*
X489500Y226487D01*
D02*
G37*
G36*
X450000D02*
X448968Y226351D01*
X448007Y225953D01*
X447181Y225319D01*
X446547Y224493D01*
X446149Y223532D01*
X446013Y222500D01*
X446149Y221468D01*
X446547Y220507D01*
X447181Y219681D01*
X448007Y219047D01*
X448968Y218649D01*
X450000Y218513D01*
X451032Y218649D01*
X451993Y219047D01*
X452819Y219681D01*
X453453Y220507D01*
X453851Y221468D01*
X453987Y222500D01*
X453851Y223532D01*
X453453Y224493D01*
X452819Y225319D01*
X451993Y225953D01*
X451032Y226351D01*
X450000Y226487D01*
D02*
G37*
G36*
X434500D02*
X433468Y226351D01*
X432507Y225953D01*
X431681Y225319D01*
X431047Y224493D01*
X430649Y223532D01*
X430513Y222500D01*
X430649Y221468D01*
X431047Y220507D01*
X431681Y219681D01*
X432507Y219047D01*
X433468Y218649D01*
X434500Y218513D01*
X435532Y218649D01*
X436493Y219047D01*
X437319Y219681D01*
X437953Y220507D01*
X438351Y221468D01*
X438487Y222500D01*
X438351Y223532D01*
X437953Y224493D01*
X437319Y225319D01*
X436493Y225953D01*
X435532Y226351D01*
X434500Y226487D01*
D02*
G37*
G36*
X407500Y226535D02*
X406456Y226397D01*
X405483Y225994D01*
X404647Y225353D01*
X404006Y224517D01*
X403603Y223544D01*
X403466Y222500D01*
X403603Y221456D01*
X404006Y220483D01*
X404647Y219647D01*
X405483Y219006D01*
X406456Y218603D01*
X407500Y218465D01*
X408544Y218603D01*
X409517Y219006D01*
X410353Y219647D01*
X410994Y220483D01*
X411397Y221456D01*
X411535Y222500D01*
X411397Y223544D01*
X410994Y224517D01*
X410353Y225353D01*
X409517Y225994D01*
X408544Y226397D01*
X407500Y226535D01*
D02*
G37*
G36*
X397500D02*
X396456Y226397D01*
X395483Y225994D01*
X394647Y225353D01*
X394006Y224517D01*
X393603Y223544D01*
X393465Y222500D01*
X393603Y221456D01*
X394006Y220483D01*
X394647Y219647D01*
X395483Y219006D01*
X396456Y218603D01*
X397500Y218465D01*
X398544Y218603D01*
X399517Y219006D01*
X400353Y219647D01*
X400994Y220483D01*
X401397Y221456D01*
X401535Y222500D01*
X401397Y223544D01*
X400994Y224517D01*
X400353Y225353D01*
X399517Y225994D01*
X398544Y226397D01*
X397500Y226535D01*
D02*
G37*
G36*
X305000Y221487D02*
X303968Y221351D01*
X303007Y220953D01*
X302181Y220319D01*
X301547Y219493D01*
X301149Y218532D01*
X301013Y217500D01*
X301149Y216468D01*
X301547Y215507D01*
X302181Y214681D01*
X303007Y214047D01*
X303968Y213649D01*
X305000Y213513D01*
X306032Y213649D01*
X306993Y214047D01*
X307819Y214681D01*
X308453Y215507D01*
X308851Y216468D01*
X308987Y217500D01*
X308851Y218532D01*
X308453Y219493D01*
X307819Y220319D01*
X306993Y220953D01*
X306032Y221351D01*
X305000Y221487D01*
D02*
G37*
G36*
X508953Y216453D02*
X505500D01*
Y213000D01*
X508953D01*
Y216453D01*
D02*
G37*
G36*
X453953D02*
X450500D01*
Y213000D01*
X453953D01*
Y216453D01*
D02*
G37*
G36*
X504500D02*
X501047D01*
Y213000D01*
X504500D01*
Y216453D01*
D02*
G37*
G36*
X449500D02*
X446047D01*
Y213000D01*
X449500D01*
Y216453D01*
D02*
G37*
G36*
X508953Y212000D02*
X505500D01*
Y208547D01*
X508953D01*
Y212000D01*
D02*
G37*
G36*
X453953D02*
X450500D01*
Y208547D01*
X453953D01*
Y212000D01*
D02*
G37*
G36*
X449500D02*
X446047D01*
Y208547D01*
X449500D01*
Y212000D01*
D02*
G37*
G36*
X489500Y216487D02*
X488468Y216351D01*
X487507Y215953D01*
X486681Y215319D01*
X486047Y214493D01*
X485649Y213532D01*
X485513Y212500D01*
X485649Y211468D01*
X486047Y210507D01*
X486681Y209681D01*
X487507Y209047D01*
X488468Y208649D01*
X489500Y208513D01*
X490532Y208649D01*
X491493Y209047D01*
X492319Y209681D01*
X492953Y210507D01*
X493351Y211468D01*
X493487Y212500D01*
X493351Y213532D01*
X492953Y214493D01*
X492319Y215319D01*
X491493Y215953D01*
X490532Y216351D01*
X489500Y216487D01*
D02*
G37*
G36*
X434500D02*
X433468Y216351D01*
X432507Y215953D01*
X431681Y215319D01*
X431047Y214493D01*
X430649Y213532D01*
X430513Y212500D01*
X430649Y211468D01*
X431047Y210507D01*
X431681Y209681D01*
X432507Y209047D01*
X433468Y208649D01*
X434500Y208513D01*
X435532Y208649D01*
X436493Y209047D01*
X437319Y209681D01*
X437953Y210507D01*
X438351Y211468D01*
X438487Y212500D01*
X438351Y213532D01*
X437953Y214493D01*
X437319Y215319D01*
X436493Y215953D01*
X435532Y216351D01*
X434500Y216487D01*
D02*
G37*
G36*
X407500Y216534D02*
X406456Y216397D01*
X405483Y215994D01*
X404647Y215353D01*
X404006Y214517D01*
X403603Y213544D01*
X403466Y212500D01*
X403603Y211456D01*
X404006Y210483D01*
X404647Y209647D01*
X405483Y209006D01*
X406456Y208603D01*
X407500Y208466D01*
X408544Y208603D01*
X409517Y209006D01*
X410353Y209647D01*
X410994Y210483D01*
X411397Y211456D01*
X411535Y212500D01*
X411397Y213544D01*
X410994Y214517D01*
X410353Y215353D01*
X409517Y215994D01*
X408544Y216397D01*
X407500Y216534D01*
D02*
G37*
G36*
X397500D02*
X396456Y216397D01*
X395483Y215994D01*
X394647Y215353D01*
X394006Y214517D01*
X393603Y213544D01*
X393465Y212500D01*
X393603Y211456D01*
X394006Y210483D01*
X394647Y209647D01*
X395483Y209006D01*
X396456Y208603D01*
X397500Y208466D01*
X398544Y208603D01*
X399517Y209006D01*
X400353Y209647D01*
X400994Y210483D01*
X401397Y211456D01*
X401535Y212500D01*
X401397Y213544D01*
X400994Y214517D01*
X400353Y215353D01*
X399517Y215994D01*
X398544Y216397D01*
X397500Y216534D01*
D02*
G37*
G36*
X320000Y211487D02*
X318968Y211351D01*
X318007Y210953D01*
X317181Y210319D01*
X316547Y209493D01*
X316149Y208532D01*
X316013Y207500D01*
X316149Y206468D01*
X316547Y205507D01*
X317181Y204681D01*
X318007Y204047D01*
X318968Y203649D01*
X320000Y203513D01*
X321032Y203649D01*
X321993Y204047D01*
X322819Y204681D01*
X323453Y205507D01*
X323851Y206468D01*
X323987Y207500D01*
X323851Y208532D01*
X323453Y209493D01*
X322819Y210319D01*
X321993Y210953D01*
X321032Y211351D01*
X320000Y211487D01*
D02*
G37*
G36*
X305000D02*
X303968Y211351D01*
X303007Y210953D01*
X302181Y210319D01*
X301547Y209493D01*
X301149Y208532D01*
X301013Y207500D01*
X301149Y206468D01*
X301547Y205507D01*
X302181Y204681D01*
X303007Y204047D01*
X303968Y203649D01*
X305000Y203513D01*
X306032Y203649D01*
X306993Y204047D01*
X307819Y204681D01*
X308453Y205507D01*
X308851Y206468D01*
X308987Y207500D01*
X308851Y208532D01*
X308453Y209493D01*
X307819Y210319D01*
X306993Y210953D01*
X306032Y211351D01*
X305000Y211487D01*
D02*
G37*
G36*
X512500Y333987D02*
X511468Y333851D01*
X510507Y333453D01*
X509681Y332819D01*
X509047Y331993D01*
X508649Y331032D01*
X508513Y330000D01*
X508649Y328968D01*
X509047Y328007D01*
X509681Y327181D01*
X510507Y326547D01*
X511468Y326149D01*
X512500Y326013D01*
X513532Y326149D01*
X514267Y326454D01*
X516268Y324453D01*
X516061Y323953D01*
X508547D01*
Y316047D01*
X516453D01*
Y322983D01*
X516953Y323250D01*
X516974Y323236D01*
Y204409D01*
X517077Y203626D01*
X517307Y203072D01*
X517051Y202572D01*
X506645D01*
X501169Y208047D01*
X501376Y208547D01*
X504500D01*
Y212000D01*
X501047D01*
Y208876D01*
X500547Y208669D01*
X498784Y210432D01*
Y225000D01*
X498649Y225683D01*
X498262Y226262D01*
X493264Y231259D01*
X493351Y231468D01*
X493487Y232500D01*
X493351Y233532D01*
X492953Y234493D01*
X492319Y235319D01*
X491493Y235953D01*
X490532Y236351D01*
X489500Y236487D01*
X488468Y236351D01*
X487507Y235953D01*
X486681Y235319D01*
X486047Y234493D01*
X485649Y233532D01*
X485513Y232500D01*
X485649Y231468D01*
X486047Y230507D01*
X486681Y229681D01*
X487507Y229047D01*
X488468Y228649D01*
X489500Y228513D01*
X490532Y228649D01*
X490741Y228736D01*
X495216Y224261D01*
Y209693D01*
X495352Y209010D01*
X495738Y208431D01*
X504644Y199526D01*
X504644Y199526D01*
X505223Y199139D01*
X505905Y199003D01*
X520579D01*
X521126Y198291D01*
X521857Y197730D01*
X522708Y197378D01*
X523622Y197257D01*
X524536Y197378D01*
X525387Y197730D01*
X526118Y198291D01*
X526679Y199022D01*
X527032Y199874D01*
X527152Y200787D01*
X527032Y201701D01*
X526679Y202553D01*
X526118Y203284D01*
X525387Y203845D01*
X524536Y204197D01*
X524485Y204204D01*
X523026Y205663D01*
Y325000D01*
X523026Y325000D01*
X522923Y325783D01*
X522620Y326513D01*
X522140Y327140D01*
X517140Y332140D01*
X516513Y332621D01*
X515783Y332923D01*
X515060Y333018D01*
X514493Y333453D01*
X513532Y333851D01*
X512500Y333987D01*
D02*
G37*
G36*
X308953Y201453D02*
X305500D01*
Y198000D01*
X308953D01*
Y201453D01*
D02*
G37*
G36*
X304500D02*
X301047D01*
Y198000D01*
X304500D01*
Y201453D01*
D02*
G37*
G36*
X308953Y197000D02*
X305500D01*
Y193547D01*
X308953D01*
Y197000D01*
D02*
G37*
G36*
X304500D02*
X301047D01*
Y193547D01*
X304500D01*
Y197000D01*
D02*
G37*
G36*
X320000Y201487D02*
X318968Y201351D01*
X318007Y200953D01*
X317181Y200319D01*
X316547Y199493D01*
X316149Y198532D01*
X316013Y197500D01*
X316149Y196468D01*
X316547Y195507D01*
X317181Y194681D01*
X318007Y194047D01*
X318968Y193649D01*
X320000Y193513D01*
X321032Y193649D01*
X321993Y194047D01*
X322819Y194681D01*
X323453Y195507D01*
X323851Y196468D01*
X323987Y197500D01*
X323851Y198532D01*
X323453Y199493D01*
X322819Y200319D01*
X321993Y200953D01*
X321032Y201351D01*
X320000Y201487D01*
D02*
G37*
G36*
X364500Y187964D02*
Y185000D01*
X367464D01*
X367410Y185414D01*
X367057Y186265D01*
X366496Y186996D01*
X365765Y187557D01*
X364914Y187910D01*
X364500Y187964D01*
D02*
G37*
G36*
X363500D02*
X363086Y187910D01*
X362235Y187557D01*
X361504Y186996D01*
X360943Y186265D01*
X360590Y185414D01*
X360536Y185000D01*
X363500D01*
Y187964D01*
D02*
G37*
G36*
X367464Y184000D02*
X364500D01*
Y181036D01*
X364914Y181090D01*
X365765Y181443D01*
X366496Y182004D01*
X367057Y182735D01*
X367410Y183586D01*
X367464Y184000D01*
D02*
G37*
G36*
X363500D02*
X360536D01*
X360590Y183586D01*
X360943Y182735D01*
X361504Y182004D01*
X362235Y181443D01*
X363086Y181090D01*
X363500Y181036D01*
Y184000D01*
D02*
G37*
G36*
X397000Y175464D02*
Y172500D01*
X399964D01*
X399910Y172914D01*
X399557Y173765D01*
X398996Y174496D01*
X398265Y175057D01*
X397414Y175410D01*
X397000Y175464D01*
D02*
G37*
G36*
X396000D02*
X395586Y175410D01*
X394735Y175057D01*
X394004Y174496D01*
X393443Y173765D01*
X393090Y172914D01*
X393036Y172500D01*
X396000D01*
Y175464D01*
D02*
G37*
G36*
X288000Y173921D02*
Y170500D01*
X291421D01*
X291351Y171032D01*
X290953Y171993D01*
X290319Y172819D01*
X289493Y173453D01*
X288532Y173851D01*
X288000Y173921D01*
D02*
G37*
G36*
X287000D02*
X286468Y173851D01*
X285507Y173453D01*
X284681Y172819D01*
X284047Y171993D01*
X283649Y171032D01*
X283579Y170500D01*
X287000D01*
Y173921D01*
D02*
G37*
G36*
X399964Y171500D02*
X397000D01*
Y168536D01*
X397414Y168590D01*
X398265Y168943D01*
X398996Y169504D01*
X399557Y170235D01*
X399910Y171086D01*
X399964Y171500D01*
D02*
G37*
G36*
X396000D02*
X393036D01*
X393090Y171086D01*
X393443Y170235D01*
X394004Y169504D01*
X394735Y168943D01*
X395586Y168590D01*
X396000Y168536D01*
Y171500D01*
D02*
G37*
G36*
X291421Y169500D02*
X288000D01*
Y166079D01*
X288532Y166149D01*
X289493Y166547D01*
X290319Y167181D01*
X290953Y168007D01*
X291351Y168968D01*
X291421Y169500D01*
D02*
G37*
G36*
X287000D02*
X283579D01*
X283649Y168968D01*
X284047Y168007D01*
X284681Y167181D01*
X285507Y166547D01*
X286468Y166149D01*
X287000Y166079D01*
Y169500D01*
D02*
G37*
G36*
X487000Y167964D02*
Y165000D01*
X489964D01*
X489910Y165414D01*
X489557Y166265D01*
X488996Y166996D01*
X488265Y167557D01*
X487414Y167910D01*
X487000Y167964D01*
D02*
G37*
G36*
X486000D02*
X485586Y167910D01*
X484735Y167557D01*
X484004Y166996D01*
X483443Y166265D01*
X483090Y165414D01*
X483036Y165000D01*
X486000D01*
Y167964D01*
D02*
G37*
G36*
X489964Y164000D02*
X487000D01*
Y161036D01*
X487414Y161090D01*
X488265Y161443D01*
X488996Y162004D01*
X489557Y162735D01*
X489910Y163586D01*
X489964Y164000D01*
D02*
G37*
G36*
X486000D02*
X483036D01*
X483090Y163586D01*
X483443Y162735D01*
X484004Y162004D01*
X484735Y161443D01*
X485586Y161090D01*
X486000Y161036D01*
Y164000D01*
D02*
G37*
G36*
X287500Y163987D02*
X286468Y163851D01*
X285507Y163453D01*
X284681Y162819D01*
X284047Y161993D01*
X283649Y161032D01*
X283513Y160000D01*
X283649Y158968D01*
X284047Y158007D01*
X284681Y157181D01*
X285507Y156547D01*
X286468Y156149D01*
X287500Y156013D01*
X288532Y156149D01*
X289493Y156547D01*
X290319Y157181D01*
X290953Y158007D01*
X291351Y158968D01*
X291487Y160000D01*
X291351Y161032D01*
X290953Y161993D01*
X290319Y162819D01*
X289493Y163453D01*
X288532Y163851D01*
X287500Y163987D01*
D02*
G37*
G36*
X291453Y153953D02*
X283547D01*
Y146047D01*
X291453D01*
Y153953D01*
D02*
G37*
G36*
X516248Y145197D02*
Y142232D01*
X519212D01*
X519158Y142646D01*
X518805Y143497D01*
X518244Y144228D01*
X517513Y144790D01*
X516662Y145142D01*
X516248Y145197D01*
D02*
G37*
G36*
X515248D02*
X514834Y145142D01*
X513983Y144790D01*
X513252Y144228D01*
X512691Y143497D01*
X512338Y142646D01*
X512284Y142232D01*
X515248D01*
Y145197D01*
D02*
G37*
G36*
X487000Y142964D02*
Y140000D01*
X489964D01*
X489910Y140414D01*
X489557Y141265D01*
X488996Y141996D01*
X488265Y142557D01*
X487414Y142910D01*
X487000Y142964D01*
D02*
G37*
G36*
X486000D02*
X485586Y142910D01*
X484735Y142557D01*
X484004Y141996D01*
X483443Y141265D01*
X483090Y140414D01*
X483036Y140000D01*
X486000D01*
Y142964D01*
D02*
G37*
G36*
X519212Y141232D02*
X516248D01*
Y138268D01*
X516662Y138322D01*
X517513Y138675D01*
X518244Y139236D01*
X518805Y139967D01*
X519158Y140819D01*
X519212Y141232D01*
D02*
G37*
G36*
X515248D02*
X512284D01*
X512338Y140819D01*
X512691Y139967D01*
X513252Y139236D01*
X513983Y138675D01*
X514834Y138322D01*
X515248Y138268D01*
Y141232D01*
D02*
G37*
G36*
X489964Y139000D02*
X487000D01*
Y136036D01*
X487414Y136090D01*
X488265Y136443D01*
X488996Y137004D01*
X489557Y137735D01*
X489910Y138586D01*
X489964Y139000D01*
D02*
G37*
G36*
X486000D02*
X483036D01*
X483090Y138586D01*
X483443Y137735D01*
X484004Y137004D01*
X484735Y136443D01*
X485586Y136090D01*
X486000Y136036D01*
Y139000D01*
D02*
G37*
G36*
X419500Y137964D02*
Y135000D01*
X422464D01*
X422410Y135414D01*
X422057Y136265D01*
X421496Y136996D01*
X420765Y137557D01*
X419914Y137910D01*
X419500Y137964D01*
D02*
G37*
G36*
X418500D02*
X418086Y137910D01*
X417235Y137557D01*
X416504Y136996D01*
X415943Y136265D01*
X415590Y135414D01*
X415536Y135000D01*
X418500D01*
Y137964D01*
D02*
G37*
G36*
X422464Y134000D02*
X419500D01*
Y131036D01*
X419914Y131090D01*
X420765Y131443D01*
X421496Y132004D01*
X422057Y132735D01*
X422410Y133586D01*
X422464Y134000D01*
D02*
G37*
G36*
X418500D02*
X415536D01*
X415590Y133586D01*
X415943Y132735D01*
X416504Y132004D01*
X417235Y131443D01*
X418086Y131090D01*
X418500Y131036D01*
Y134000D01*
D02*
G37*
G36*
X386400Y158930D02*
X385486Y158810D01*
X384635Y158457D01*
X383904Y157896D01*
X383343Y157165D01*
X382990Y156314D01*
X382870Y155400D01*
X382990Y154486D01*
X383343Y153635D01*
X383904Y152904D01*
X384616Y152357D01*
Y139600D01*
X384752Y138917D01*
X385138Y138338D01*
X393087Y130390D01*
X392970Y129500D01*
X393090Y128586D01*
X393443Y127735D01*
X394004Y127004D01*
X394735Y126443D01*
X395586Y126090D01*
X396500Y125970D01*
X397414Y126090D01*
X398265Y126443D01*
X398996Y127004D01*
X399557Y127735D01*
X399910Y128586D01*
X400030Y129500D01*
X399910Y130414D01*
X399557Y131265D01*
X398996Y131996D01*
X398265Y132557D01*
X397414Y132910D01*
X396500Y133030D01*
X395610Y132913D01*
X388184Y140339D01*
Y152357D01*
X388896Y152904D01*
X389457Y153635D01*
X389810Y154486D01*
X389930Y155400D01*
X389810Y156314D01*
X389457Y157165D01*
X388896Y157896D01*
X388165Y158457D01*
X387314Y158810D01*
X386400Y158930D01*
D02*
G37*
G36*
X352000Y128469D02*
Y125000D01*
X355469D01*
X355397Y125544D01*
X354994Y126517D01*
X354353Y127353D01*
X353517Y127994D01*
X352544Y128397D01*
X352000Y128469D01*
D02*
G37*
G36*
X351000D02*
X350456Y128397D01*
X349483Y127994D01*
X348647Y127353D01*
X348006Y126517D01*
X347603Y125544D01*
X347531Y125000D01*
X351000D01*
Y128469D01*
D02*
G37*
G36*
X355469Y124000D02*
X352000D01*
Y120531D01*
X352544Y120603D01*
X353517Y121006D01*
X354353Y121647D01*
X354994Y122483D01*
X355397Y123456D01*
X355469Y124000D01*
D02*
G37*
G36*
X351000D02*
X347531D01*
X347603Y123456D01*
X348006Y122483D01*
X348647Y121647D01*
X349483Y121006D01*
X350456Y120603D01*
X351000Y120531D01*
Y124000D01*
D02*
G37*
G36*
X511811Y136860D02*
X510110Y136726D01*
X508450Y136328D01*
X506873Y135675D01*
X505418Y134783D01*
X504120Y133675D01*
X503012Y132377D01*
X502120Y130922D01*
X501467Y129345D01*
X501069Y127686D01*
X500935Y125984D01*
X501069Y124283D01*
X501467Y122623D01*
X502120Y121047D01*
X503012Y119591D01*
X504120Y118294D01*
X505418Y117185D01*
X506873Y116294D01*
X508450Y115640D01*
X510110Y115242D01*
X511811Y115108D01*
X513512Y115242D01*
X515172Y115640D01*
X516749Y116294D01*
X518204Y117185D01*
X519502Y118294D01*
X520610Y119591D01*
X521502Y121047D01*
X522155Y122623D01*
X522553Y124283D01*
X522687Y125984D01*
X522553Y127686D01*
X522155Y129345D01*
X521502Y130922D01*
X520610Y132377D01*
X519502Y133675D01*
X518204Y134783D01*
X516749Y135675D01*
X515172Y136328D01*
X513512Y136726D01*
X511811Y136860D01*
D02*
G37*
G36*
X313795Y118677D02*
X305890D01*
Y110772D01*
X313795D01*
Y118677D01*
D02*
G37*
G36*
X310343Y108645D02*
Y105224D01*
X313763D01*
X313693Y105756D01*
X313295Y106718D01*
X312662Y107544D01*
X311836Y108177D01*
X310874Y108575D01*
X310343Y108645D01*
D02*
G37*
G36*
X309343D02*
X308811Y108575D01*
X307849Y108177D01*
X307023Y107544D01*
X306390Y106718D01*
X305992Y105756D01*
X305922Y105224D01*
X309343D01*
Y108645D01*
D02*
G37*
G36*
X313763Y104224D02*
X310343D01*
Y100803D01*
X310874Y100873D01*
X311836Y101272D01*
X312662Y101905D01*
X313295Y102731D01*
X313693Y103692D01*
X313763Y104224D01*
D02*
G37*
G36*
X309343D02*
X305922D01*
X305992Y103692D01*
X306390Y102731D01*
X307023Y101905D01*
X307849Y101272D01*
X308811Y100873D01*
X309343Y100803D01*
Y104224D01*
D02*
G37*
G36*
X338583Y121112D02*
X336881Y120978D01*
X335222Y120580D01*
X333645Y119927D01*
X332190Y119035D01*
X330892Y117927D01*
X329784Y116629D01*
X328892Y115174D01*
X328239Y113597D01*
X327840Y111938D01*
X327707Y110236D01*
X327840Y108535D01*
X328239Y106875D01*
X328892Y105299D01*
X329784Y103843D01*
X330892Y102546D01*
X332190Y101437D01*
X333645Y100546D01*
X335222Y99892D01*
X336881Y99494D01*
X338583Y99360D01*
X340284Y99494D01*
X341944Y99892D01*
X343520Y100546D01*
X344975Y101437D01*
X346273Y102546D01*
X347382Y103843D01*
X348273Y105299D01*
X348926Y106875D01*
X349325Y108535D01*
X349459Y110236D01*
X349325Y111938D01*
X348926Y113597D01*
X348273Y115174D01*
X347382Y116629D01*
X346273Y117927D01*
X344975Y119035D01*
X343520Y119927D01*
X341944Y120580D01*
X340284Y120978D01*
X338583Y121112D01*
D02*
G37*
%LPD*%
G36*
X393558Y336058D02*
X393558Y336058D01*
X394220Y335616D01*
X395000Y335461D01*
X395000Y335461D01*
X404100D01*
X404346Y334961D01*
X404006Y334517D01*
X403603Y333544D01*
X403466Y332500D01*
X403603Y331456D01*
X404006Y330483D01*
X404647Y329647D01*
X405483Y329006D01*
X406456Y328603D01*
X407500Y328466D01*
X408544Y328603D01*
X409517Y329006D01*
X410353Y329647D01*
X410994Y330483D01*
X411397Y331456D01*
X411535Y332500D01*
X411397Y333544D01*
X410994Y334517D01*
X410654Y334961D01*
X410900Y335461D01*
X429155D01*
X433641Y330975D01*
X433513Y330000D01*
X433641Y329025D01*
X424155Y319539D01*
X410900D01*
X410654Y320039D01*
X410994Y320483D01*
X411397Y321456D01*
X411535Y322500D01*
X411397Y323544D01*
X410994Y324517D01*
X410353Y325353D01*
X409517Y325994D01*
X408544Y326397D01*
X407500Y326535D01*
X406456Y326397D01*
X405483Y325994D01*
X404647Y325353D01*
X404006Y324517D01*
X403804Y324029D01*
X400633D01*
X386081Y338581D01*
X385585Y338913D01*
X385000Y339029D01*
X350325D01*
X350165Y339503D01*
X350353Y339647D01*
X350994Y340483D01*
X351397Y341456D01*
X351535Y342500D01*
X351397Y343544D01*
X350994Y344517D01*
X350654Y344961D01*
X350900Y345461D01*
X384155D01*
X393558Y336058D01*
D02*
G37*
D11*
X337500Y337500D02*
X385000D01*
X325000Y350000D02*
X337500Y337500D01*
X320000Y350000D02*
X325000D01*
X312500Y352500D02*
X320000Y360000D01*
X312500Y347500D02*
Y352500D01*
Y347500D02*
X315000Y345000D01*
X325000D02*
X347500Y322500D01*
X315000Y345000D02*
X325000D01*
X400000Y322500D02*
X407500D01*
X385000Y337500D02*
X400000Y322500D01*
X320000Y340000D02*
X347500Y312500D01*
X335000Y305000D02*
X347500Y292500D01*
X335000Y305000D02*
Y315000D01*
X320000Y330000D02*
X335000Y315000D01*
X320000Y227500D02*
X352500D01*
X357500Y222500D01*
X430000Y390000D02*
X475000D01*
X417500Y377500D02*
X430000Y390000D01*
X402500Y377500D02*
X417500D01*
X397500Y372500D02*
X402500Y377500D01*
D42*
X520000Y204409D02*
X523622Y200787D01*
X520000Y204409D02*
Y325000D01*
X515000Y330000D02*
X520000Y325000D01*
X512500Y330000D02*
X515000D01*
D43*
X487500Y420000D02*
X512500D01*
X487224Y420276D02*
X487500Y420000D01*
X476378Y420276D02*
X487224D01*
X437500Y420000D02*
X462500D01*
X475394Y282500D02*
X489500D01*
X434500D02*
X475394D01*
X462500Y420000D02*
X462776Y420276D01*
X476378D01*
Y403543D02*
Y420276D01*
Y403543D02*
X487205Y392717D01*
Y366142D02*
Y392717D01*
X475394Y354331D02*
X487205Y366142D01*
X475394Y282500D02*
Y354331D01*
X345000Y200000D02*
X415000D01*
X324685Y179685D02*
X345000Y200000D01*
X314961Y179685D02*
X324185D01*
X305000D02*
X314961D01*
Y127953D02*
Y179685D01*
X422500Y207500D02*
Y277500D01*
X415000Y200000D02*
X422500Y207500D01*
X427500Y282500D02*
X434500D01*
X422500Y277500D02*
X427500Y282500D01*
X295000Y440000D02*
Y455000D01*
Y352500D02*
Y440000D01*
Y340000D02*
Y352500D01*
Y250000D02*
Y340000D01*
X312500Y472500D02*
X320000D01*
X295000Y455000D02*
X312500Y472500D01*
Y370000D02*
X320000D01*
X295000Y352500D02*
X312500Y370000D01*
X295000Y237500D02*
Y250000D01*
Y189685D02*
Y237500D01*
Y250000D02*
X312500Y267500D01*
X320000D01*
X295000Y189685D02*
X305000Y179685D01*
D44*
X425000Y317500D02*
X437500Y330000D01*
X402500Y317500D02*
X425000D01*
X392500Y307500D02*
X402500Y317500D01*
X392500Y245000D02*
Y307500D01*
X365000Y217500D02*
X392500Y245000D01*
X320000Y217500D02*
X365000D01*
X385000Y347500D02*
Y432500D01*
X395000Y442500D01*
X407500D01*
X430000Y337500D02*
X437500Y330000D01*
X395000Y337500D02*
X430000D01*
X385000Y347500D02*
X395000Y337500D01*
X337500Y347500D02*
X385000D01*
X335000Y350000D02*
X337500Y347500D01*
X335000Y350000D02*
Y407500D01*
X320000Y422500D02*
X335000Y407500D01*
D46*
X505905Y200787D02*
X523622D01*
X497000Y209693D02*
X505905Y200787D01*
X497000Y209693D02*
Y225000D01*
X386400Y139600D02*
X396500Y129500D01*
X386400Y139600D02*
Y155400D01*
X489500Y232500D02*
X497000Y225000D01*
D48*
X347500Y312500D02*
D03*
Y322500D02*
D03*
Y332500D02*
D03*
Y342500D02*
D03*
Y352500D02*
D03*
Y362500D02*
D03*
Y372500D02*
D03*
Y382500D02*
D03*
Y392500D02*
D03*
Y402500D02*
D03*
Y412500D02*
D03*
Y422500D02*
D03*
Y432500D02*
D03*
Y442500D02*
D03*
Y302500D02*
D03*
Y292500D02*
D03*
Y282500D02*
D03*
Y272500D02*
D03*
Y262500D02*
D03*
Y252500D02*
D03*
Y242500D02*
D03*
Y232500D02*
D03*
Y222500D02*
D03*
Y212500D02*
D03*
X407500D02*
D03*
Y222500D02*
D03*
Y232500D02*
D03*
Y242500D02*
D03*
Y252500D02*
D03*
Y262500D02*
D03*
Y272500D02*
D03*
Y282500D02*
D03*
Y292500D02*
D03*
Y302500D02*
D03*
Y312500D02*
D03*
Y322500D02*
D03*
Y332500D02*
D03*
Y342500D02*
D03*
Y352500D02*
D03*
Y362500D02*
D03*
Y372500D02*
D03*
Y382500D02*
D03*
Y392500D02*
D03*
Y402500D02*
D03*
Y412500D02*
D03*
Y422500D02*
D03*
Y432500D02*
D03*
Y442500D02*
D03*
X357500Y262500D02*
D03*
X367500D02*
D03*
X377500D02*
D03*
X387500D02*
D03*
X397500D02*
D03*
X357500Y292500D02*
D03*
Y282500D02*
D03*
Y272500D02*
D03*
Y252500D02*
D03*
Y242500D02*
D03*
Y232500D02*
D03*
Y222500D02*
D03*
Y212500D02*
D03*
X397500D02*
D03*
Y222500D02*
D03*
Y232500D02*
D03*
Y242500D02*
D03*
Y252500D02*
D03*
Y272500D02*
D03*
Y282500D02*
D03*
Y292500D02*
D03*
Y352500D02*
D03*
Y362500D02*
D03*
Y372500D02*
D03*
Y382500D02*
D03*
Y392500D02*
D03*
Y402500D02*
D03*
Y412500D02*
D03*
Y432500D02*
D03*
X351500Y124500D02*
D03*
X295000Y440000D02*
D03*
D49*
X309842Y114724D02*
D03*
X434500Y292500D02*
D03*
X450000Y212500D02*
D03*
X437500Y465000D02*
D03*
X287500Y150000D02*
D03*
X489500Y292500D02*
D03*
X505000Y212500D02*
D03*
X320000Y277500D02*
D03*
X305000Y197500D02*
D03*
X320000Y380000D02*
D03*
X305000Y300000D02*
D03*
X320000Y482500D02*
D03*
X305000Y402500D02*
D03*
X512500Y320000D02*
D03*
X487500D02*
D03*
X462500D02*
D03*
X437500D02*
D03*
X512500Y410000D02*
D03*
X487500D02*
D03*
X462500D02*
D03*
X437500D02*
D03*
X512500Y465000D02*
D03*
X482500D02*
D03*
X497500D02*
D03*
X452500D02*
D03*
X467500D02*
D03*
D50*
X309842Y104724D02*
D03*
X434500Y272500D02*
D03*
Y262500D02*
D03*
Y252500D02*
D03*
Y242500D02*
D03*
Y232500D02*
D03*
Y222500D02*
D03*
Y212500D02*
D03*
Y282500D02*
D03*
X450000Y222500D02*
D03*
Y232500D02*
D03*
X437500Y475000D02*
D03*
X287500Y160000D02*
D03*
Y170000D02*
D03*
X489500Y282500D02*
D03*
Y212500D02*
D03*
Y222500D02*
D03*
Y232500D02*
D03*
Y242500D02*
D03*
Y252500D02*
D03*
Y262500D02*
D03*
Y272500D02*
D03*
X505000Y232500D02*
D03*
Y222500D02*
D03*
X320000Y267500D02*
D03*
Y197500D02*
D03*
Y207500D02*
D03*
Y217500D02*
D03*
Y227500D02*
D03*
Y237500D02*
D03*
Y247500D02*
D03*
Y257500D02*
D03*
X305000Y217500D02*
D03*
Y207500D02*
D03*
X320000Y370000D02*
D03*
Y300000D02*
D03*
Y310000D02*
D03*
Y320000D02*
D03*
Y330000D02*
D03*
Y340000D02*
D03*
Y350000D02*
D03*
Y360000D02*
D03*
X305000Y320000D02*
D03*
Y310000D02*
D03*
X320000Y472500D02*
D03*
Y402500D02*
D03*
Y412500D02*
D03*
Y422500D02*
D03*
Y432500D02*
D03*
Y442500D02*
D03*
Y452500D02*
D03*
Y462500D02*
D03*
X305000Y422500D02*
D03*
Y412500D02*
D03*
X512500Y330000D02*
D03*
Y340000D02*
D03*
X487500Y330000D02*
D03*
Y340000D02*
D03*
X462500Y330000D02*
D03*
Y340000D02*
D03*
X437500Y330000D02*
D03*
Y340000D02*
D03*
X512500Y420000D02*
D03*
X487500D02*
D03*
X462500D02*
D03*
X437500D02*
D03*
X512500Y475000D02*
D03*
X482500D02*
D03*
X497500D02*
D03*
X452500D02*
D03*
X467500D02*
D03*
D51*
X511811Y125984D02*
D03*
X410000Y480000D02*
D03*
X338583Y110236D02*
D03*
D52*
X523622Y200787D02*
D03*
X515748Y141732D02*
D03*
X475394Y376969D02*
D03*
X511811Y369094D02*
D03*
X500000Y376969D02*
D03*
X449803D02*
D03*
X475394Y389764D02*
D03*
X314961Y127953D02*
D03*
X386400Y155400D02*
D03*
X335000Y350000D02*
D03*
X396500Y129500D02*
D03*
X486500Y164500D02*
D03*
Y139500D02*
D03*
X419000Y134500D02*
D03*
X364000Y184500D02*
D03*
X396500Y172000D02*
D03*
X295000Y340000D02*
D03*
Y237500D02*
D03*
M02*
