G04*
G04 #@! TF.GenerationSoftware,Altium Limited,Altium Designer,18.0.9 (584)*
G04*
G04 Layer_Color=128*
%FSLAX25Y25*%
%MOIN*%
G70*
G01*
G75*
%ADD57C,0.00200*%
D57*
X345500Y312500D02*
X349500D01*
X347500Y310500D02*
Y314500D01*
X345500Y322500D02*
X349500D01*
X347500Y320500D02*
Y324500D01*
X345500Y332500D02*
X349500D01*
X347500Y330500D02*
Y334500D01*
X345500Y342500D02*
X349500D01*
X347500Y340500D02*
Y344500D01*
X345500Y352500D02*
X349500D01*
X347500Y350500D02*
Y354500D01*
X345500Y362500D02*
X349500D01*
X347500Y360500D02*
Y364500D01*
X345500Y372500D02*
X349500D01*
X347500Y370500D02*
Y374500D01*
X345500Y382500D02*
X349500D01*
X347500Y380500D02*
Y384500D01*
X345500Y392500D02*
X349500D01*
X347500Y390500D02*
Y394500D01*
X345500Y402500D02*
X349500D01*
X347500Y400500D02*
Y404500D01*
X345500Y412500D02*
X349500D01*
X347500Y410500D02*
Y414500D01*
X345500Y422500D02*
X349500D01*
X347500Y420500D02*
Y424500D01*
X345500Y432500D02*
X349500D01*
X347500Y430500D02*
Y434500D01*
X345500Y442500D02*
X349500D01*
X347500Y440500D02*
Y444500D01*
X345500Y302500D02*
X349500D01*
X347500Y300500D02*
Y304500D01*
X345500Y292500D02*
X349500D01*
X347500Y290500D02*
Y294500D01*
X345500Y282500D02*
X349500D01*
X347500Y280500D02*
Y284500D01*
X345500Y272500D02*
X349500D01*
X347500Y270500D02*
Y274500D01*
X345500Y262500D02*
X349500D01*
X347500Y260500D02*
Y264500D01*
X345500Y252500D02*
X349500D01*
X347500Y250500D02*
Y254500D01*
X345500Y242500D02*
X349500D01*
X347500Y240500D02*
Y244500D01*
X345500Y232500D02*
X349500D01*
X347500Y230500D02*
Y234500D01*
X345500Y222500D02*
X349500D01*
X347500Y220500D02*
Y224500D01*
X345500Y212500D02*
X349500D01*
X347500Y210500D02*
Y214500D01*
X405500Y212500D02*
X409500D01*
X407500Y210500D02*
Y214500D01*
X405500Y222500D02*
X409500D01*
X407500Y220500D02*
Y224500D01*
X405500Y232500D02*
X409500D01*
X407500Y230500D02*
Y234500D01*
X405500Y242500D02*
X409500D01*
X407500Y240500D02*
Y244500D01*
X405500Y252500D02*
X409500D01*
X407500Y250500D02*
Y254500D01*
X405500Y262500D02*
X409500D01*
X407500Y260500D02*
Y264500D01*
X405500Y272500D02*
X409500D01*
X407500Y270500D02*
Y274500D01*
X405500Y282500D02*
X409500D01*
X407500Y280500D02*
Y284500D01*
X405500Y292500D02*
X409500D01*
X407500Y290500D02*
Y294500D01*
X405500Y302500D02*
X409500D01*
X407500Y300500D02*
Y304500D01*
X405500Y312500D02*
X409500D01*
X407500Y310500D02*
Y314500D01*
X405500Y322500D02*
X409500D01*
X407500Y320500D02*
Y324500D01*
X405500Y332500D02*
X409500D01*
X407500Y330500D02*
Y334500D01*
X405500Y342500D02*
X409500D01*
X407500Y340500D02*
Y344500D01*
X405500Y352500D02*
X409500D01*
X407500Y350500D02*
Y354500D01*
X405500Y362500D02*
X409500D01*
X407500Y360500D02*
Y364500D01*
X405500Y372500D02*
X409500D01*
X407500Y370500D02*
Y374500D01*
X405500Y382500D02*
X409500D01*
X407500Y380500D02*
Y384500D01*
X405500Y392500D02*
X409500D01*
X407500Y390500D02*
Y394500D01*
X405500Y402500D02*
X409500D01*
X407500Y400500D02*
Y404500D01*
X405500Y412500D02*
X409500D01*
X407500Y410500D02*
Y414500D01*
X405500Y422500D02*
X409500D01*
X407500Y420500D02*
Y424500D01*
X405500Y432500D02*
X409500D01*
X407500Y430500D02*
Y434500D01*
X405500Y442500D02*
X409500D01*
X407500Y440500D02*
Y444500D01*
X355500Y262500D02*
X359500D01*
X357500Y260500D02*
Y264500D01*
X365500Y262500D02*
X369500D01*
X367500Y260500D02*
Y264500D01*
X375500Y262500D02*
X379500D01*
X377500Y260500D02*
Y264500D01*
X385500Y262500D02*
X389500D01*
X387500Y260500D02*
Y264500D01*
X395500Y262500D02*
X399500D01*
X397500Y260500D02*
Y264500D01*
X355500Y292500D02*
X359500D01*
X357500Y290500D02*
Y294500D01*
X355500Y282500D02*
X359500D01*
X357500Y280500D02*
Y284500D01*
X355500Y272500D02*
X359500D01*
X357500Y270500D02*
Y274500D01*
X355500Y252500D02*
X359500D01*
X357500Y250500D02*
Y254500D01*
X355500Y242500D02*
X359500D01*
X357500Y240500D02*
Y244500D01*
X355500Y232500D02*
X359500D01*
X357500Y230500D02*
Y234500D01*
X355500Y222500D02*
X359500D01*
X357500Y220500D02*
Y224500D01*
X355500Y212500D02*
X359500D01*
X357500Y210500D02*
Y214500D01*
X395500Y212500D02*
X399500D01*
X397500Y210500D02*
Y214500D01*
X395500Y222500D02*
X399500D01*
X397500Y220500D02*
Y224500D01*
X395500Y232500D02*
X399500D01*
X397500Y230500D02*
Y234500D01*
X395500Y242500D02*
X399500D01*
X397500Y240500D02*
Y244500D01*
X395500Y252500D02*
X399500D01*
X397500Y250500D02*
Y254500D01*
X395500Y272500D02*
X399500D01*
X397500Y270500D02*
Y274500D01*
X395500Y282500D02*
X399500D01*
X397500Y280500D02*
Y284500D01*
X395500Y292500D02*
X399500D01*
X397500Y290500D02*
Y294500D01*
X395500Y352500D02*
X399500D01*
X397500Y350500D02*
Y354500D01*
X395500Y362500D02*
X399500D01*
X397500Y360500D02*
Y364500D01*
X395500Y372500D02*
X399500D01*
X397500Y370500D02*
Y374500D01*
X395500Y382500D02*
X399500D01*
X397500Y380500D02*
Y384500D01*
X395500Y392500D02*
X399500D01*
X397500Y390500D02*
Y394500D01*
X395500Y402500D02*
X399500D01*
X397500Y400500D02*
Y404500D01*
X395500Y412500D02*
X399500D01*
X397500Y410500D02*
Y414500D01*
X395500Y432500D02*
X399500D01*
X397500Y430500D02*
Y434500D01*
X308071Y114724D02*
X311614D01*
X309842Y112953D02*
Y116496D01*
X308071Y104724D02*
X311614D01*
X309842Y102953D02*
Y106496D01*
X432728Y292500D02*
X436272D01*
X434500Y290728D02*
Y294272D01*
X432728Y272500D02*
X436272D01*
X434500Y270728D02*
Y274272D01*
X432728Y262500D02*
X436272D01*
X434500Y260728D02*
Y264272D01*
X432728Y252500D02*
X436272D01*
X434500Y250728D02*
Y254272D01*
X432728Y242500D02*
X436272D01*
X434500Y240728D02*
Y244272D01*
X432728Y232500D02*
X436272D01*
X434500Y230728D02*
Y234272D01*
X432728Y222500D02*
X436272D01*
X434500Y220728D02*
Y224272D01*
X432728Y212500D02*
X436272D01*
X434500Y210728D02*
Y214272D01*
X432728Y282500D02*
X436272D01*
X434500Y280728D02*
Y284272D01*
X448228Y212500D02*
X451772D01*
X450000Y210728D02*
Y214272D01*
X448228Y222500D02*
X451772D01*
X450000Y220728D02*
Y224272D01*
X448228Y232500D02*
X451772D01*
X450000Y230728D02*
Y234272D01*
X435728Y475000D02*
X439272D01*
X437500Y473228D02*
Y476772D01*
X435728Y465000D02*
X439272D01*
X437500Y463228D02*
Y466772D01*
X285728Y150000D02*
X289272D01*
X287500Y148228D02*
Y151772D01*
X285728Y160000D02*
X289272D01*
X287500Y158228D02*
Y161772D01*
X285728Y170000D02*
X289272D01*
X287500Y168228D02*
Y171772D01*
X505315Y125984D02*
X518307D01*
X511811Y119488D02*
Y132480D01*
X403504Y480000D02*
X416496D01*
X410000Y473504D02*
Y486496D01*
X332087Y110236D02*
X345079D01*
X338583Y103740D02*
Y116732D01*
X487728Y282500D02*
X491272D01*
X489500Y280728D02*
Y284272D01*
X487728Y212500D02*
X491272D01*
X489500Y210728D02*
Y214272D01*
X487728Y222500D02*
X491272D01*
X489500Y220728D02*
Y224272D01*
X487728Y232500D02*
X491272D01*
X489500Y230728D02*
Y234272D01*
X487728Y242500D02*
X491272D01*
X489500Y240728D02*
Y244272D01*
X487728Y252500D02*
X491272D01*
X489500Y250728D02*
Y254272D01*
X487728Y262500D02*
X491272D01*
X489500Y260728D02*
Y264272D01*
X487728Y272500D02*
X491272D01*
X489500Y270728D02*
Y274272D01*
X487728Y292500D02*
X491272D01*
X489500Y290728D02*
Y294272D01*
X503228Y232500D02*
X506772D01*
X505000Y230728D02*
Y234272D01*
X503228Y222500D02*
X506772D01*
X505000Y220728D02*
Y224272D01*
X503228Y212500D02*
X506772D01*
X505000Y210728D02*
Y214272D01*
X318228Y267500D02*
X321772D01*
X320000Y265728D02*
Y269272D01*
X318228Y197500D02*
X321772D01*
X320000Y195728D02*
Y199272D01*
X318228Y207500D02*
X321772D01*
X320000Y205728D02*
Y209272D01*
X318228Y217500D02*
X321772D01*
X320000Y215728D02*
Y219272D01*
X318228Y227500D02*
X321772D01*
X320000Y225728D02*
Y229272D01*
X318228Y237500D02*
X321772D01*
X320000Y235728D02*
Y239272D01*
X318228Y247500D02*
X321772D01*
X320000Y245728D02*
Y249272D01*
X318228Y257500D02*
X321772D01*
X320000Y255728D02*
Y259272D01*
X318228Y277500D02*
X321772D01*
X320000Y275728D02*
Y279272D01*
X303228Y217500D02*
X306772D01*
X305000Y215728D02*
Y219272D01*
X303228Y207500D02*
X306772D01*
X305000Y205728D02*
Y209272D01*
X303228Y197500D02*
X306772D01*
X305000Y195728D02*
Y199272D01*
X318228Y370000D02*
X321772D01*
X320000Y368228D02*
Y371772D01*
X318228Y300000D02*
X321772D01*
X320000Y298228D02*
Y301772D01*
X318228Y310000D02*
X321772D01*
X320000Y308228D02*
Y311772D01*
X318228Y320000D02*
X321772D01*
X320000Y318228D02*
Y321772D01*
X318228Y330000D02*
X321772D01*
X320000Y328228D02*
Y331772D01*
X318228Y340000D02*
X321772D01*
X320000Y338228D02*
Y341772D01*
X318228Y350000D02*
X321772D01*
X320000Y348228D02*
Y351772D01*
X318228Y360000D02*
X321772D01*
X320000Y358228D02*
Y361772D01*
X318228Y380000D02*
X321772D01*
X320000Y378228D02*
Y381772D01*
X303228Y320000D02*
X306772D01*
X305000Y318228D02*
Y321772D01*
X303228Y310000D02*
X306772D01*
X305000Y308228D02*
Y311772D01*
X303228Y300000D02*
X306772D01*
X305000Y298228D02*
Y301772D01*
X318228Y472500D02*
X321772D01*
X320000Y470728D02*
Y474272D01*
X318228Y402500D02*
X321772D01*
X320000Y400728D02*
Y404272D01*
X318228Y412500D02*
X321772D01*
X320000Y410728D02*
Y414272D01*
X318228Y422500D02*
X321772D01*
X320000Y420728D02*
Y424272D01*
X318228Y432500D02*
X321772D01*
X320000Y430728D02*
Y434272D01*
X318228Y442500D02*
X321772D01*
X320000Y440728D02*
Y444272D01*
X318228Y452500D02*
X321772D01*
X320000Y450728D02*
Y454272D01*
X318228Y462500D02*
X321772D01*
X320000Y460728D02*
Y464272D01*
X318228Y482500D02*
X321772D01*
X320000Y480728D02*
Y484272D01*
X303228Y422500D02*
X306772D01*
X305000Y420728D02*
Y424272D01*
X303228Y412500D02*
X306772D01*
X305000Y410728D02*
Y414272D01*
X303228Y402500D02*
X306772D01*
X305000Y400728D02*
Y404272D01*
X510728Y320000D02*
X514272D01*
X512500Y318228D02*
Y321772D01*
X510728Y330000D02*
X514272D01*
X512500Y328228D02*
Y331772D01*
X510728Y340000D02*
X514272D01*
X512500Y338228D02*
Y341772D01*
X485728Y320000D02*
X489272D01*
X487500Y318228D02*
Y321772D01*
X485728Y330000D02*
X489272D01*
X487500Y328228D02*
Y331772D01*
X485728Y340000D02*
X489272D01*
X487500Y338228D02*
Y341772D01*
X460728Y320000D02*
X464272D01*
X462500Y318228D02*
Y321772D01*
X460728Y330000D02*
X464272D01*
X462500Y328228D02*
Y331772D01*
X460728Y340000D02*
X464272D01*
X462500Y338228D02*
Y341772D01*
X435728Y320000D02*
X439272D01*
X437500Y318228D02*
Y321772D01*
X435728Y330000D02*
X439272D01*
X437500Y328228D02*
Y331772D01*
X435728Y340000D02*
X439272D01*
X437500Y338228D02*
Y341772D01*
X510728Y410000D02*
X514272D01*
X512500Y408228D02*
Y411772D01*
X510728Y420000D02*
X514272D01*
X512500Y418228D02*
Y421772D01*
X485728Y410000D02*
X489272D01*
X487500Y408228D02*
Y411772D01*
X485728Y420000D02*
X489272D01*
X487500Y418228D02*
Y421772D01*
X460728Y410000D02*
X464272D01*
X462500Y408228D02*
Y411772D01*
X460728Y420000D02*
X464272D01*
X462500Y418228D02*
Y421772D01*
X435728Y410000D02*
X439272D01*
X437500Y408228D02*
Y411772D01*
X435728Y420000D02*
X439272D01*
X437500Y418228D02*
Y421772D01*
X510728Y465000D02*
X514272D01*
X512500Y463228D02*
Y466772D01*
X510728Y475000D02*
X514272D01*
X512500Y473228D02*
Y476772D01*
X480728Y465000D02*
X484272D01*
X482500Y463228D02*
Y466772D01*
X480728Y475000D02*
X484272D01*
X482500Y473228D02*
Y476772D01*
X495728Y465000D02*
X499272D01*
X497500Y463228D02*
Y466772D01*
X495728Y475000D02*
X499272D01*
X497500Y473228D02*
Y476772D01*
X450728Y465000D02*
X454272D01*
X452500Y463228D02*
Y466772D01*
X450728Y475000D02*
X454272D01*
X452500Y473228D02*
Y476772D01*
X465728Y465000D02*
X469272D01*
X467500Y463228D02*
Y466772D01*
X465728Y475000D02*
X469272D01*
X467500Y473228D02*
Y476772D01*
X522222Y200787D02*
X525022D01*
X523622Y199387D02*
Y202187D01*
X514348Y141732D02*
X517148D01*
X515748Y140332D02*
Y143132D01*
X473994Y376969D02*
X476794D01*
X475394Y375569D02*
Y378368D01*
X510411Y369094D02*
X513211D01*
X511811Y367694D02*
Y370495D01*
X498600Y376969D02*
X501400D01*
X500000Y375569D02*
Y378368D01*
X448403Y376969D02*
X451203D01*
X449803Y375569D02*
Y378368D01*
X473994Y389764D02*
X476794D01*
X475394Y388364D02*
Y391164D01*
X313561Y127953D02*
X316361D01*
X314961Y126553D02*
Y129353D01*
X385000Y155400D02*
X387800D01*
X386400Y154000D02*
Y156800D01*
X333600Y350000D02*
X336400D01*
X335000Y348600D02*
Y351400D01*
X395100Y129500D02*
X397900D01*
X396500Y128100D02*
Y130900D01*
X485100Y164500D02*
X487900D01*
X486500Y163100D02*
Y165900D01*
X485100Y139500D02*
X487900D01*
X486500Y138100D02*
Y140900D01*
X350100Y124500D02*
X352900D01*
X351500Y123100D02*
Y125900D01*
X417600Y134500D02*
X420400D01*
X419000Y133100D02*
Y135900D01*
X362600Y184500D02*
X365400D01*
X364000Y183100D02*
Y185900D01*
X395100Y172000D02*
X397900D01*
X396500Y170600D02*
Y173400D01*
X293600Y440000D02*
X296400D01*
X295000Y438600D02*
Y441400D01*
X293600Y340000D02*
X296400D01*
X295000Y338600D02*
Y341400D01*
X293600Y237500D02*
X296400D01*
X295000Y236100D02*
Y238900D01*
M02*
